{"glyphs":{"0":{"ha":2243,"x_min":0,"x_max":0,"o":"m 1190 790 b 1129 843 1157 790 1132 808 b 1126 888 1126 857 1126 874 b 1129 996 1126 922 1121 964 b 1186 1038 1136 1025 1160 1036 b 1251 1003 1215 1038 1243 1028 b 1258 897 1263 971 1258 928 b 1256 840 1258 875 1258 856 b 1190 790 1247 804 1226 790 m 361 264 l 403 264 l 433 104 l 463 264 l 506 264 l 507 10 l 471 10 l 467 115 l 449 10 l 419 10 l 399 113 l 396 10 l 358 10 m 488 -258 b 524 -219 488 -235 499 -215 b 551 -261 551 -222 551 -244 l 536 -261 b 535 -239 536 -257 536 -247 b 508 -236 531 -228 513 -228 b 504 -279 500 -247 504 -269 b 510 -325 504 -290 500 -314 b 535 -321 513 -333 531 -332 b 536 -300 536 -314 536 -306 l 551 -300 b 521 -344 551 -319 549 -344 b 488 -258 478 -344 488 -289 m 539 264 l 572 264 l 615 142 l 615 264 l 656 264 l 656 10 l 624 10 l 579 133 l 579 10 l 539 10 m 565 -279 b 603 -219 565 -247 565 -215 b 633 -279 638 -222 633 -257 b 600 -344 633 -308 635 -344 b 565 -279 560 -344 565 -306 m 568 1036 l 621 1036 b 678 1008 643 1036 667 1031 b 667 917 694 981 694 939 b 600 907 651 901 621 907 l 600 793 l 568 793 m 569 758 l 603 758 l 603 596 b 621 539 603 575 600 550 b 667 592 657 528 667 564 l 667 758 l 703 758 l 703 647 b 661 517 703 606 711 532 b 576 549 632 506 590 517 b 569 607 569 564 569 585 m 581 -269 b 592 -329 581 -283 576 -322 b 614 -287 619 -343 614 -303 b 608 -233 614 -272 621 -239 b 581 -256 592 -226 581 -239 l 581 -269 m 600 929 b 635 931 611 929 622 928 b 656 967 654 939 656 951 b 635 1008 656 983 656 1003 b 600 1010 622 1014 611 1010 l 600 929 m 611 -65 l 661 -65 l 661 -78 l 632 -78 l 632 -119 l 654 -119 l 654 -132 l 632 -132 l 632 -190 l 611 -190 m 651 -219 l 668 -219 l 692 -319 l 711 -219 l 731 -219 l 731 -343 l 719 -343 l 719 -256 l 699 -343 l 685 -343 l 665 -256 l 665 -343 l 651 -343 m 668 -124 b 708 -62 668 -94 668 -61 b 738 -128 740 -65 738 -104 b 706 -192 738 -157 738 -192 b 668 -124 667 -192 668 -150 m 683 56 l 726 56 l 726 10 l 683 10 m 688 -119 b 699 -178 688 -132 681 -171 b 721 -135 721 -183 721 -150 b 711 -81 721 -119 726 -86 b 688 -100 699 -71 688 -86 l 688 -119 m 711 1036 l 804 1036 l 804 1010 l 746 1010 l 746 929 l 793 929 l 793 907 l 746 907 l 746 815 l 806 815 l 806 793 l 711 793 m 761 592 b 772 549 761 575 761 560 b 811 546 781 535 797 533 b 813 593 825 557 822 582 b 783 619 804 604 797 615 b 738 668 772 632 749 649 b 765 758 719 697 726 747 b 825 750 782 760 806 758 b 846 697 839 739 846 717 l 819 686 b 792 732 818 704 813 729 b 761 714 778 738 764 728 b 797 651 751 685 779 671 b 847 586 822 632 844 618 b 792 514 857 550 833 514 b 726 583 751 514 731 544 m 782 101 b 792 56 782 86 782 69 b 808 47 796 50 800 44 b 818 68 815 50 818 57 b 779 132 818 94 793 115 b 756 158 771 142 760 149 b 746 217 746 174 742 196 b 825 261 747 254 789 278 b 857 181 854 247 857 210 l 818 178 b 803 226 815 194 819 225 b 785 194 782 228 781 204 b 808 165 790 181 800 174 l 829 142 b 858 57 851 118 863 90 b 814 7 857 35 842 14 b 753 36 790 3 764 14 b 742 99 746 56 742 76 m 751 -219 l 772 -219 l 792 -319 l 815 -219 l 832 -219 l 833 -343 l 822 -343 l 819 -256 l 797 -343 l 783 -343 l 768 -256 l 765 -343 l 751 -343 m 757 -65 b 801 -71 772 -65 789 -61 b 801 -128 822 -81 825 -119 l 822 -190 l 801 -190 l 783 -132 l 772 -132 l 772 -190 l 757 -190 m 769 458 b 825 444 783 458 817 460 b 822 399 832 431 832 406 b 783 390 811 389 797 390 l 783 329 l 769 329 m 772 -119 b 801 -99 789 -119 801 -117 b 772 -78 801 -81 789 -78 l 772 -119 m 783 401 b 803 403 790 401 797 401 b 813 426 813 408 813 417 b 783 447 813 447 801 447 l 783 401 m 833 1036 b 929 1026 863 1036 901 1039 b 929 914 963 1007 965 928 l 957 793 l 929 793 l 893 907 l 868 907 l 868 793 l 833 793 m 844 458 l 857 458 l 857 344 l 890 344 l 890 329 l 844 329 m 851 -219 l 901 -219 l 901 -232 l 869 -232 l 869 -269 l 894 -269 l 894 -283 l 869 -283 l 869 -332 l 901 -332 l 901 -343 l 851 -343 m 860 -65 l 925 -65 l 925 -78 l 901 -78 l 901 -190 l 882 -190 l 882 -78 l 860 -78 m 868 929 b 903 931 878 929 890 929 b 919 974 917 940 924 956 b 903 1007 919 986 917 1003 b 868 1010 890 1014 878 1010 l 868 929 m 878 138 b 879 210 878 161 876 188 b 917 264 883 232 894 254 b 972 258 935 268 957 268 b 1000 174 1003 240 1000 201 l 960 174 b 946 226 960 218 957 222 b 922 193 926 229 922 213 l 922 101 b 938 47 922 88 917 53 b 963 104 967 35 963 90 l 938 104 l 938 142 l 1003 142 l 1003 10 l 969 10 l 968 18 b 906 14 951 3 922 3 b 879 67 888 24 882 47 b 878 138 876 90 878 113 m 878 758 l 972 758 l 972 732 l 910 732 l 910 651 l 958 651 l 958 628 l 910 628 l 910 535 l 972 535 l 972 517 l 878 517 m 903 458 l 949 458 l 949 447 l 917 447 l 917 403 l 944 403 l 944 390 l 917 390 l 917 344 l 949 344 l 949 329 l 903 329 m 914 -219 b 960 -222 932 -219 947 -215 b 958 -279 979 -233 981 -272 l 976 -343 l 960 -343 l 946 -283 l 933 -283 l 933 -343 l 914 -343 m 933 -269 b 958 -256 947 -269 958 -269 b 933 -232 958 -233 947 -232 l 933 -269 m 933 -65 l 949 -65 l 949 -119 l 983 -119 l 983 -65 l 1000 -65 l 1000 -190 l 983 -190 l 983 -132 l 949 -132 l 949 -190 l 933 -190 m 986 458 l 1003 458 l 1028 329 l 1010 329 l 1003 363 l 976 363 l 974 329 l 957 329 m 1003 375 l 992 433 l 979 375 m 1013 868 b 1022 826 1013 851 1014 836 b 1064 825 1035 814 1053 813 b 1064 869 1076 832 1075 856 b 1038 899 1060 875 1051 888 b 992 942 1022 910 1003 926 b 1019 1031 972 974 979 1025 b 1076 1026 1035 1039 1063 1038 b 1100 974 1093 1015 1096 996 l 1074 967 b 1046 1014 1071 983 1065 1007 b 1013 993 1031 1014 1014 1007 b 1053 929 1008 964 1035 944 b 1103 865 1074 910 1096 894 b 1046 790 1111 826 1086 790 b 979 858 1003 790 981 822 m 992 -258 b 1031 -219 992 -235 1003 -215 b 1057 -261 1056 -222 1057 -244 l 1039 -261 b 1038 -239 1039 -257 1043 -247 b 1013 -236 1035 -228 1019 -228 b 1008 -279 1003 -247 1008 -269 b 1013 -325 1008 -290 1003 -314 b 1038 -321 1019 -333 1035 -332 b 1039 -300 1043 -314 1039 -306 l 1057 -300 b 1022 -344 1057 -319 1053 -344 b 992 -258 981 -344 992 -289 m 1079 296 l 1119 296 l 1047 -22 l 1011 -22 m 1017 -65 l 1064 -65 l 1064 -78 l 1035 -78 l 1035 -119 l 1061 -119 l 1061 -132 l 1035 -132 l 1035 -179 l 1064 -179 l 1064 -190 l 1017 -190 m 1053 371 b 1063 344 1053 361 1053 349 b 1083 360 1075 344 1083 349 b 1053 399 1083 375 1063 389 b 1046 451 1038 413 1028 436 b 1078 456 1056 458 1071 458 b 1096 425 1092 449 1096 436 l 1083 422 b 1053 436 1074 456 1057 449 b 1071 403 1050 422 1061 410 b 1096 371 1078 393 1096 388 b 1071 329 1104 350 1092 329 b 1035 365 1050 329 1038 347 m 1063 615 b 1065 718 1063 647 1060 685 b 1124 758 1075 747 1096 758 b 1186 726 1157 758 1179 750 b 1192 619 1203 694 1192 651 b 1190 563 1192 597 1197 582 b 1129 514 1186 529 1163 514 b 1064 564 1096 514 1071 531 b 1063 615 1063 582 1063 596 m 1075 -219 l 1092 -219 l 1092 -343 l 1075 -343 m 1096 592 b 1111 542 1096 574 1096 550 b 1142 542 1121 535 1135 535 b 1160 574 1157 549 1160 563 b 1160 597 1163 582 1160 592 l 1160 685 b 1151 726 1160 700 1163 715 b 1121 732 1142 732 1129 738 b 1096 711 1107 732 1103 726 b 1096 632 1093 686 1096 660 l 1096 592 m 1129 -219 l 1149 -219 l 1175 -343 l 1160 -343 l 1157 -312 l 1129 -312 l 1121 -343 l 1104 -343 m 1111 458 l 1160 458 l 1160 447 l 1129 447 l 1129 403 l 1157 403 l 1157 390 l 1129 390 l 1129 344 l 1163 344 l 1163 329 l 1111 329 m 1118 -65 l 1164 -65 l 1164 -78 l 1129 -78 l 1129 -119 l 1157 -119 l 1157 -132 l 1129 -132 l 1129 -190 l 1118 -190 m 1128 261 l 1225 261 l 1225 218 l 1171 218 l 1171 149 l 1218 149 l 1218 103 l 1171 103 l 1171 8 l 1128 8 m 1151 -303 l 1140 -244 l 1129 -303 m 1160 867 b 1179 818 1160 851 1160 829 b 1207 818 1186 814 1200 814 b 1226 851 1222 826 1225 840 l 1226 961 b 1215 1003 1226 974 1226 993 b 1186 1010 1206 1014 1197 1014 b 1163 986 1174 1008 1165 1003 b 1160 910 1157 967 1160 933 l 1160 867 m 1175 -160 b 1175 -132 1174 -150 1175 -139 l 1175 -65 l 1190 -65 l 1190 -119 b 1206 -179 1190 -136 1185 -179 b 1226 -119 1229 -179 1226 -136 l 1226 -65 l 1239 -65 l 1239 -121 b 1217 -190 1239 -143 1243 -179 b 1175 -160 1193 -196 1179 -183 m 1186 -219 l 1204 -219 l 1204 -332 l 1236 -332 l 1236 -343 l 1186 -343 m 1222 458 l 1239 365 l 1258 458 l 1275 458 l 1247 329 l 1232 329 l 1204 458 m 1272 261 l 1313 261 l 1356 8 l 1313 8 l 1306 68 l 1278 68 l 1268 8 l 1225 8 m 1229 758 l 1251 758 l 1321 596 l 1321 758 l 1353 758 l 1353 517 l 1326 517 l 1256 681 l 1256 517 l 1229 517 m 1258 -65 l 1278 -65 l 1278 -179 l 1303 -179 l 1303 -190 l 1258 -190 m 1292 -219 l 1313 -312 l 1332 -219 l 1346 -219 l 1319 -343 l 1303 -343 l 1278 -219 m 1297 104 l 1290 156 l 1283 104 m 1288 458 l 1303 458 l 1303 329 l 1288 329 m 1292 1036 l 1315 1036 l 1383 874 l 1383 1036 l 1411 1036 l 1411 793 l 1389 793 l 1321 956 l 1321 793 l 1292 793 m 1319 -65 l 1335 -65 l 1335 -179 l 1367 -179 l 1367 -190 l 1319 -190 m 1338 371 b 1353 344 1338 361 1343 349 b 1367 360 1358 344 1367 349 b 1338 399 1368 375 1353 389 b 1332 451 1325 413 1313 436 b 1365 456 1343 458 1357 458 b 1383 425 1376 449 1381 436 l 1367 422 b 1342 436 1360 456 1346 449 b 1357 403 1333 421 1347 413 b 1383 371 1365 394 1381 388 b 1354 329 1388 350 1376 329 b 1324 365 1332 329 1325 347 m 1358 -219 l 1410 -219 l 1410 -232 l 1378 -232 l 1378 -269 l 1403 -269 l 1403 -283 l 1378 -283 l 1378 -332 l 1410 -332 l 1410 -343 l 1358 -343 m 1375 261 l 1415 261 l 1444 103 l 1474 261 l 1518 261 l 1521 8 l 1482 8 l 1481 114 l 1460 8 l 1431 8 l 1410 111 l 1410 8 l 1371 8 m 1388 758 l 1418 758 l 1418 535 l 1481 535 l 1481 517 l 1388 517 m 1399 458 l 1415 458 l 1415 329 l 1399 329 m 1433 -65 l 1453 -65 l 1481 -190 l 1461 -190 l 1456 -158 l 1431 -158 l 1422 -190 l 1410 -190 m 1422 -219 b 1471 -222 1439 -219 1456 -215 b 1467 -282 1488 -233 1488 -275 l 1486 -343 l 1469 -343 l 1453 -283 l 1442 -283 l 1442 -343 l 1422 -343 m 1428 458 l 1486 458 l 1486 447 l 1465 447 l 1465 329 l 1451 329 l 1451 447 l 1428 447 m 1454 -147 l 1443 -89 l 1433 -147 m 1488 1036 l 1521 1036 l 1572 793 l 1540 793 l 1528 851 l 1481 851 l 1467 793 l 1438 793 m 1442 -269 b 1467 -256 1456 -269 1467 -269 b 1442 -232 1467 -233 1456 -232 l 1442 -269 m 1525 875 l 1507 986 l 1485 875 m 1492 -65 l 1503 -65 l 1539 -147 l 1539 -65 l 1553 -65 l 1553 -190 l 1540 -190 l 1508 -106 l 1508 -190 l 1492 -190 m 1521 758 l 1558 640 l 1596 758 l 1626 758 b 1596 657 1617 726 1607 690 l 1579 607 b 1574 575 1572 596 1574 585 l 1574 517 l 1542 517 l 1542 564 b 1542 604 1542 575 1543 592 b 1525 649 1539 619 1531 632 l 1492 758 m 1514 -306 b 1525 -329 1514 -312 1517 -325 b 1546 -315 1539 -333 1546 -326 b 1514 -279 1546 -303 1525 -287 b 1510 -226 1499 -265 1492 -236 b 1543 -222 1521 -217 1532 -215 b 1558 -250 1554 -226 1558 -236 l 1546 -257 b 1536 -232 1543 -247 1543 -235 b 1517 -239 1526 -228 1521 -232 b 1532 -269 1510 -256 1525 -261 b 1558 -306 1543 -279 1558 -289 b 1531 -344 1567 -325 1554 -344 b 1499 -308 1510 -344 1499 -329 m 1544 261 l 1589 261 l 1589 8 l 1544 8 m 1572 -65 b 1626 -75 1585 -65 1611 -61 b 1635 -128 1639 -86 1635 -110 b 1622 -181 1635 -147 1639 -172 b 1572 -190 1608 -193 1585 -190 m 1574 -219 l 1589 -219 l 1589 -343 l 1574 -343 m 1589 -179 b 1617 -160 1603 -179 1614 -179 l 1617 -96 b 1589 -78 1617 -78 1607 -78 l 1589 -179 m 1597 1036 l 1632 1036 l 1632 815 l 1693 815 l 1693 793 l 1597 793 m 1608 -279 b 1647 -219 1608 -247 1608 -215 b 1678 -279 1682 -222 1678 -257 b 1643 -344 1678 -308 1681 -344 b 1608 -279 1607 -344 1608 -306 m 1656 261 l 1696 261 l 1739 8 l 1696 8 l 1688 68 l 1661 68 l 1651 8 l 1608 8 m 1629 -269 b 1636 -329 1629 -283 1622 -322 b 1664 -287 1665 -343 1664 -303 b 1656 -233 1664 -272 1667 -239 b 1629 -256 1636 -226 1629 -239 l 1629 -269 m 1643 550 l 1678 550 l 1678 517 l 1643 517 m 1678 758 l 1667 568 l 1656 568 l 1643 758 m 1681 104 l 1674 156 l 1667 104 m 1697 -219 l 1710 -219 l 1744 -303 l 1744 -219 l 1757 -219 l 1757 -343 l 1744 -343 l 1710 -258 l 1710 -343 l 1697 -343 m 1756 261 l 1829 261 b 1875 196 1849 261 1875 243 b 1846 125 1875 172 1868 142 l 1874 8 l 1832 8 l 1810 118 l 1797 118 l 1797 8 l 1756 8 m 1819 154 b 1811 225 1835 161 1836 225 l 1797 225 l 1797 154 "},"\r":{"ha":833,"x_min":0,"x_max":0,"o":""}," ":{"ha":278,"x_min":0,"x_max":0,"o":""},"A":{"ha":967,"x_min":0,"x_max":0,"o":"m 307 958 l 660 958 l 953 0 l 633 0 l 601 150 l 365 150 l 333 0 l 14 0 m 551 386 l 483 703 l 415 386 "},"Á":{"ha":967,"x_min":0,"x_max":0,"o":"m 307 958 l 660 958 l 953 0 l 633 0 l 601 150 l 365 150 l 333 0 l 14 0 m 411 1222 l 682 1222 l 564 1000 l 342 1000 m 551 386 l 483 703 l 415 386 "},"Ă":{"ha":967,"x_min":0,"x_max":0,"o":"m 307 958 l 660 958 l 953 0 l 633 0 l 601 150 l 365 150 l 333 0 l 14 0 m 404 1193 b 485 1119 404 1143 431 1119 b 563 1193 538 1119 563 1143 l 715 1192 b 485 986 715 1060 635 986 b 251 1192 335 986 251 1061 m 551 386 l 483 703 l 415 386 "},"Ắ":{"ha":967,"x_min":0,"x_max":0,"o":"m 307 958 l 660 958 l 953 0 l 633 0 l 601 150 l 365 150 l 333 0 l 14 0 m 403 1193 b 483 1119 403 1143 429 1119 b 561 1193 536 1119 561 1143 l 714 1192 b 483 986 714 1060 633 986 b 250 1192 333 986 250 1061 m 421 1379 l 647 1379 l 549 1207 l 363 1207 m 551 386 l 483 703 l 415 386 "},"Ặ":{"ha":967,"x_min":0,"x_max":0,"o":"m 307 958 l 660 958 l 953 0 l 633 0 l 601 150 l 365 150 l 333 0 l 14 0 m 404 1193 b 485 1119 404 1143 431 1119 b 563 1193 538 1119 563 1143 l 715 1192 b 485 986 715 1060 635 986 b 251 1192 335 986 251 1061 m 343 -156 b 482 -43 343 -81 389 -43 b 618 -156 572 -43 618 -81 b 482 -265 618 -231 572 -265 b 343 -156 389 -265 343 -231 m 551 386 l 483 703 l 415 386 "},"Ằ":{"ha":967,"x_min":0,"x_max":0,"o":"m 307 958 l 660 958 l 953 0 l 633 0 l 601 150 l 365 150 l 333 0 l 14 0 m 403 1192 b 483 1118 403 1142 429 1118 b 561 1192 536 1118 561 1142 l 714 1190 b 483 985 714 1058 633 985 b 250 1190 333 985 250 1060 m 542 1389 l 610 1207 l 388 1207 l 271 1389 m 551 386 l 483 703 l 415 386 "},"Ẳ":{"ha":967,"x_min":0,"x_max":0,"o":"m 307 958 l 660 958 l 953 0 l 633 0 l 601 150 l 365 150 l 333 0 l 14 0 m 403 1193 b 483 1119 403 1143 429 1119 b 561 1193 536 1119 561 1143 l 714 1192 b 483 986 714 1060 633 986 b 250 1192 333 986 250 1061 m 408 1489 b 621 1361 550 1489 621 1428 b 425 1190 621 1294 556 1222 l 381 1221 b 422 1292 408 1258 422 1276 b 342 1351 422 1311 401 1326 m 551 386 l 483 703 l 415 386 "},"Ẵ":{"ha":967,"x_min":0,"x_max":0,"o":"m 307 958 l 660 958 l 953 0 l 633 0 l 601 150 l 365 150 l 333 0 l 14 0 m 225 1274 b 369 1401 243 1363 296 1401 b 607 1350 463 1401 542 1350 b 692 1389 636 1350 661 1363 l 739 1335 b 594 1208 732 1257 667 1208 b 357 1258 501 1208 422 1258 b 272 1221 325 1258 300 1244 l 225 1274 m 403 1193 b 483 1119 403 1143 429 1119 b 561 1193 536 1119 561 1143 l 714 1192 b 483 986 714 1060 633 986 b 250 1192 333 986 250 1061 m 551 386 l 483 703 l 415 386 "},"Ǎ":{"ha":967,"x_min":0,"x_max":0,"o":"m 307 958 l 660 958 l 953 0 l 633 0 l 601 150 l 365 150 l 333 0 l 14 0 m 433 1222 l 483 1088 l 533 1222 l 790 1222 l 643 1000 l 324 1000 l 176 1222 m 551 386 l 483 703 l 415 386 "},"Â":{"ha":967,"x_min":0,"x_max":0,"o":"m 307 958 l 660 958 l 953 0 l 633 0 l 601 150 l 365 150 l 333 0 l 14 0 m 324 1222 l 643 1222 l 790 1000 l 533 1000 l 483 1135 l 433 1000 l 176 1000 m 551 386 l 483 703 l 415 386 "},"Ấ":{"ha":967,"x_min":0,"x_max":0,"o":"m 307 958 l 660 958 l 953 0 l 633 0 l 601 150 l 365 150 l 333 0 l 14 0 m 324 1222 l 351 1222 l 411 1371 l 682 1371 l 581 1222 l 643 1222 l 790 1000 l 533 1000 l 483 1135 l 433 1000 l 176 1000 m 551 386 l 483 703 l 415 386 "},"Ậ":{"ha":967,"x_min":0,"x_max":0,"o":"m 307 958 l 660 958 l 953 0 l 633 0 l 601 150 l 365 150 l 333 0 l 14 0 m 324 1222 l 643 1222 l 790 1000 l 533 1000 l 483 1135 l 433 1000 l 176 1000 m 343 -156 b 482 -43 343 -81 389 -43 b 618 -156 572 -43 618 -81 b 482 -265 618 -231 572 -265 b 343 -156 389 -265 343 -231 m 551 386 l 483 703 l 415 386 "},"Ầ":{"ha":967,"x_min":0,"x_max":0,"o":"m 307 958 l 660 958 l 953 0 l 633 0 l 601 150 l 365 150 l 333 0 l 14 0 m 324 1222 l 374 1222 l 272 1376 l 543 1376 l 601 1222 l 643 1222 l 790 1000 l 533 1000 l 483 1135 l 433 1000 l 176 1000 m 551 386 l 483 703 l 415 386 "},"Ẩ":{"ha":967,"x_min":0,"x_max":0,"o":"m 307 958 l 660 958 l 953 0 l 633 0 l 601 150 l 365 150 l 333 0 l 14 0 m 324 1222 l 385 1222 b 424 1300 411 1263 424 1282 b 343 1368 424 1322 403 1340 l 410 1526 b 622 1379 551 1526 622 1457 b 518 1222 622 1324 588 1264 l 643 1222 l 790 1000 l 533 1000 l 483 1135 l 433 1000 l 176 1000 m 551 386 l 483 703 l 415 386 "},"Ẫ":{"ha":967,"x_min":0,"x_max":0,"o":"m 307 958 l 660 958 l 953 0 l 633 0 l 601 150 l 365 150 l 333 0 l 14 0 m 315 1222 l 496 1222 b 361 1268 446 1240 400 1268 b 285 1222 333 1268 310 1251 l 242 1288 b 372 1446 258 1399 306 1446 b 588 1382 457 1446 529 1382 b 665 1431 615 1382 638 1397 l 708 1363 b 635 1222 704 1296 674 1247 l 782 1000 l 525 1000 l 475 1135 l 425 1000 l 168 1000 m 551 386 l 483 703 l 415 386 "},"Ä":{"ha":967,"x_min":0,"x_max":0,"o":"m 307 958 l 660 958 l 953 0 l 633 0 l 601 150 l 365 150 l 333 0 l 14 0 m 188 1093 b 326 1206 188 1168 235 1206 b 463 1093 417 1206 463 1168 b 326 983 463 1018 417 983 b 188 1093 235 983 188 1018 m 551 386 l 483 703 l 415 386 m 504 1093 b 643 1206 504 1168 550 1206 b 779 1093 733 1206 779 1168 b 643 983 779 1018 733 983 b 504 1093 550 983 504 1018 "},"Ǟ":{"ha":967,"x_min":0,"x_max":0,"o":"m 307 958 l 660 958 l 953 0 l 633 0 l 601 150 l 365 150 l 333 0 l 14 0 m 188 1093 b 326 1206 188 1168 235 1206 b 463 1093 417 1206 463 1168 b 326 983 463 1018 417 983 b 188 1093 235 983 188 1018 m 251 1400 l 724 1400 l 724 1226 l 251 1226 m 551 386 l 483 703 l 415 386 m 504 1093 b 643 1206 504 1168 550 1206 b 779 1093 733 1206 779 1168 b 643 983 779 1018 733 983 b 504 1093 550 983 504 1018 "},"Ạ":{"ha":967,"x_min":0,"x_max":0,"o":"m 307 958 l 660 958 l 953 0 l 633 0 l 601 150 l 365 150 l 333 0 l 14 0 m 343 -156 b 482 -43 343 -81 389 -43 b 618 -156 572 -43 618 -81 b 482 -265 618 -231 572 -265 b 343 -156 389 -265 343 -231 m 551 386 l 483 703 l 415 386 "},"À":{"ha":967,"x_min":0,"x_max":0,"o":"m 307 958 l 660 958 l 953 0 l 633 0 l 601 150 l 365 150 l 333 0 l 14 0 m 543 1222 l 611 1000 l 389 1000 l 272 1222 m 551 386 l 483 703 l 415 386 "},"Ả":{"ha":967,"x_min":0,"x_max":0,"o":"m 307 958 l 660 958 l 953 0 l 633 0 l 601 150 l 365 150 l 333 0 l 14 0 m 410 1319 b 622 1172 551 1319 622 1250 b 426 976 622 1096 557 1013 l 382 1011 b 424 1093 410 1054 424 1075 b 343 1161 424 1115 403 1133 m 551 386 l 483 703 l 415 386 "},"Ɑ":{"ha":990,"x_min":0,"x_max":0,"o":"m 518 -17 b 56 479 208 -17 56 158 b 518 975 56 800 208 975 b 907 940 650 975 779 961 l 907 18 b 518 -17 779 -3 650 -17 m 350 479 b 531 206 350 294 399 206 b 621 217 554 206 590 208 l 621 742 b 531 753 590 750 554 753 b 350 479 399 753 350 664 "},"Ā":{"ha":967,"x_min":0,"x_max":0,"o":"m 307 958 l 660 958 l 953 0 l 633 0 l 601 150 l 365 150 l 333 0 l 14 0 m 251 1183 l 724 1183 l 724 1010 l 251 1010 m 551 386 l 483 703 l 415 386 "},"Ą":{"ha":967,"x_min":0,"x_max":0,"o":"m 307 958 l 660 958 l 953 0 l 861 0 b 828 -68 839 -33 828 -51 b 908 -136 828 -90 849 -108 l 842 -294 b 629 -147 700 -294 629 -225 b 718 0 629 -96 658 -42 l 633 0 l 601 150 l 365 150 l 333 0 l 14 0 m 551 386 l 483 703 l 415 386 "},"Å":{"ha":967,"x_min":0,"x_max":0,"o":"m 307 958 b 282 1056 290 985 282 1017 b 485 1238 282 1171 356 1238 b 685 1056 614 1238 685 1172 b 660 957 685 1017 676 983 l 953 0 l 633 0 l 601 150 l 365 150 l 333 0 l 14 0 m 414 1057 b 485 993 414 1014 438 993 b 553 1057 531 993 553 1014 b 485 1122 553 1100 529 1122 b 414 1057 439 1122 414 1100 m 551 386 l 483 703 l 415 386 "},"Ǻ":{"ha":967,"x_min":0,"x_max":0,"o":"m 307 958 b 282 1056 290 985 282 1017 b 485 1238 282 1171 356 1238 b 685 1056 614 1238 685 1172 b 660 957 685 1017 676 983 l 953 0 l 633 0 l 601 150 l 365 150 l 333 0 l 14 0 m 411 1501 l 682 1501 l 564 1279 l 342 1279 m 414 1057 b 485 993 414 1014 438 993 b 553 1057 531 993 553 1014 b 485 1122 553 1100 529 1122 b 414 1057 439 1122 414 1100 m 551 386 l 483 703 l 415 386 "},"Ã":{"ha":967,"x_min":0,"x_max":0,"o":"m 307 958 l 660 958 l 953 0 l 633 0 l 601 150 l 365 150 l 333 0 l 14 0 m 226 1081 b 371 1239 244 1192 297 1239 b 608 1175 464 1239 543 1175 b 693 1224 638 1175 663 1190 l 740 1156 b 596 999 733 1060 668 999 b 358 1061 503 999 424 1061 b 274 1015 326 1061 301 1044 l 226 1081 m 551 386 l 483 703 l 415 386 "},"Æ":{"ha":1272,"x_min":0,"x_max":0,"o":"m 457 958 l 1231 958 l 1231 722 l 836 722 l 836 611 l 1169 611 l 1169 375 l 836 375 l 836 236 l 1231 236 l 1231 0 l 550 0 l 550 150 l 344 150 l 278 0 l -28 0 m 550 386 l 550 686 l 428 386 "},"Ǽ":{"ha":1272,"x_min":0,"x_max":0,"o":"m 457 958 l 1231 958 l 1231 722 l 836 722 l 836 611 l 1169 611 l 1169 375 l 836 375 l 836 236 l 1231 236 l 1231 0 l 550 0 l 550 150 l 344 150 l 278 0 l -28 0 m 550 386 l 550 686 l 428 386 m 597 1222 l 868 1222 l 750 1000 l 528 1000 "},"Ǣ":{"ha":1272,"x_min":0,"x_max":0,"o":"m 457 958 l 1231 958 l 1231 722 l 836 722 l 836 611 l 1169 611 l 1169 375 l 836 375 l 836 236 l 1231 236 l 1231 0 l 550 0 l 550 150 l 344 150 l 278 0 l -28 0 m 550 386 l 550 686 l 428 386 m 438 1183 l 910 1183 l 910 1010 l 438 1010 "},"B":{"ha":929,"x_min":0,"x_max":0,"o":"m 508 -17 b 83 18 358 -17 256 -10 l 83 940 b 467 975 249 967 349 975 b 842 700 733 975 842 883 b 724 503 842 589 806 538 b 886 260 835 464 886 381 b 508 -17 886 76 776 -17 m 369 217 b 468 206 386 208 444 206 b 592 292 557 206 592 229 b 468 378 592 353 557 378 b 369 367 449 378 388 375 l 369 217 m 369 608 b 453 597 393 600 429 597 b 547 675 521 597 547 619 b 453 753 547 731 519 753 b 369 742 429 753 393 750 l 369 608 "},"Ḅ":{"ha":929,"x_min":0,"x_max":0,"o":"m 508 -17 b 83 18 358 -17 256 -10 l 83 940 b 467 975 249 967 349 975 b 842 700 733 975 842 883 b 724 503 842 589 806 538 b 886 260 835 464 886 381 b 508 -17 886 76 776 -17 m 325 -156 b 464 -43 325 -81 371 -43 b 600 -156 554 -43 600 -81 b 464 -265 600 -231 554 -265 b 325 -156 371 -265 325 -231 m 369 217 b 468 206 386 208 444 206 b 592 292 557 206 592 229 b 468 378 592 353 557 378 b 369 367 449 378 388 375 l 369 217 m 369 608 b 453 597 393 600 429 597 b 547 675 521 597 547 619 b 453 753 547 731 519 753 b 369 742 429 753 393 750 l 369 608 "},"C":{"ha":835,"x_min":0,"x_max":0,"o":"m 518 -17 b 57 479 213 -17 57 147 b 517 975 57 811 213 975 b 792 940 607 975 722 960 l 767 708 b 549 753 725 719 646 753 b 351 479 407 753 351 689 b 550 206 351 269 407 206 b 767 249 647 206 725 236 l 792 18 b 518 -17 722 -1 613 -17 "},"Ć":{"ha":835,"x_min":0,"x_max":0,"o":"m 518 -17 b 57 479 213 -17 57 147 b 517 975 57 811 213 975 b 792 940 607 975 722 960 l 767 708 b 549 753 725 719 646 753 b 351 479 407 753 351 689 b 550 206 351 269 407 206 b 767 249 647 206 725 236 l 792 18 b 518 -17 722 -1 613 -17 m 406 1222 l 676 1222 l 558 1000 l 336 1000 "},"Č":{"ha":835,"x_min":0,"x_max":0,"o":"m 518 -17 b 57 479 213 -17 57 147 b 517 975 57 811 213 975 b 792 940 607 975 722 960 l 767 708 b 549 753 725 719 646 753 b 351 479 407 753 351 689 b 550 206 351 269 407 206 b 767 249 647 206 725 236 l 792 18 b 518 -17 722 -1 613 -17 m 428 1222 l 478 1088 l 528 1222 l 785 1222 l 638 1000 l 318 1000 l 171 1222 "},"Ç":{"ha":832,"x_min":0,"x_max":0,"o":"m 332 -150 b 438 -44 397 -121 438 -97 b 433 -12 438 -35 436 -24 b 56 479 183 15 56 178 b 515 975 56 813 211 975 b 790 940 608 975 721 960 l 765 708 b 547 753 722 719 644 753 b 350 479 406 753 350 690 b 547 206 350 268 406 206 b 765 249 644 206 722 236 l 790 18 b 563 -15 732 1 643 -11 b 625 -143 603 -51 625 -99 b 400 -308 625 -228 551 -308 l 332 -150 "},"Ĉ":{"ha":835,"x_min":0,"x_max":0,"o":"m 518 -17 b 57 479 213 -17 57 147 b 517 975 57 811 213 975 b 792 940 607 975 722 960 l 767 708 b 549 753 725 719 646 753 b 351 479 407 753 351 689 b 550 206 351 269 407 206 b 767 249 647 206 725 236 l 792 18 b 518 -17 722 -1 613 -17 m 318 1222 l 638 1222 l 785 1000 l 528 1000 l 478 1135 l 428 1000 l 171 1000 "},"Ċ":{"ha":835,"x_min":0,"x_max":0,"o":"m 518 -17 b 57 479 213 -17 57 147 b 517 975 57 811 213 975 b 792 940 607 975 722 960 l 767 708 b 549 753 725 719 646 753 b 351 479 407 753 351 689 b 550 206 351 269 407 206 b 767 249 647 206 725 236 l 792 18 b 518 -17 722 -1 613 -17 m 342 1086 b 481 1199 342 1161 388 1199 b 617 1086 571 1199 617 1161 b 481 976 617 1011 571 976 b 342 1086 388 976 342 1011 "},"D":{"ha":990,"x_min":0,"x_max":0,"o":"m 472 -17 b 83 18 340 -17 211 -3 l 83 940 b 472 975 211 961 340 975 b 935 479 782 975 935 800 b 472 -17 935 158 782 -17 m 369 217 b 460 206 400 208 436 206 b 640 479 592 206 640 294 b 460 753 640 664 592 753 b 369 742 436 753 400 750 l 369 217 "},"Ð":{"ha":1046,"x_min":0,"x_max":0,"o":"m 526 -17 b 139 18 396 -17 265 -3 l 139 382 l 56 382 l 56 576 l 139 576 l 139 940 b 526 975 267 961 396 975 b 990 479 838 975 990 800 b 526 -17 990 158 838 -17 m 425 217 b 515 206 456 208 492 206 b 696 479 647 206 696 294 b 515 753 696 664 647 753 b 425 742 492 753 456 750 l 425 576 l 569 576 l 569 382 l 425 382 l 425 217 "},"Ď":{"ha":990,"x_min":0,"x_max":0,"o":"m 472 -17 b 83 18 340 -17 211 -3 l 83 940 b 472 975 211 961 340 975 b 935 479 782 975 935 800 b 472 -17 935 158 782 -17 m 446 1222 l 496 1088 l 546 1222 l 803 1222 l 656 1000 l 336 1000 l 189 1222 m 369 217 b 460 206 400 208 436 206 b 640 479 592 206 640 294 b 460 753 640 664 592 753 b 369 742 436 753 400 750 l 369 217 "},"Ḓ":{"ha":990,"x_min":0,"x_max":0,"o":"m 472 -17 b 83 18 340 -17 211 -3 l 83 940 b 472 975 211 961 340 975 b 935 479 782 975 935 800 b 472 -17 935 158 782 -17 m 336 -28 l 656 -28 l 803 -250 l 546 -250 l 496 -115 l 446 -250 l 189 -250 m 369 217 b 460 206 400 208 436 206 b 640 479 592 206 640 294 b 460 753 640 664 592 753 b 369 742 436 753 400 750 l 369 217 "},"Đ":{"ha":1046,"x_min":0,"x_max":0,"o":"m 526 -17 b 139 18 396 -17 265 -3 l 139 382 l 56 382 l 56 576 l 139 576 l 139 940 b 528 975 267 961 396 975 b 990 479 838 975 990 800 b 526 -17 990 158 838 -17 m 425 217 b 515 206 456 208 492 206 b 696 479 647 206 696 294 b 515 753 696 664 647 753 b 425 742 492 753 456 750 l 425 576 l 569 576 l 569 382 l 425 382 l 425 217 "},"Ḍ":{"ha":990,"x_min":0,"x_max":0,"o":"m 472 -17 b 83 18 340 -17 211 -3 l 83 940 b 472 975 211 961 340 975 b 935 479 782 975 935 800 b 472 -17 935 158 782 -17 m 356 -156 b 494 -43 356 -81 401 -43 b 631 -156 585 -43 631 -81 b 494 -265 631 -231 585 -265 b 356 -156 401 -265 356 -231 m 369 217 b 460 206 400 208 436 206 b 640 479 592 206 640 294 b 460 753 640 664 592 753 b 369 742 436 753 400 750 l 369 217 "},"Ḏ":{"ha":990,"x_min":0,"x_max":0,"o":"m 472 -17 b 83 18 340 -17 211 -3 l 83 940 b 472 975 211 961 340 975 b 935 479 782 975 935 800 b 472 -17 935 158 782 -17 m 260 -56 l 732 -56 l 732 -250 l 260 -250 m 369 217 b 460 206 400 208 436 206 b 640 479 592 206 640 294 b 460 753 640 664 592 753 b 369 742 436 753 400 750 l 369 217 "},"Ɖ":{"ha":1046,"x_min":0,"x_max":0,"o":"m 526 -17 b 139 18 396 -17 265 -3 l 139 382 l 56 382 l 56 576 l 139 576 l 139 940 b 528 975 267 961 396 975 b 990 479 838 975 990 800 b 526 -17 990 158 838 -17 m 425 217 b 515 206 456 208 492 206 b 696 479 647 206 696 294 b 515 753 696 664 647 753 b 425 742 492 753 456 750 l 425 576 l 569 576 l 569 382 l 425 382 l 425 217 "},"E":{"ha":806,"x_min":0,"x_max":0,"o":"m 83 958 l 764 958 l 764 722 l 369 722 l 369 611 l 703 611 l 703 375 l 369 375 l 369 236 l 764 236 l 764 0 l 83 0 "},"É":{"ha":806,"x_min":0,"x_max":0,"o":"m 83 958 l 764 958 l 764 722 l 369 722 l 369 611 l 703 611 l 703 375 l 369 375 l 369 236 l 764 236 l 764 0 l 83 0 m 331 1222 l 601 1222 l 483 1000 l 261 1000 "},"Ě":{"ha":806,"x_min":0,"x_max":0,"o":"m 83 958 l 764 958 l 764 722 l 369 722 l 369 611 l 703 611 l 703 375 l 369 375 l 369 236 l 764 236 l 764 0 l 83 0 m 353 1222 l 403 1088 l 453 1222 l 710 1222 l 563 1000 l 243 1000 l 96 1222 "},"Ȩ":{"ha":806,"x_min":0,"x_max":0,"o":"m 83 958 l 764 958 l 764 722 l 369 722 l 369 611 l 703 611 l 703 375 l 369 375 l 369 236 l 764 236 l 764 0 l 497 0 b 563 -129 540 -36 563 -83 b 338 -294 563 -214 489 -294 l 271 -136 b 376 -31 335 -107 376 -83 b 372 0 376 -22 375 -11 l 83 0 "},"Ê":{"ha":806,"x_min":0,"x_max":0,"o":"m 83 958 l 764 958 l 764 722 l 369 722 l 369 611 l 703 611 l 703 375 l 369 375 l 369 236 l 764 236 l 764 0 l 83 0 m 243 1222 l 563 1222 l 710 1000 l 453 1000 l 403 1135 l 353 1000 l 96 1000 "},"Ế":{"ha":806,"x_min":0,"x_max":0,"o":"m 83 958 l 764 958 l 764 722 l 369 722 l 369 611 l 703 611 l 703 375 l 369 375 l 369 236 l 764 236 l 764 0 l 83 0 m 243 1222 l 271 1222 l 331 1371 l 601 1371 l 500 1222 l 563 1222 l 710 1000 l 453 1000 l 403 1135 l 353 1000 l 96 1000 "},"Ệ":{"ha":806,"x_min":0,"x_max":0,"o":"m 83 958 l 764 958 l 764 722 l 369 722 l 369 611 l 703 611 l 703 375 l 369 375 l 369 236 l 764 236 l 764 0 l 83 0 m 243 1222 l 563 1222 l 710 1000 l 453 1000 l 403 1135 l 353 1000 l 96 1000 m 276 -142 b 415 -29 276 -67 322 -29 b 551 -142 506 -29 551 -67 b 415 -251 551 -217 506 -251 b 276 -142 322 -251 276 -217 "},"Ề":{"ha":806,"x_min":0,"x_max":0,"o":"m 83 958 l 764 958 l 764 722 l 369 722 l 369 611 l 703 611 l 703 375 l 369 375 l 369 236 l 764 236 l 764 0 l 83 0 m 243 1222 l 293 1222 l 192 1376 l 463 1376 l 521 1222 l 563 1222 l 710 1000 l 453 1000 l 403 1135 l 353 1000 l 96 1000 "},"Ể":{"ha":806,"x_min":0,"x_max":0,"o":"m 83 958 l 764 958 l 764 722 l 369 722 l 369 611 l 703 611 l 703 375 l 369 375 l 369 236 l 764 236 l 764 0 l 83 0 m 243 1222 l 304 1222 b 343 1300 331 1263 343 1282 b 263 1368 343 1322 322 1340 l 329 1526 b 542 1379 471 1526 542 1457 b 438 1222 542 1324 507 1264 l 563 1222 l 710 1000 l 453 1000 l 403 1135 l 353 1000 l 96 1000 "},"Ễ":{"ha":806,"x_min":0,"x_max":0,"o":"m 83 958 l 764 958 l 764 722 l 369 722 l 369 611 l 703 611 l 703 375 l 369 375 l 369 236 l 764 236 l 764 0 l 83 0 m 235 1222 l 415 1222 b 281 1268 365 1240 319 1268 b 204 1222 253 1268 229 1251 l 161 1288 b 292 1446 178 1399 225 1446 b 507 1382 376 1446 449 1382 b 585 1431 535 1382 557 1397 l 628 1363 b 554 1222 624 1296 593 1247 l 701 1000 l 444 1000 l 394 1135 l 344 1000 l 88 1000 "},"Ë":{"ha":806,"x_min":0,"x_max":0,"o":"m 83 958 l 764 958 l 764 722 l 369 722 l 369 611 l 703 611 l 703 375 l 369 375 l 369 236 l 764 236 l 764 0 l 83 0 m 107 1093 b 246 1206 107 1168 154 1206 b 382 1093 336 1206 382 1168 b 246 983 382 1018 336 983 b 107 1093 154 983 107 1018 m 424 1093 b 563 1206 424 1168 469 1206 b 699 1093 653 1206 699 1168 b 563 983 699 1018 653 983 b 424 1093 469 983 424 1018 "},"Ė":{"ha":806,"x_min":0,"x_max":0,"o":"m 83 958 l 764 958 l 764 722 l 369 722 l 369 611 l 703 611 l 703 375 l 369 375 l 369 236 l 764 236 l 764 0 l 83 0 m 267 1086 b 406 1199 267 1161 313 1199 b 542 1086 496 1199 542 1161 b 406 976 542 1011 496 976 b 267 1086 313 976 267 1011 "},"Ẹ":{"ha":806,"x_min":0,"x_max":0,"o":"m 83 958 l 764 958 l 764 722 l 369 722 l 369 611 l 703 611 l 703 375 l 369 375 l 369 236 l 764 236 l 764 0 l 83 0 m 276 -142 b 415 -29 276 -67 322 -29 b 551 -142 506 -29 551 -67 b 415 -251 551 -217 506 -251 b 276 -142 322 -251 276 -217 "},"È":{"ha":806,"x_min":0,"x_max":0,"o":"m 83 958 l 764 958 l 764 722 l 369 722 l 369 611 l 703 611 l 703 375 l 369 375 l 369 236 l 764 236 l 764 0 l 83 0 m 463 1222 l 531 1000 l 308 1000 l 192 1222 "},"Ẻ":{"ha":806,"x_min":0,"x_max":0,"o":"m 83 958 l 764 958 l 764 722 l 369 722 l 369 611 l 703 611 l 703 375 l 369 375 l 369 236 l 764 236 l 764 0 l 83 0 m 329 1319 b 542 1172 471 1319 542 1250 b 346 976 542 1096 476 1013 l 301 1011 b 343 1093 329 1054 343 1075 b 263 1161 343 1115 322 1133 "},"Ē":{"ha":806,"x_min":0,"x_max":0,"o":"m 83 958 l 764 958 l 764 722 l 369 722 l 369 611 l 703 611 l 703 375 l 369 375 l 369 236 l 764 236 l 764 0 l 83 0 m 171 1183 l 643 1183 l 643 1010 l 171 1010 "},"Ę":{"ha":806,"x_min":0,"x_max":0,"o":"m 83 958 l 764 958 l 764 722 l 369 722 l 369 611 l 703 611 l 703 375 l 369 375 l 369 236 l 764 236 l 764 0 l 615 0 b 582 -68 593 -33 582 -51 b 663 -136 582 -90 603 -108 l 596 -294 b 383 -147 454 -294 383 -225 b 472 0 383 -96 413 -42 l 83 0 "},"Ɛ":{"ha":811,"x_min":0,"x_max":0,"o":"m 436 -17 b 42 275 178 -17 42 68 b 203 503 42 399 93 481 b 78 714 117 532 78 607 b 443 975 78 881 190 975 b 717 940 540 975 633 961 l 690 708 b 476 753 654 719 563 753 b 371 675 406 753 371 731 b 481 597 371 619 411 597 l 550 597 l 550 378 l 481 378 b 336 296 390 378 336 357 b 461 206 336 233 369 206 b 744 285 600 206 706 268 l 769 53 b 436 -17 700 28 599 -17 "},"Ǝ":{"ha":806,"x_min":0,"x_max":0,"o":"m 42 0 l 42 236 l 436 236 l 436 375 l 103 375 l 103 611 l 436 611 l 436 722 l 42 722 l 42 958 l 722 958 l 722 0 "},"Ʃ":{"ha":833,"x_min":0,"x_max":0,"o":"m 57 169 l 314 479 l 57 789 l 57 958 l 751 958 l 751 767 l 399 767 l 618 479 l 399 192 l 751 192 l 751 0 l 57 0 "},"Ẽ":{"ha":806,"x_min":0,"x_max":0,"o":"m 83 958 l 764 958 l 764 722 l 369 722 l 369 611 l 703 611 l 703 375 l 369 375 l 369 236 l 764 236 l 764 0 l 83 0 m 146 1081 b 290 1239 164 1192 217 1239 b 528 1175 383 1239 463 1175 b 613 1224 557 1175 582 1190 l 660 1156 b 515 999 653 1060 588 999 b 278 1061 422 999 343 1061 b 193 1015 246 1061 221 1044 l 146 1081 "},"Ʒ":{"ha":811,"x_min":0,"x_max":0,"o":"m 375 -17 b 42 53 213 -17 111 28 l 67 285 b 350 206 106 268 211 206 b 475 296 442 206 475 233 b 331 378 475 357 421 378 l 206 378 l 206 583 l 331 583 l 346 583 l 438 722 l 56 722 l 56 958 l 743 958 l 743 750 l 610 547 b 769 303 726 506 769 425 b 375 -17 769 96 633 -17 "},"Ǯ":{"ha":811,"x_min":0,"x_max":0,"o":"m 375 -17 b 42 53 213 -17 111 28 l 67 285 b 350 206 106 268 211 206 b 475 296 442 206 475 233 b 331 378 475 357 421 378 l 206 378 l 206 583 l 331 583 l 346 583 l 438 722 l 56 722 l 56 958 l 743 958 l 743 750 l 610 547 b 769 303 726 506 769 425 b 375 -17 769 96 633 -17 m 349 1222 l 399 1088 l 449 1222 l 706 1222 l 558 1000 l 239 1000 l 92 1222 "},"F":{"ha":783,"x_min":0,"x_max":0,"o":"m 83 958 l 742 958 l 742 722 l 369 722 l 369 583 l 686 583 l 686 347 l 369 347 l 369 0 l 83 0 "},"G":{"ha":917,"x_min":0,"x_max":0,"o":"m 515 -17 b 56 479 211 -17 56 146 b 533 975 56 810 215 975 b 804 940 629 975 733 960 l 779 708 b 558 753 736 719 651 753 b 350 464 415 753 350 674 b 506 206 350 289 394 206 b 547 211 525 206 536 208 l 547 317 l 489 314 l 489 550 l 833 564 l 833 36 b 515 -17 736 3 625 -17 "},"Ğ":{"ha":917,"x_min":0,"x_max":0,"o":"m 515 -17 b 56 479 211 -17 56 146 b 533 975 56 810 215 975 b 804 940 629 975 733 960 l 779 708 b 558 753 736 719 651 753 b 350 464 415 753 350 674 b 506 206 350 289 394 206 b 547 211 525 206 536 208 l 547 317 l 489 314 l 489 550 l 833 564 l 833 36 b 515 -17 736 3 625 -17 m 435 1193 b 515 1119 435 1143 461 1119 b 593 1193 568 1119 593 1143 l 746 1192 b 515 986 746 1060 665 986 b 282 1192 365 986 282 1061 "},"Ǧ":{"ha":917,"x_min":0,"x_max":0,"o":"m 515 -17 b 56 479 211 -17 56 146 b 533 975 56 810 215 975 b 804 940 629 975 733 960 l 779 708 b 558 753 736 719 651 753 b 350 464 415 753 350 674 b 506 206 350 289 394 206 b 547 211 525 206 536 208 l 547 317 l 489 314 l 489 550 l 833 564 l 833 36 b 515 -17 736 3 625 -17 m 464 1222 l 514 1088 l 564 1222 l 821 1222 l 674 1000 l 354 1000 l 207 1222 "},"Ĝ":{"ha":917,"x_min":0,"x_max":0,"o":"m 515 -17 b 56 479 211 -17 56 146 b 533 975 56 810 215 975 b 804 940 629 975 733 960 l 779 708 b 558 753 736 719 651 753 b 350 464 415 753 350 674 b 506 206 350 289 394 206 b 547 211 525 206 536 208 l 547 317 l 489 314 l 489 550 l 833 564 l 833 36 b 515 -17 736 3 625 -17 m 354 1222 l 674 1222 l 821 1000 l 564 1000 l 514 1135 l 464 1000 l 207 1000 "},"Ģ":{"ha":917,"x_min":0,"x_max":0,"o":"m 515 -17 b 56 479 211 -17 56 146 b 533 975 56 810 215 975 b 804 940 629 975 733 960 l 779 708 b 558 753 736 719 651 753 b 350 464 415 753 350 674 b 506 206 350 289 394 206 b 547 211 525 206 536 208 l 547 317 l 489 314 l 489 550 l 833 564 l 833 36 b 515 -17 736 3 625 -17 m 393 -143 b 525 -47 393 -82 440 -47 b 667 -167 618 -47 667 -89 b 410 -351 667 -271 579 -342 l 401 -275 b 492 -229 453 -267 482 -253 b 393 -143 422 -225 393 -190 "},"Ġ":{"ha":917,"x_min":0,"x_max":0,"o":"m 515 -17 b 56 479 211 -17 56 146 b 533 975 56 810 215 975 b 804 940 629 975 733 960 l 779 708 b 558 753 736 719 651 753 b 350 464 415 753 350 674 b 506 206 350 289 394 206 b 547 211 525 206 536 208 l 547 317 l 489 314 l 489 550 l 833 564 l 833 36 b 515 -17 736 3 625 -17 m 378 1086 b 517 1199 378 1161 424 1199 b 653 1086 607 1199 653 1161 b 517 976 653 1011 607 976 b 378 1086 424 976 378 1011 "},"Ḡ":{"ha":917,"x_min":0,"x_max":0,"o":"m 515 -17 b 56 479 211 -17 56 146 b 533 975 56 810 215 975 b 804 940 629 975 733 960 l 779 708 b 558 753 736 719 651 753 b 350 464 415 753 350 674 b 506 206 350 289 394 206 b 547 211 525 206 536 208 l 547 317 l 489 314 l 489 550 l 833 564 l 833 36 b 515 -17 736 3 625 -17 m 282 1183 l 754 1183 l 754 1010 l 282 1010 "},"Ǥ":{"ha":917,"x_min":0,"x_max":0,"o":"m 515 -17 b 56 479 211 -17 56 146 b 533 975 56 810 215 975 b 804 940 629 975 733 960 l 779 708 b 558 753 736 719 651 753 b 350 464 415 753 350 674 b 506 206 350 289 394 206 b 547 211 525 206 536 208 l 547 297 l 489 297 l 489 550 l 833 564 l 833 476 l 924 476 l 924 297 l 833 297 l 833 36 b 515 -17 736 3 625 -17 "},"H":{"ha":1003,"x_min":0,"x_max":0,"o":"m 83 958 l 369 958 l 369 611 l 633 611 l 633 958 l 919 958 l 919 0 l 633 0 l 633 375 l 369 375 l 369 0 l 83 0 "},"Ħ":{"ha":1031,"x_min":0,"x_max":0,"o":"m 97 694 l 14 694 l 14 889 l 97 889 l 97 958 l 383 958 l 383 889 l 647 889 l 647 958 l 933 958 l 933 889 l 1017 889 l 1017 694 l 933 694 l 933 0 l 647 0 l 647 375 l 383 375 l 383 0 l 97 0 m 647 611 l 647 694 l 383 694 l 383 611 "},"Ḫ":{"ha":1003,"x_min":0,"x_max":0,"o":"m 83 958 l 369 958 l 369 611 l 633 611 l 633 958 l 919 958 l 919 0 l 633 0 l 633 375 l 369 375 l 369 0 l 83 0 m 422 -53 b 503 -126 422 -103 449 -126 b 581 -53 556 -126 581 -103 l 733 -54 b 503 -260 733 -186 653 -260 b 269 -54 353 -260 269 -185 "},"Ĥ":{"ha":1003,"x_min":0,"x_max":0,"o":"m 83 958 l 369 958 l 369 611 l 633 611 l 633 958 l 919 958 l 919 0 l 633 0 l 633 375 l 369 375 l 369 0 l 83 0 m 342 1222 l 661 1222 l 808 1000 l 551 1000 l 501 1135 l 451 1000 l 194 1000 "},"Ḥ":{"ha":1003,"x_min":0,"x_max":0,"o":"m 83 958 l 369 958 l 369 611 l 633 611 l 633 958 l 919 958 l 919 0 l 633 0 l 633 375 l 369 375 l 369 0 l 83 0 m 361 -156 b 500 -43 361 -81 407 -43 b 636 -156 590 -43 636 -81 b 500 -265 636 -231 590 -265 b 361 -156 407 -265 361 -231 "},"I":{"ha":453,"x_min":0,"x_max":0,"o":"m 83 958 l 369 958 l 369 0 l 83 0 "},"Ĳ":{"ha":1139,"x_min":0,"x_max":0,"o":"m 83 958 l 369 958 l 369 0 l 83 0 m 493 249 b 683 206 526 238 615 206 b 769 319 747 206 769 235 l 769 958 l 1056 958 l 1056 319 b 722 -17 1056 88 953 -17 b 468 18 621 -17 542 3 "},"Í":{"ha":453,"x_min":0,"x_max":0,"o":"m 83 958 l 369 958 l 369 0 l 83 0 m 154 1222 l 425 1222 l 307 1000 l 85 1000 "},"Ǐ":{"ha":453,"x_min":0,"x_max":0,"o":"m 83 958 l 369 958 l 369 0 l 83 0 m 176 1222 l 226 1088 l 276 1222 l 533 1222 l 386 1000 l 67 1000 l -81 1222 "},"Î":{"ha":453,"x_min":0,"x_max":0,"o":"m 83 958 l 369 958 l 369 0 l 83 0 m 67 1222 l 386 1222 l 533 1000 l 276 1000 l 226 1135 l 176 1000 l -81 1000 "},"Ï":{"ha":453,"x_min":0,"x_max":0,"o":"m 83 958 l 369 958 l 369 0 l 83 0 m -69 1093 b 69 1206 -69 1168 -22 1206 b 206 1093 160 1206 206 1168 b 69 983 206 1018 160 983 b -69 1093 -22 983 -69 1018 m 247 1093 b 386 1206 247 1168 293 1206 b 522 1093 476 1206 522 1168 b 386 983 522 1018 476 983 b 247 1093 293 983 247 1018 "},"Ḯ":{"ha":453,"x_min":0,"x_max":0,"o":"m 83 958 l 369 958 l 369 0 l 83 0 m -69 1093 b 69 1206 -69 1168 -22 1206 b 206 1093 160 1206 206 1168 b 69 983 206 1018 160 983 b -69 1093 -22 983 -69 1018 m 154 1439 l 425 1439 l 307 1217 l 85 1217 m 247 1093 b 386 1206 247 1168 293 1206 b 522 1093 476 1206 522 1168 b 386 983 522 1018 476 983 b 247 1093 293 983 247 1018 "},"İ":{"ha":453,"x_min":0,"x_max":0,"o":"m 83 958 l 369 958 l 369 0 l 83 0 m 90 1086 b 229 1199 90 1161 136 1199 b 365 1086 319 1199 365 1161 b 229 976 365 1011 319 976 b 90 1086 136 976 90 1011 "},"Ị":{"ha":453,"x_min":0,"x_max":0,"o":"m 83 958 l 369 958 l 369 0 l 83 0 m 86 -156 b 225 -43 86 -81 132 -43 b 361 -156 315 -43 361 -81 b 225 -265 361 -231 315 -265 b 86 -156 132 -265 86 -231 "},"Ì":{"ha":453,"x_min":0,"x_max":0,"o":"m 83 958 l 369 958 l 369 0 l 83 0 m 286 1222 l 354 1000 l 132 1000 l 15 1222 "},"Ỉ":{"ha":453,"x_min":0,"x_max":0,"o":"m 83 958 l 369 958 l 369 0 l 83 0 m 153 1319 b 365 1172 294 1319 365 1250 b 169 976 365 1096 300 1013 l 125 1011 b 167 1093 153 1054 167 1075 b 86 1161 167 1115 146 1133 "},"Ī":{"ha":453,"x_min":0,"x_max":0,"o":"m 83 958 l 369 958 l 369 0 l 83 0 m -6 1183 l 467 1183 l 467 1010 l -6 1010 "},"Į":{"ha":453,"x_min":0,"x_max":0,"o":"m 83 958 l 369 958 l 369 0 l 308 0 b 275 -68 286 -33 275 -51 b 356 -136 275 -90 296 -108 l 289 -294 b 76 -147 147 -294 76 -225 b 165 0 76 -96 106 -42 l 83 0 "},"Ĩ":{"ha":453,"x_min":0,"x_max":0,"o":"m 83 958 l 369 958 l 369 0 l 83 0 m -31 1081 b 114 1239 -12 1192 40 1239 b 351 1175 207 1239 286 1175 b 436 1224 381 1175 406 1190 l 483 1156 b 339 999 476 1060 411 999 b 101 1061 246 999 167 1061 b 17 1015 69 1061 44 1044 l -31 1081 "},"J":{"ha":686,"x_min":0,"x_max":0,"o":"m 269 -17 b 15 18 168 -17 89 3 l 40 249 b 231 206 74 238 163 206 b 317 319 294 206 317 235 l 317 958 l 603 958 l 603 319 b 269 -17 603 88 500 -17 "},"Ĵ":{"ha":686,"x_min":0,"x_max":0,"o":"m 269 -17 b 15 18 168 -17 89 3 l 40 249 b 231 206 74 238 163 206 b 317 319 294 206 317 235 l 317 958 l 603 958 l 603 319 b 269 -17 603 88 500 -17 m 296 1222 l 615 1222 l 763 1000 l 506 1000 l 456 1135 l 406 1000 l 149 1000 "},"K":{"ha":938,"x_min":0,"x_max":0,"o":"m 83 958 l 369 958 l 369 611 l 419 611 l 576 958 l 910 958 l 653 499 l 924 0 l 582 0 l 422 375 l 369 375 l 369 0 l 83 0 "},"Ǩ":{"ha":938,"x_min":0,"x_max":0,"o":"m 83 958 l 369 958 l 369 611 l 419 611 l 576 958 l 910 958 l 653 499 l 924 0 l 582 0 l 422 375 l 369 375 l 369 0 l 83 0 m 419 1222 l 469 1088 l 519 1222 l 776 1222 l 629 1000 l 310 1000 l 163 1222 "},"Ķ":{"ha":938,"x_min":0,"x_max":0,"o":"m 83 958 l 369 958 l 369 611 l 419 611 l 576 958 l 910 958 l 653 499 l 924 0 l 582 0 l 422 375 l 369 375 l 369 0 l 83 0 m 335 -115 b 467 -19 335 -54 382 -19 b 608 -139 560 -19 608 -61 b 351 -324 608 -243 521 -314 l 343 -247 b 433 -201 394 -239 424 -225 b 335 -115 364 -197 335 -162 "},"Ḵ":{"ha":938,"x_min":0,"x_max":0,"o":"m 83 958 l 369 958 l 369 611 l 419 611 l 576 958 l 910 958 l 653 499 l 924 0 l 582 0 l 422 375 l 369 375 l 369 0 l 83 0 m 233 -56 l 706 -56 l 706 -250 l 233 -250 "},"L":{"ha":764,"x_min":0,"x_max":0,"o":"m 83 958 l 369 958 l 369 236 l 722 236 l 722 0 l 83 0 "},"Ĺ":{"ha":764,"x_min":0,"x_max":0,"o":"m 83 958 l 369 958 l 369 236 l 722 236 l 722 0 l 83 0 m 310 1222 l 581 1222 l 463 1000 l 240 1000 "},"Ľ":{"ha":764,"x_min":0,"x_max":0,"o":"m 83 958 l 369 958 l 369 236 l 722 236 l 722 0 l 83 0 m 488 821 b 646 960 488 910 544 960 b 815 786 757 960 815 900 b 508 517 815 635 710 531 l 499 628 b 606 694 560 640 594 661 b 488 821 524 700 488 751 "},"Ḽ":{"ha":764,"x_min":0,"x_max":0,"o":"m 83 958 l 369 958 l 369 236 l 722 236 l 722 0 l 83 0 m 222 -28 l 542 -28 l 689 -250 l 432 -250 l 382 -115 l 332 -250 l 75 -250 "},"Ļ":{"ha":764,"x_min":0,"x_max":0,"o":"m 83 958 l 369 958 l 369 236 l 722 236 l 722 0 l 83 0 m 247 -115 b 379 -19 247 -54 294 -19 b 521 -139 472 -19 521 -61 b 264 -324 521 -243 433 -314 l 256 -247 b 346 -201 307 -239 336 -225 b 247 -115 276 -197 247 -162 "},"Ḷ":{"ha":764,"x_min":0,"x_max":0,"o":"m 83 958 l 369 958 l 369 236 l 722 236 l 722 0 l 83 0 m 242 -156 b 381 -43 242 -81 288 -43 b 517 -156 471 -43 517 -81 b 381 -265 517 -231 471 -265 b 242 -156 288 -265 242 -231 "},"Ḹ":{"ha":764,"x_min":0,"x_max":0,"o":"m 83 958 l 369 958 l 369 236 l 722 236 l 722 0 l 83 0 m 150 1183 l 622 1183 l 622 1010 l 150 1010 m 242 -156 b 381 -43 242 -81 288 -43 b 517 -156 471 -43 517 -81 b 381 -265 517 -231 471 -265 b 242 -156 288 -265 242 -231 "},"Ḻ":{"ha":764,"x_min":0,"x_max":0,"o":"m 83 958 l 369 958 l 369 236 l 722 236 l 722 0 l 83 0 m 146 -56 l 618 -56 l 618 -250 l 146 -250 "},"Ł":{"ha":764,"x_min":0,"x_max":0,"o":"m 83 372 l 43 357 l -22 536 l 83 575 l 83 958 l 369 958 l 369 678 l 461 711 l 526 533 l 369 476 l 369 236 l 722 236 l 722 0 l 83 0 "},"M":{"ha":1250,"x_min":0,"x_max":0,"o":"m 83 958 l 451 958 l 625 440 l 799 958 l 1167 958 l 1167 0 l 881 0 l 881 510 l 722 0 l 529 0 l 369 510 l 369 0 l 83 0 "},"Ḿ":{"ha":1250,"x_min":0,"x_max":0,"o":"m 83 958 l 451 958 l 625 440 l 799 958 l 1167 958 l 1167 0 l 881 0 l 881 510 l 722 0 l 529 0 l 369 510 l 369 0 l 83 0 m 553 1222 l 824 1222 l 706 1000 l 483 1000 "},"Ṁ":{"ha":1250,"x_min":0,"x_max":0,"o":"m 83 958 l 451 958 l 625 440 l 799 958 l 1167 958 l 1167 0 l 881 0 l 881 510 l 722 0 l 529 0 l 369 510 l 369 0 l 83 0 m 489 1086 b 628 1199 489 1161 535 1199 b 764 1086 718 1199 764 1161 b 628 976 764 1011 718 976 b 489 1086 535 976 489 1011 "},"Ṃ":{"ha":1250,"x_min":0,"x_max":0,"o":"m 83 958 l 451 958 l 625 440 l 799 958 l 1167 958 l 1167 0 l 881 0 l 881 510 l 722 0 l 529 0 l 369 510 l 369 0 l 83 0 m 485 -156 b 624 -43 485 -81 531 -43 b 760 -156 714 -43 760 -81 b 624 -265 760 -231 714 -265 b 485 -156 531 -265 485 -231 "},"N":{"ha":1007,"x_min":0,"x_max":0,"o":"m 83 958 l 361 958 l 638 483 l 638 958 l 924 958 l 924 0 l 646 0 l 369 475 l 369 0 l 83 0 "},"Ń":{"ha":1007,"x_min":0,"x_max":0,"o":"m 83 958 l 361 958 l 638 483 l 638 958 l 924 958 l 924 0 l 646 0 l 369 475 l 369 0 l 83 0 m 432 1208 l 703 1208 l 585 986 l 363 986 "},"Ň":{"ha":1007,"x_min":0,"x_max":0,"o":"m 83 958 l 361 958 l 638 483 l 638 958 l 924 958 l 924 0 l 646 0 l 369 475 l 369 0 l 83 0 m 454 1208 l 504 1074 l 554 1208 l 811 1208 l 664 986 l 344 986 l 197 1208 "},"Ṋ":{"ha":1007,"x_min":0,"x_max":0,"o":"m 83 958 l 361 958 l 638 483 l 638 958 l 924 958 l 924 0 l 646 0 l 369 475 l 369 0 l 83 0 m 344 -28 l 664 -28 l 811 -250 l 554 -250 l 504 -115 l 454 -250 l 197 -250 "},"Ņ":{"ha":1007,"x_min":0,"x_max":0,"o":"m 83 958 l 361 958 l 638 483 l 638 958 l 924 958 l 924 0 l 646 0 l 369 475 l 369 0 l 83 0 m 369 -115 b 501 -19 369 -54 417 -19 b 643 -139 594 -19 643 -61 b 386 -324 643 -243 556 -314 l 378 -247 b 468 -201 429 -239 458 -225 b 369 -115 399 -197 369 -162 "},"Ṅ":{"ha":1007,"x_min":0,"x_max":0,"o":"m 83 958 l 361 958 l 638 483 l 638 958 l 924 958 l 924 0 l 646 0 l 369 475 l 369 0 l 83 0 m 368 1072 b 507 1185 368 1147 414 1185 b 643 1072 597 1185 643 1147 b 507 963 643 997 597 963 b 368 1072 414 963 368 997 "},"Ṇ":{"ha":1007,"x_min":0,"x_max":0,"o":"m 83 958 l 361 958 l 638 483 l 638 958 l 924 958 l 924 0 l 646 0 l 369 475 l 369 0 l 83 0 m 364 -156 b 503 -43 364 -81 410 -43 b 639 -156 593 -43 639 -81 b 503 -265 639 -231 593 -265 b 364 -156 410 -265 364 -231 "},"Ṉ":{"ha":1007,"x_min":0,"x_max":0,"o":"m 83 958 l 361 958 l 638 483 l 638 958 l 924 958 l 924 0 l 646 0 l 369 475 l 369 0 l 83 0 m 268 -56 l 740 -56 l 740 -250 l 268 -250 "},"Ñ":{"ha":1007,"x_min":0,"x_max":0,"o":"m 83 958 l 361 958 l 638 483 l 638 958 l 924 958 l 924 0 l 646 0 l 369 475 l 369 0 l 83 0 m 247 1067 b 392 1225 265 1178 318 1225 b 629 1161 485 1225 564 1161 b 714 1210 658 1161 683 1176 l 761 1142 b 617 985 754 1046 689 985 b 379 1047 524 985 444 1047 b 294 1001 347 1047 322 1031 l 247 1067 "},"Ŋ":{"ha":1007,"x_min":0,"x_max":0,"o":"m 83 958 l 361 958 l 638 483 l 638 958 l 924 958 l 924 6 l 924 0 b 663 -317 922 -232 853 -317 b 510 -300 608 -317 558 -310 l 528 -94 b 571 -97 544 -96 558 -97 b 638 -76 606 -97 626 -90 b 654 0 653 -60 654 -37 l 646 0 l 369 475 l 369 0 l 83 0 "},"O":{"ha":1031,"x_min":0,"x_max":0,"o":"m 517 -17 b 57 479 218 -17 57 146 b 517 975 57 813 218 975 b 975 479 815 975 975 813 b 517 -17 975 146 815 -17 m 351 479 b 517 206 351 294 392 206 b 681 479 642 206 681 296 b 517 753 681 663 642 753 b 351 479 392 753 351 664 "},"Ó":{"ha":1031,"x_min":0,"x_max":0,"o":"m 517 -17 b 57 479 218 -17 57 146 b 517 975 57 813 218 975 b 975 479 815 975 975 813 b 517 -17 975 146 815 -17 m 351 479 b 517 206 351 294 392 206 b 681 479 642 206 681 296 b 517 753 681 663 642 753 b 351 479 392 753 351 664 m 443 1222 l 714 1222 l 596 1000 l 374 1000 "},"Ǒ":{"ha":1031,"x_min":0,"x_max":0,"o":"m 517 -17 b 57 479 218 -17 57 146 b 517 975 57 813 218 975 b 975 479 815 975 975 813 b 517 -17 975 146 815 -17 m 465 1222 l 515 1088 l 565 1222 l 822 1222 l 675 1000 l 356 1000 l 208 1222 m 351 479 b 517 206 351 294 392 206 b 681 479 642 206 681 296 b 517 753 681 663 642 753 b 351 479 392 753 351 664 "},"Ô":{"ha":1031,"x_min":0,"x_max":0,"o":"m 517 -17 b 57 479 218 -17 57 146 b 517 975 57 813 218 975 b 975 479 815 975 975 813 b 517 -17 975 146 815 -17 m 356 1222 l 675 1222 l 822 1000 l 565 1000 l 515 1135 l 465 1000 l 208 1000 m 351 479 b 517 206 351 294 392 206 b 681 479 642 206 681 296 b 517 753 681 663 642 753 b 351 479 392 753 351 664 "},"Ố":{"ha":1031,"x_min":0,"x_max":0,"o":"m 517 -17 b 57 479 218 -17 57 146 b 517 975 57 813 218 975 b 975 479 815 975 975 813 b 517 -17 975 146 815 -17 m 356 1222 l 383 1222 l 443 1371 l 714 1371 l 613 1222 l 675 1222 l 822 1000 l 565 1000 l 515 1135 l 465 1000 l 208 1000 m 351 479 b 517 206 351 294 392 206 b 681 479 642 206 681 296 b 517 753 681 663 642 753 b 351 479 392 753 351 664 "},"Ộ":{"ha":1031,"x_min":0,"x_max":0,"o":"m 517 -17 b 57 479 218 -17 57 146 b 517 975 57 813 218 975 b 975 479 815 975 975 813 b 517 -17 975 146 815 -17 m 356 1222 l 675 1222 l 822 1000 l 565 1000 l 515 1135 l 465 1000 l 208 1000 m 351 479 b 517 206 351 294 392 206 b 681 479 642 206 681 296 b 517 753 681 663 642 753 b 351 479 392 753 351 664 m 375 -156 b 514 -43 375 -81 421 -43 b 650 -156 604 -43 650 -81 b 514 -265 650 -231 604 -265 b 375 -156 421 -265 375 -231 "},"Ồ":{"ha":1031,"x_min":0,"x_max":0,"o":"m 517 -17 b 57 479 218 -17 57 146 b 517 975 57 813 218 975 b 975 479 815 975 975 813 b 517 -17 975 146 815 -17 m 356 1222 l 406 1222 l 304 1376 l 575 1376 l 633 1222 l 675 1222 l 822 1000 l 565 1000 l 515 1135 l 465 1000 l 208 1000 m 351 479 b 517 206 351 294 392 206 b 681 479 642 206 681 296 b 517 753 681 663 642 753 b 351 479 392 753 351 664 "},"Ổ":{"ha":1031,"x_min":0,"x_max":0,"o":"m 517 -17 b 57 479 218 -17 57 146 b 517 975 57 813 218 975 b 975 479 815 975 975 813 b 517 -17 975 146 815 -17 m 356 1222 l 417 1222 b 456 1300 443 1263 456 1282 b 375 1368 456 1322 435 1340 l 442 1526 b 654 1379 583 1526 654 1457 b 550 1222 654 1324 619 1264 l 675 1222 l 822 1000 l 565 1000 l 515 1135 l 465 1000 l 208 1000 m 351 479 b 517 206 351 294 392 206 b 681 479 642 206 681 296 b 517 753 681 663 642 753 b 351 479 392 753 351 664 "},"Ỗ":{"ha":1031,"x_min":0,"x_max":0,"o":"m 517 -17 b 57 479 218 -17 57 146 b 517 975 57 813 218 975 b 975 479 815 975 975 813 b 517 -17 975 146 815 -17 m 347 1222 l 528 1222 b 393 1268 478 1240 432 1268 b 317 1222 365 1268 342 1251 l 274 1288 b 404 1446 290 1399 338 1446 b 619 1382 489 1446 561 1382 b 697 1431 647 1382 669 1397 l 740 1363 b 667 1222 736 1296 706 1247 l 814 1000 l 557 1000 l 507 1135 l 457 1000 l 200 1000 m 351 479 b 517 206 351 294 392 206 b 681 479 642 206 681 296 b 517 753 681 663 642 753 b 351 479 392 753 351 664 "},"Ö":{"ha":1031,"x_min":0,"x_max":0,"o":"m 517 -17 b 57 479 218 -17 57 146 b 517 975 57 813 218 975 b 975 479 815 975 975 813 b 517 -17 975 146 815 -17 m 219 1093 b 358 1206 219 1168 267 1206 b 494 1093 449 1206 494 1168 b 358 983 494 1018 449 983 b 219 1093 267 983 219 1018 m 351 479 b 517 206 351 294 392 206 b 681 479 642 206 681 296 b 517 753 681 663 642 753 b 351 479 392 753 351 664 m 536 1093 b 675 1206 536 1168 582 1206 b 811 1093 765 1206 811 1168 b 675 983 811 1018 765 983 b 536 1093 582 983 536 1018 "},"Ȫ":{"ha":1031,"x_min":0,"x_max":0,"o":"m 517 -17 b 57 479 218 -17 57 146 b 517 975 57 813 218 975 b 975 479 815 975 975 813 b 517 -17 975 146 815 -17 m 219 1093 b 358 1206 219 1168 267 1206 b 494 1093 449 1206 494 1168 b 358 983 494 1018 449 983 b 219 1093 267 983 219 1018 m 283 1400 l 756 1400 l 756 1226 l 283 1226 m 351 479 b 517 206 351 294 392 206 b 681 479 642 206 681 296 b 517 753 681 663 642 753 b 351 479 392 753 351 664 m 536 1093 b 675 1206 536 1168 582 1206 b 811 1093 765 1206 811 1168 b 675 983 811 1018 765 983 b 536 1093 582 983 536 1018 "},"Ọ":{"ha":1031,"x_min":0,"x_max":0,"o":"m 517 -17 b 57 479 218 -17 57 146 b 517 975 57 813 218 975 b 975 479 815 975 975 813 b 517 -17 975 146 815 -17 m 351 479 b 517 206 351 294 392 206 b 681 479 642 206 681 296 b 517 753 681 663 642 753 b 351 479 392 753 351 664 m 375 -156 b 514 -43 375 -81 421 -43 b 650 -156 604 -43 650 -81 b 514 -265 650 -231 604 -265 b 375 -156 421 -265 375 -231 "},"Ò":{"ha":1031,"x_min":0,"x_max":0,"o":"m 517 -17 b 57 479 218 -17 57 146 b 517 975 57 813 218 975 b 975 479 815 975 975 813 b 517 -17 975 146 815 -17 m 575 1222 l 643 1000 l 421 1000 l 304 1222 m 351 479 b 517 206 351 294 392 206 b 681 479 642 206 681 296 b 517 753 681 663 642 753 b 351 479 392 753 351 664 "},"Ỏ":{"ha":1031,"x_min":0,"x_max":0,"o":"m 517 -17 b 57 479 218 -17 57 146 b 517 975 57 813 218 975 b 975 479 815 975 975 813 b 517 -17 975 146 815 -17 m 351 479 b 517 206 351 294 392 206 b 681 479 642 206 681 296 b 517 753 681 663 642 753 b 351 479 392 753 351 664 m 442 1319 b 654 1172 583 1319 654 1250 b 458 976 654 1096 589 1013 l 414 1011 b 456 1093 442 1054 456 1075 b 375 1161 456 1115 435 1133 "},"Ơ":{"ha":1031,"x_min":0,"x_max":0,"o":"m 517 -17 b 57 479 218 -17 57 146 b 517 975 57 813 218 975 b 878 829 679 975 800 926 b 932 856 907 839 924 846 b 914 960 946 874 942 900 l 1067 1039 b 1135 789 1175 947 1185 849 b 929 740 1096 742 1021 718 b 975 479 960 669 975 583 b 517 -17 975 146 815 -17 m 351 479 b 517 206 351 294 392 206 b 681 479 642 206 681 296 b 517 753 681 663 642 753 b 351 479 392 753 351 664 "},"Ớ":{"ha":1031,"x_min":0,"x_max":0,"o":"m 517 -17 b 57 479 218 -17 57 146 b 517 975 57 813 218 975 b 878 829 679 975 800 926 b 932 856 907 839 924 846 b 914 960 946 874 942 900 l 1067 1039 b 1135 789 1175 947 1185 849 b 929 740 1096 742 1021 718 b 975 479 960 669 975 583 b 517 -17 975 146 815 -17 m 351 479 b 517 206 351 294 392 206 b 681 479 642 206 681 296 b 517 753 681 663 642 753 b 351 479 392 753 351 664 m 443 1222 l 714 1222 l 596 1000 l 374 1000 "},"Ợ":{"ha":1031,"x_min":0,"x_max":0,"o":"m 517 -17 b 57 479 218 -17 57 146 b 517 975 57 813 218 975 b 878 829 679 975 800 926 b 932 856 907 839 924 846 b 914 960 946 874 942 900 l 1067 1039 b 1135 789 1175 947 1185 849 b 929 740 1096 742 1021 718 b 975 479 960 669 975 583 b 517 -17 975 146 815 -17 m 351 479 b 517 206 351 294 392 206 b 681 479 642 206 681 296 b 517 753 681 663 642 753 b 351 479 392 753 351 664 m 375 -156 b 514 -43 375 -81 421 -43 b 650 -156 604 -43 650 -81 b 514 -265 650 -231 604 -265 b 375 -156 421 -265 375 -231 "},"Ờ":{"ha":1031,"x_min":0,"x_max":0,"o":"m 517 -17 b 57 479 218 -17 57 146 b 517 975 57 813 218 975 b 878 829 679 975 800 926 b 932 856 907 839 924 846 b 914 960 946 874 942 900 l 1067 1039 b 1135 789 1175 947 1185 849 b 929 740 1096 742 1021 718 b 975 479 960 669 975 583 b 517 -17 975 146 815 -17 m 575 1222 l 643 1000 l 421 1000 l 304 1222 m 351 479 b 517 206 351 294 392 206 b 681 479 642 206 681 296 b 517 753 681 663 642 753 b 351 479 392 753 351 664 "},"Ở":{"ha":1031,"x_min":0,"x_max":0,"o":"m 517 -17 b 57 479 218 -17 57 146 b 517 975 57 813 218 975 b 878 829 679 975 800 926 b 932 856 907 839 924 846 b 914 960 946 874 942 900 l 1067 1039 b 1135 789 1175 947 1185 849 b 929 740 1096 742 1021 718 b 975 479 960 669 975 583 b 517 -17 975 146 815 -17 m 351 479 b 517 206 351 294 392 206 b 681 479 642 206 681 296 b 517 753 681 663 642 753 b 351 479 392 753 351 664 m 442 1319 b 654 1172 583 1319 654 1250 b 458 976 654 1096 589 1013 l 414 1011 b 456 1093 442 1054 456 1075 b 375 1161 456 1115 435 1133 "},"Ỡ":{"ha":1031,"x_min":0,"x_max":0,"o":"m 517 -17 b 57 479 218 -17 57 146 b 517 975 57 813 218 975 b 878 829 679 975 800 926 b 932 856 907 839 924 846 b 914 960 946 874 942 900 l 1067 1039 b 1135 789 1175 947 1185 849 b 929 740 1096 742 1021 718 b 975 479 960 669 975 583 b 517 -17 975 146 815 -17 m 258 1081 b 403 1239 276 1192 329 1239 b 640 1175 496 1239 575 1175 b 725 1224 669 1175 694 1190 l 772 1156 b 628 999 765 1060 700 999 b 390 1061 535 999 456 1061 b 306 1015 358 1061 333 1044 l 258 1081 m 351 479 b 517 206 351 294 392 206 b 681 479 642 206 681 296 b 517 753 681 663 642 753 b 351 479 392 753 351 664 "},"Ő":{"ha":1031,"x_min":0,"x_max":0,"o":"m 517 -17 b 57 479 218 -17 57 146 b 517 975 57 813 218 975 b 975 479 815 975 975 813 b 517 -17 975 146 815 -17 m 289 1236 l 560 1236 l 443 1014 l 221 1014 m 351 479 b 517 206 351 294 392 206 b 681 479 642 206 681 296 b 517 753 681 663 642 753 b 351 479 392 753 351 664 m 594 1236 l 865 1236 l 749 1014 l 526 1014 "},"Ō":{"ha":1031,"x_min":0,"x_max":0,"o":"m 517 -17 b 57 479 218 -17 57 146 b 517 975 57 813 218 975 b 975 479 815 975 975 813 b 517 -17 975 146 815 -17 m 283 1183 l 756 1183 l 756 1010 l 283 1010 m 351 479 b 517 206 351 294 392 206 b 681 479 642 206 681 296 b 517 753 681 663 642 753 b 351 479 392 753 351 664 "},"Ṓ":{"ha":1031,"x_min":0,"x_max":0,"o":"m 517 -17 b 57 479 218 -17 57 146 b 517 975 57 813 218 975 b 975 479 815 975 975 813 b 517 -17 975 146 815 -17 m 283 1183 l 756 1183 l 756 1010 l 283 1010 m 351 479 b 517 206 351 294 392 206 b 681 479 642 206 681 296 b 517 753 681 663 642 753 b 351 479 392 753 351 664 m 443 1440 l 714 1440 l 596 1218 l 374 1218 "},"Ṑ":{"ha":1031,"x_min":0,"x_max":0,"o":"m 517 -17 b 57 479 218 -17 57 146 b 517 975 57 813 218 975 b 975 479 815 975 975 813 b 517 -17 975 146 815 -17 m 283 1183 l 756 1183 l 756 1010 l 283 1010 m 575 1440 l 643 1218 l 421 1218 l 304 1440 m 351 479 b 517 206 351 294 392 206 b 681 479 642 206 681 296 b 517 753 681 663 642 753 b 351 479 392 753 351 664 "},"Ɔ":{"ha":835,"x_min":0,"x_max":0,"o":"m 317 -17 b 43 18 222 -17 113 -1 l 68 249 b 285 206 110 236 188 206 b 483 479 428 206 483 269 b 286 753 483 689 428 753 b 68 708 189 753 110 719 l 43 940 b 318 975 113 960 228 975 b 778 479 622 975 778 811 b 317 -17 778 147 622 -17 "},"Ø":{"ha":1031,"x_min":0,"x_max":0,"o":"m 517 -17 b 457 -14 496 -17 476 -15 l 454 -22 l 207 -22 l 236 56 b 57 479 118 132 57 274 b 517 975 57 813 218 975 b 581 972 539 975 560 974 l 585 982 l 833 982 l 803 900 b 975 479 915 822 975 682 b 517 -17 975 146 815 -17 m 351 479 b 357 376 351 440 353 407 l 499 753 b 351 479 388 743 351 654 m 540 207 b 681 479 647 218 681 308 b 676 567 681 511 679 540 l 540 207 "},"Ǿ":{"ha":1031,"x_min":0,"x_max":0,"o":"m 517 -17 b 457 -14 496 -17 476 -15 l 454 -22 l 207 -22 l 236 56 b 57 479 118 132 57 274 b 517 975 57 813 218 975 b 581 972 539 975 560 974 l 585 982 l 833 982 l 803 900 b 975 479 915 822 975 682 b 517 -17 975 146 815 -17 m 351 479 b 357 376 351 440 353 407 l 499 753 b 351 479 388 743 351 654 m 443 1222 l 714 1222 l 596 1000 l 374 1000 m 540 207 b 681 479 647 218 681 308 b 676 567 681 511 679 540 l 540 207 "},"Õ":{"ha":1031,"x_min":0,"x_max":0,"o":"m 517 -17 b 57 479 218 -17 57 146 b 517 975 57 813 218 975 b 975 479 815 975 975 813 b 517 -17 975 146 815 -17 m 258 1081 b 403 1239 276 1192 329 1239 b 640 1175 496 1239 575 1175 b 725 1224 669 1175 694 1190 l 772 1156 b 628 999 765 1060 700 999 b 390 1061 535 999 456 1061 b 306 1015 358 1061 333 1044 l 258 1081 m 351 479 b 517 206 351 294 392 206 b 681 479 642 206 681 296 b 517 753 681 663 642 753 b 351 479 392 753 351 664 "},"Œ":{"ha":1414,"x_min":0,"x_max":0,"o":"m 517 -17 b 57 479 218 -17 57 146 b 517 975 57 813 218 975 b 692 951 582 975 640 967 l 692 958 l 1372 958 l 1372 722 l 978 722 l 978 611 l 1311 611 l 1311 375 l 978 375 l 978 236 l 1372 236 l 1372 0 l 692 0 l 692 7 b 517 -17 640 -8 582 -17 m 351 479 b 517 206 351 294 392 206 b 681 479 642 206 681 296 b 517 753 681 663 642 753 b 351 479 392 753 351 664 "},"P":{"ha":915,"x_min":0,"x_max":0,"o":"m 85 940 b 439 975 213 961 340 975 b 874 625 724 975 874 854 b 463 275 874 399 728 275 b 371 278 439 275 406 276 l 371 0 l 85 0 l 85 940 m 371 508 b 460 497 401 500 439 497 b 579 625 543 497 579 536 b 460 753 579 715 543 753 b 371 742 438 753 401 750 l 371 508 "},"Þ":{"ha":928,"x_min":0,"x_max":0,"o":"m 83 958 l 369 958 l 369 826 b 461 829 404 828 438 829 b 872 479 739 829 872 715 b 461 129 872 243 739 129 b 369 132 438 129 404 131 l 369 0 l 83 0 m 369 363 b 458 351 400 354 436 351 b 578 479 542 351 578 389 b 458 607 578 569 542 607 b 369 596 436 607 400 604 l 369 363 "},"Q":{"ha":1031,"x_min":0,"x_max":0,"o":"m 731 -308 b 443 -14 614 -296 338 -244 b 56 479 190 11 56 174 b 515 975 56 813 217 975 b 975 479 814 975 975 813 b 592 -12 975 175 842 14 b 844 -40 611 -68 761 -54 l 731 -308 m 351 479 b 515 206 351 294 390 206 b 679 479 640 206 679 294 b 515 753 679 664 640 753 b 351 479 390 753 351 664 "},"R":{"ha":929,"x_min":0,"x_max":0,"o":"m 83 940 b 438 975 211 961 340 975 b 872 639 722 975 872 868 b 701 361 872 485 815 400 l 915 0 l 582 0 l 433 319 b 369 322 413 319 393 321 l 369 0 l 83 0 l 83 940 m 369 536 b 458 525 400 528 436 525 b 578 639 540 525 578 563 b 458 753 578 715 542 753 b 369 742 436 753 400 750 l 369 536 "},"Ŕ":{"ha":929,"x_min":0,"x_max":0,"o":"m 83 940 b 438 975 211 961 340 975 b 872 639 722 975 872 868 b 701 361 872 485 815 400 l 915 0 l 582 0 l 433 319 b 369 322 413 319 393 321 l 369 0 l 83 0 l 83 940 m 393 1222 l 664 1222 l 546 1000 l 324 1000 m 369 536 b 458 525 400 528 436 525 b 578 639 540 525 578 563 b 458 753 578 715 542 753 b 369 742 436 753 400 750 l 369 536 "},"Ř":{"ha":929,"x_min":0,"x_max":0,"o":"m 83 940 b 438 975 211 961 340 975 b 872 639 722 975 872 868 b 701 361 872 485 815 400 l 915 0 l 582 0 l 433 319 b 369 322 413 319 393 321 l 369 0 l 83 0 l 83 940 m 415 1222 l 465 1088 l 515 1222 l 772 1222 l 625 1000 l 306 1000 l 158 1222 m 369 536 b 458 525 400 528 436 525 b 578 639 540 525 578 563 b 458 753 578 715 542 753 b 369 742 436 753 400 750 l 369 536 "},"Ŗ":{"ha":929,"x_min":0,"x_max":0,"o":"m 83 940 b 438 975 211 961 340 975 b 872 639 722 975 872 868 b 701 361 872 485 815 400 l 915 0 l 582 0 l 433 319 b 369 322 413 319 393 321 l 369 0 l 83 0 l 83 940 m 331 -115 b 463 -19 331 -54 378 -19 b 604 -139 556 -19 604 -61 b 347 -324 604 -243 517 -314 l 339 -247 b 429 -201 390 -239 419 -225 b 331 -115 360 -197 331 -162 m 369 536 b 458 525 400 528 436 525 b 578 639 540 525 578 563 b 458 753 578 715 542 753 b 369 742 436 753 400 750 l 369 536 "},"Ṝ":{"ha":929,"x_min":0,"x_max":0,"o":"m 83 940 b 438 975 211 961 340 975 b 872 639 722 975 872 868 b 701 361 872 485 815 400 l 915 0 l 582 0 l 433 319 b 369 322 413 319 393 321 l 369 0 l 83 0 l 83 940 m 233 1183 l 706 1183 l 706 1010 l 233 1010 m 325 -156 b 464 -43 325 -81 371 -43 b 600 -156 554 -43 600 -81 b 464 -265 600 -231 554 -265 b 325 -156 371 -265 325 -231 m 369 536 b 458 525 400 528 436 525 b 578 639 540 525 578 563 b 458 753 578 715 542 753 b 369 742 436 753 400 750 l 369 536 "},"Ṟ":{"ha":929,"x_min":0,"x_max":0,"o":"m 83 940 b 438 975 211 961 340 975 b 872 639 722 975 872 868 b 701 361 872 485 815 400 l 915 0 l 582 0 l 433 319 b 369 322 413 319 393 321 l 369 0 l 83 0 l 83 940 m 229 -56 l 701 -56 l 701 -250 l 229 -250 m 369 536 b 458 525 400 528 436 525 b 578 639 540 525 578 563 b 458 753 578 715 542 753 b 369 742 436 753 400 750 l 369 536 "},"S":{"ha":811,"x_min":0,"x_max":0,"o":"m 388 -17 b 28 53 215 -17 99 31 l 53 285 b 357 206 94 268 222 206 b 475 278 435 206 475 231 b 326 371 475 340 407 353 b 64 658 154 410 64 510 b 442 975 64 868 192 975 b 729 940 538 975 657 961 l 703 708 b 469 753 661 719 561 753 b 357 681 396 753 357 728 b 514 586 357 617 429 606 b 768 300 692 546 768 465 b 388 -17 768 96 632 -17 "},"Ś":{"ha":811,"x_min":0,"x_max":0,"o":"m 388 -17 b 28 53 215 -17 99 31 l 53 285 b 357 206 94 268 222 206 b 475 278 435 206 475 231 b 326 371 475 340 407 353 b 64 658 154 410 64 510 b 442 975 64 868 192 975 b 729 940 538 975 657 961 l 703 708 b 469 753 661 719 561 753 b 357 681 396 753 357 728 b 514 586 357 617 429 606 b 768 300 692 546 768 465 b 388 -17 768 96 632 -17 m 333 1222 l 604 1222 l 486 1000 l 264 1000 "},"Ꞌ":{"ha":383,"x_min":0,"x_max":0,"o":"m 49 986 l 335 986 l 306 347 l 78 347 "},"Š":{"ha":811,"x_min":0,"x_max":0,"o":"m 388 -17 b 28 53 215 -17 99 31 l 53 285 b 357 206 94 268 222 206 b 475 278 435 206 475 231 b 326 371 475 340 407 353 b 64 658 154 410 64 510 b 442 975 64 868 192 975 b 729 940 538 975 657 961 l 703 708 b 469 753 661 719 561 753 b 357 681 396 753 357 728 b 514 586 357 617 429 606 b 768 300 692 546 768 465 b 388 -17 768 96 632 -17 m 356 1222 l 406 1088 l 456 1222 l 713 1222 l 565 1000 l 246 1000 l 99 1222 "},"Ş":{"ha":811,"x_min":0,"x_max":0,"o":"m 243 -165 b 349 -60 307 -136 349 -112 b 340 -15 349 -47 346 -32 b 28 53 193 -8 92 33 l 53 285 b 357 206 94 268 222 206 b 475 278 435 206 475 231 b 326 371 475 340 407 353 b 64 658 154 410 64 510 b 442 975 64 868 192 975 b 729 940 538 975 657 961 l 703 708 b 469 753 661 719 561 753 b 357 681 396 753 357 728 b 514 586 357 617 429 606 b 768 300 692 546 768 465 b 450 -14 768 114 656 4 b 535 -158 506 -51 535 -106 b 310 -324 535 -243 461 -324 l 243 -165 "},"Ŝ":{"ha":811,"x_min":0,"x_max":0,"o":"m 388 -17 b 28 53 215 -17 99 31 l 53 285 b 357 206 94 268 222 206 b 475 278 435 206 475 231 b 326 371 475 340 407 353 b 64 658 154 410 64 510 b 442 975 64 868 192 975 b 729 940 538 975 657 961 l 703 708 b 469 753 661 719 561 753 b 357 681 396 753 357 728 b 514 586 357 617 429 606 b 768 300 692 546 768 465 b 388 -17 768 96 632 -17 m 246 1222 l 565 1222 l 713 1000 l 456 1000 l 406 1135 l 356 1000 l 99 1000 "},"Ș":{"ha":811,"x_min":0,"x_max":0,"o":"m 388 -17 b 28 53 215 -17 99 31 l 53 285 b 357 206 94 268 222 206 b 475 278 435 206 475 231 b 326 371 475 340 407 353 b 64 658 154 410 64 510 b 442 975 64 868 192 975 b 729 940 538 975 657 961 l 703 708 b 469 753 661 719 561 753 b 357 681 396 753 357 728 b 514 586 357 617 429 606 b 768 300 692 546 768 465 b 388 -17 768 96 632 -17 m 254 -131 b 386 -35 254 -69 301 -35 b 528 -154 479 -35 528 -76 b 271 -339 528 -258 440 -329 l 263 -262 b 353 -217 314 -254 343 -240 b 254 -131 283 -212 254 -178 "},"Ṣ":{"ha":811,"x_min":0,"x_max":0,"o":"m 388 -17 b 28 53 215 -17 99 31 l 53 285 b 357 206 94 268 222 206 b 475 278 435 206 475 231 b 326 371 475 340 407 353 b 64 658 154 410 64 510 b 442 975 64 868 192 975 b 729 940 538 975 657 961 l 703 708 b 469 753 661 719 561 753 b 357 681 396 753 357 728 b 514 586 357 617 429 606 b 768 300 692 546 768 465 b 388 -17 768 96 632 -17 m 249 -171 b 388 -58 249 -96 294 -58 b 524 -171 478 -58 524 -96 b 388 -281 524 -246 478 -281 b 249 -171 294 -281 249 -246 "},"ẞ":{"ha":907,"x_min":0,"x_max":0,"o":"m 413 178 b 585 325 538 178 585 235 b 413 472 585 415 538 472 l 413 654 b 544 724 496 654 544 665 b 451 785 544 763 521 785 b 356 685 382 785 356 757 l 354 0 l 85 0 l 85 472 l 1 472 l 1 694 l 113 694 b 93 790 100 729 93 761 b 451 1003 93 925 224 1003 b 815 756 688 1003 815 917 b 690 575 815 658 772 593 b 879 293 792 565 879 479 b 438 -44 879 107 792 -44 l 413 178 "},"Ə":{"ha":751,"x_min":0,"x_max":0,"o":"m 369 -17 b 56 331 165 -17 56 99 b 231 643 56 511 121 603 b 410 671 282 661 342 669 b 314 785 410 756 385 785 b 106 742 239 785 139 753 l 81 972 b 344 1007 147 986 233 1007 b 696 669 588 1007 696 903 l 696 349 b 369 -17 696 99 574 -17 m 328 294 b 369 192 328 228 339 192 b 410 349 400 192 410 233 l 410 461 b 361 435 392 458 375 451 b 328 294 340 410 328 367 "},"T":{"ha":869,"x_min":0,"x_max":0,"o":"m 292 722 l 42 722 l 42 958 l 828 958 l 828 722 l 578 722 l 578 0 l 292 0 "},"Ŧ":{"ha":869,"x_min":0,"x_max":0,"o":"m 292 319 l 192 319 l 192 514 l 292 514 l 292 722 l 42 722 l 42 958 l 828 958 l 828 722 l 578 722 l 578 514 l 678 514 l 678 319 l 578 319 l 578 0 l 292 0 "},"Ť":{"ha":869,"x_min":0,"x_max":0,"o":"m 292 722 l 42 722 l 42 958 l 828 958 l 828 722 l 578 722 l 578 0 l 292 0 m 385 1222 l 435 1088 l 485 1222 l 742 1222 l 594 1000 l 275 1000 l 128 1222 "},"Ţ":{"ha":869,"x_min":0,"x_max":0,"o":"m 292 722 l 42 722 l 42 958 l 828 958 l 828 722 l 578 722 l 578 0 l 497 0 b 581 -143 553 -37 581 -90 b 356 -308 581 -228 507 -308 l 289 -150 b 394 -44 353 -121 394 -97 b 386 0 394 -32 392 -17 l 292 0 "},"Ṱ":{"ha":869,"x_min":0,"x_max":0,"o":"m 292 722 l 42 722 l 42 958 l 828 958 l 828 722 l 578 722 l 578 0 l 292 0 m 275 -28 l 594 -28 l 742 -250 l 485 -250 l 435 -115 l 385 -250 l 128 -250 "},"Ț":{"ha":869,"x_min":0,"x_max":0,"o":"m 292 722 l 42 722 l 42 958 l 828 958 l 828 722 l 578 722 l 578 0 l 292 0 m 300 -115 b 432 -19 300 -54 347 -19 b 574 -139 525 -19 574 -61 b 317 -324 574 -243 486 -314 l 308 -247 b 399 -201 360 -239 389 -225 b 300 -115 329 -197 300 -162 "},"Ṭ":{"ha":869,"x_min":0,"x_max":0,"o":"m 292 722 l 42 722 l 42 958 l 828 958 l 828 722 l 578 722 l 578 0 l 292 0 m 294 -156 b 433 -43 294 -81 340 -43 b 569 -156 524 -43 569 -81 b 433 -265 569 -231 524 -265 b 294 -156 340 -265 294 -231 "},"Ṯ":{"ha":869,"x_min":0,"x_max":0,"o":"m 292 722 l 42 722 l 42 958 l 828 958 l 828 722 l 578 722 l 578 0 l 292 0 m 199 -56 l 671 -56 l 671 -250 l 199 -250 "},"U":{"ha":1007,"x_min":0,"x_max":0,"o":"m 503 -17 b 85 431 200 -17 85 89 l 85 958 l 371 958 l 371 417 b 503 206 371 256 404 206 b 636 417 601 206 636 254 l 636 958 l 922 958 l 922 431 b 503 -17 922 89 806 -17 "},"Ú":{"ha":1007,"x_min":0,"x_max":0,"o":"m 503 -17 b 85 431 200 -17 85 89 l 85 958 l 371 958 l 371 417 b 503 206 371 256 404 206 b 636 417 601 206 636 254 l 636 958 l 922 958 l 922 431 b 503 -17 922 89 806 -17 m 431 1222 l 701 1222 l 583 1000 l 361 1000 "},"Ŭ":{"ha":1007,"x_min":0,"x_max":0,"o":"m 503 -17 b 85 431 200 -17 85 89 l 85 958 l 371 958 l 371 417 b 503 206 371 256 404 206 b 636 417 601 206 636 254 l 636 958 l 922 958 l 922 431 b 503 -17 922 89 806 -17 m 424 1193 b 504 1119 424 1143 450 1119 b 582 1193 557 1119 582 1143 l 735 1192 b 504 986 735 1060 654 986 b 271 1192 354 986 271 1061 "},"Ǔ":{"ha":1007,"x_min":0,"x_max":0,"o":"m 503 -17 b 85 431 200 -17 85 89 l 85 958 l 371 958 l 371 417 b 503 206 371 256 404 206 b 636 417 601 206 636 254 l 636 958 l 922 958 l 922 431 b 503 -17 922 89 806 -17 m 453 1222 l 503 1088 l 553 1222 l 810 1222 l 663 1000 l 343 1000 l 196 1222 "},"Û":{"ha":1007,"x_min":0,"x_max":0,"o":"m 503 -17 b 85 431 200 -17 85 89 l 85 958 l 371 958 l 371 417 b 503 206 371 256 404 206 b 636 417 601 206 636 254 l 636 958 l 922 958 l 922 431 b 503 -17 922 89 806 -17 m 343 1222 l 663 1222 l 810 1000 l 553 1000 l 503 1135 l 453 1000 l 196 1000 "},"Ü":{"ha":1007,"x_min":0,"x_max":0,"o":"m 503 -17 b 85 431 200 -17 85 89 l 85 958 l 371 958 l 371 417 b 503 206 371 256 404 206 b 636 417 601 206 636 254 l 636 958 l 922 958 l 922 431 b 503 -17 922 89 806 -17 m 207 1093 b 346 1206 207 1168 254 1206 b 482 1093 436 1206 482 1168 b 346 983 482 1018 436 983 b 207 1093 254 983 207 1018 m 524 1093 b 663 1206 524 1168 569 1206 b 799 1093 753 1206 799 1168 b 663 983 799 1018 753 983 b 524 1093 569 983 524 1018 "},"Ǘ":{"ha":1007,"x_min":0,"x_max":0,"o":"m 503 -17 b 85 431 200 -17 85 89 l 85 958 l 371 958 l 371 417 b 503 206 371 256 404 206 b 636 417 601 206 636 254 l 636 958 l 922 958 l 922 431 b 503 -17 922 89 806 -17 m 207 1093 b 346 1206 207 1168 254 1206 b 482 1093 436 1206 482 1168 b 346 983 482 1018 436 983 b 207 1093 254 983 207 1018 m 431 1439 l 701 1439 l 583 1217 l 361 1217 m 524 1093 b 663 1206 524 1168 569 1206 b 799 1093 753 1206 799 1168 b 663 983 799 1018 753 983 b 524 1093 569 983 524 1018 "},"Ǚ":{"ha":1007,"x_min":0,"x_max":0,"o":"m 503 -17 b 85 431 200 -17 85 89 l 85 958 l 371 958 l 371 417 b 503 206 371 256 404 206 b 636 417 601 206 636 254 l 636 958 l 922 958 l 922 431 b 503 -17 922 89 806 -17 m 453 1439 l 503 1304 l 553 1439 l 810 1439 l 663 1217 l 343 1217 l 196 1439 m 207 1093 b 346 1206 207 1168 254 1206 b 482 1093 436 1206 482 1168 b 346 983 482 1018 436 983 b 207 1093 254 983 207 1018 m 524 1093 b 663 1206 524 1168 569 1206 b 799 1093 753 1206 799 1168 b 663 983 799 1018 753 983 b 524 1093 569 983 524 1018 "},"Ǜ":{"ha":1007,"x_min":0,"x_max":0,"o":"m 503 -17 b 85 431 200 -17 85 89 l 85 958 l 371 958 l 371 417 b 503 206 371 256 404 206 b 636 417 601 206 636 254 l 636 958 l 922 958 l 922 431 b 503 -17 922 89 806 -17 m 207 1093 b 346 1206 207 1168 254 1206 b 482 1093 436 1206 482 1168 b 346 983 482 1018 436 983 b 207 1093 254 983 207 1018 m 563 1439 l 631 1217 l 408 1217 l 292 1439 m 524 1093 b 663 1206 524 1168 569 1206 b 799 1093 753 1206 799 1168 b 663 983 799 1018 753 983 b 524 1093 569 983 524 1018 "},"Ǖ":{"ha":1007,"x_min":0,"x_max":0,"o":"m 503 -17 b 85 431 200 -17 85 89 l 85 958 l 371 958 l 371 417 b 503 206 371 256 404 206 b 636 417 601 206 636 254 l 636 958 l 922 958 l 922 431 b 503 -17 922 89 806 -17 m 207 1093 b 346 1206 207 1168 254 1206 b 482 1093 436 1206 482 1168 b 346 983 482 1018 436 983 b 207 1093 254 983 207 1018 m 271 1400 l 743 1400 l 743 1226 l 271 1226 m 524 1093 b 663 1206 524 1168 569 1206 b 799 1093 753 1206 799 1168 b 663 983 799 1018 753 983 b 524 1093 569 983 524 1018 "},"Ụ":{"ha":1007,"x_min":0,"x_max":0,"o":"m 503 -17 b 85 431 200 -17 85 89 l 85 958 l 371 958 l 371 417 b 503 206 371 256 404 206 b 636 417 601 206 636 254 l 636 958 l 922 958 l 922 431 b 503 -17 922 89 806 -17 m 363 -156 b 501 -43 363 -81 408 -43 b 638 -156 592 -43 638 -81 b 501 -265 638 -231 592 -265 b 363 -156 408 -265 363 -231 "},"Ù":{"ha":1007,"x_min":0,"x_max":0,"o":"m 503 -17 b 85 431 200 -17 85 89 l 85 958 l 371 958 l 371 417 b 503 206 371 256 404 206 b 636 417 601 206 636 254 l 636 958 l 922 958 l 922 431 b 503 -17 922 89 806 -17 m 563 1222 l 631 1000 l 408 1000 l 292 1222 "},"Ủ":{"ha":1007,"x_min":0,"x_max":0,"o":"m 503 -17 b 85 431 200 -17 85 89 l 85 958 l 371 958 l 371 417 b 503 206 371 256 404 206 b 636 417 601 206 636 254 l 636 958 l 922 958 l 922 431 b 503 -17 922 89 806 -17 m 429 1319 b 642 1172 571 1319 642 1250 b 446 976 642 1096 576 1013 l 401 1011 b 443 1093 429 1054 443 1075 b 363 1161 443 1115 422 1133 "},"Ư":{"ha":1007,"x_min":0,"x_max":0,"o":"m 503 -17 b 85 431 200 -17 85 89 l 85 958 l 371 958 l 371 417 b 503 206 371 256 404 206 b 636 417 601 206 636 254 l 636 958 l 922 958 l 922 863 b 978 889 953 872 969 879 b 960 993 992 907 988 933 l 1113 1072 b 1181 822 1221 981 1231 882 b 922 792 1135 767 1038 744 l 922 431 b 503 -17 922 89 806 -17 "},"Ứ":{"ha":1007,"x_min":0,"x_max":0,"o":"m 503 -17 b 85 431 200 -17 85 89 l 85 958 l 371 958 l 371 417 b 503 206 371 256 404 206 b 636 417 601 206 636 254 l 636 958 l 922 958 l 922 863 b 978 889 953 872 969 879 b 960 993 992 907 988 933 l 1113 1072 b 1181 822 1221 981 1231 882 b 922 792 1135 767 1038 744 l 922 431 b 503 -17 922 89 806 -17 m 431 1222 l 701 1222 l 583 1000 l 361 1000 "},"Ự":{"ha":1007,"x_min":0,"x_max":0,"o":"m 503 -17 b 85 431 200 -17 85 89 l 85 958 l 371 958 l 371 417 b 503 206 371 256 404 206 b 636 417 601 206 636 254 l 636 958 l 922 958 l 922 863 b 978 889 953 872 969 879 b 960 993 992 907 988 933 l 1113 1072 b 1181 822 1221 981 1231 882 b 922 792 1135 767 1038 744 l 922 431 b 503 -17 922 89 806 -17 m 363 -156 b 501 -43 363 -81 408 -43 b 638 -156 592 -43 638 -81 b 501 -265 638 -231 592 -265 b 363 -156 408 -265 363 -231 "},"Ừ":{"ha":1007,"x_min":0,"x_max":0,"o":"m 503 -17 b 85 431 200 -17 85 89 l 85 958 l 371 958 l 371 417 b 503 206 371 256 404 206 b 636 417 601 206 636 254 l 636 958 l 922 958 l 922 863 b 978 889 953 872 969 879 b 960 993 992 907 988 933 l 1113 1072 b 1181 822 1221 981 1231 882 b 922 792 1135 767 1038 744 l 922 431 b 503 -17 922 89 806 -17 m 563 1222 l 631 1000 l 408 1000 l 292 1222 "},"Ử":{"ha":1007,"x_min":0,"x_max":0,"o":"m 503 -17 b 85 431 200 -17 85 89 l 85 958 l 371 958 l 371 417 b 503 206 371 256 404 206 b 636 417 601 206 636 254 l 636 958 l 922 958 l 922 863 b 978 889 953 872 969 879 b 960 993 992 907 988 933 l 1113 1072 b 1181 822 1221 981 1231 882 b 922 792 1135 767 1038 744 l 922 431 b 503 -17 922 89 806 -17 m 429 1319 b 642 1172 571 1319 642 1250 b 446 976 642 1096 576 1013 l 401 1011 b 443 1093 429 1054 443 1075 b 363 1161 443 1115 422 1133 "},"Ữ":{"ha":1007,"x_min":0,"x_max":0,"o":"m 503 -17 b 85 431 200 -17 85 89 l 85 958 l 371 958 l 371 417 b 503 206 371 256 404 206 b 636 417 601 206 636 254 l 636 958 l 922 958 l 922 863 b 978 889 953 872 969 879 b 960 993 992 907 988 933 l 1113 1072 b 1181 822 1221 981 1231 882 b 922 792 1135 767 1038 744 l 922 431 b 503 -17 922 89 806 -17 m 246 1081 b 390 1239 264 1192 317 1239 b 628 1175 483 1239 563 1175 b 713 1224 657 1175 682 1190 l 760 1156 b 615 999 753 1060 688 999 b 378 1061 522 999 443 1061 b 293 1015 346 1061 321 1044 l 246 1081 "},"Ű":{"ha":1007,"x_min":0,"x_max":0,"o":"m 503 -17 b 85 431 200 -17 85 89 l 85 958 l 371 958 l 371 417 b 503 206 371 256 404 206 b 636 417 601 206 636 254 l 636 958 l 922 958 l 922 431 b 503 -17 922 89 806 -17 m 276 1236 l 547 1236 l 431 1014 l 208 1014 m 582 1236 l 853 1236 l 736 1014 l 514 1014 "},"Ū":{"ha":1007,"x_min":0,"x_max":0,"o":"m 503 -17 b 85 431 200 -17 85 89 l 85 958 l 371 958 l 371 417 b 503 206 371 256 404 206 b 636 417 601 206 636 254 l 636 958 l 922 958 l 922 431 b 503 -17 922 89 806 -17 m 271 1183 l 743 1183 l 743 1010 l 271 1010 "},"Ų":{"ha":1007,"x_min":0,"x_max":0,"o":"m 581 -308 b 368 -161 439 -308 368 -239 b 454 -15 368 -110 397 -57 b 85 431 188 -4 85 108 l 85 958 l 371 958 l 371 417 b 503 206 371 256 404 206 b 636 417 601 206 636 254 l 636 958 l 922 958 l 922 431 b 600 -12 922 128 831 11 b 567 -82 578 -47 567 -65 b 647 -150 567 -104 588 -122 l 581 -308 "},"Ů":{"ha":1007,"x_min":0,"x_max":0,"o":"m 503 -17 b 85 431 200 -17 85 89 l 85 958 l 326 958 b 301 1056 310 985 301 1017 b 504 1238 301 1171 375 1238 b 704 1056 633 1238 704 1172 b 681 958 704 1017 696 985 l 922 958 l 922 431 b 503 -17 922 89 806 -17 m 371 417 b 503 206 371 256 404 206 b 636 417 601 206 636 254 l 636 911 b 504 879 603 890 558 879 b 371 913 449 879 404 890 l 371 417 m 433 1057 b 504 993 433 1014 457 993 b 572 1057 550 993 572 1014 b 504 1122 572 1100 549 1122 b 433 1057 458 1122 433 1100 "},"Ũ":{"ha":1007,"x_min":0,"x_max":0,"o":"m 503 -17 b 85 431 200 -17 85 89 l 85 958 l 371 958 l 371 417 b 503 206 371 256 404 206 b 636 417 601 206 636 254 l 636 958 l 922 958 l 922 431 b 503 -17 922 89 806 -17 m 246 1081 b 390 1239 264 1192 317 1239 b 628 1175 483 1239 563 1175 b 713 1224 657 1175 682 1190 l 760 1156 b 615 999 753 1060 688 999 b 378 1061 522 999 443 1061 b 293 1015 346 1061 321 1044 l 246 1081 "},"V":{"ha":992,"x_min":0,"x_max":0,"o":"m 14 958 l 333 958 l 496 308 l 658 958 l 978 958 l 672 0 l 319 0 "},"Ʌ":{"ha":992,"x_min":0,"x_max":0,"o":"m 978 0 l 658 0 l 496 650 l 333 0 l 14 0 l 319 958 l 672 958 "},"W":{"ha":1410,"x_min":0,"x_max":0,"o":"m 14 958 l 347 958 l 446 338 l 547 958 l 867 958 l 963 336 l 1063 958 l 1396 958 l 1149 0 l 815 0 l 706 611 l 594 0 l 261 0 "},"Ẃ":{"ha":1410,"x_min":0,"x_max":0,"o":"m 14 958 l 347 958 l 446 338 l 547 958 l 867 958 l 963 336 l 1063 958 l 1396 958 l 1149 0 l 815 0 l 706 611 l 594 0 l 261 0 m 633 1222 l 904 1222 l 786 1000 l 564 1000 "},"Ŵ":{"ha":1410,"x_min":0,"x_max":0,"o":"m 14 958 l 347 958 l 446 338 l 547 958 l 867 958 l 963 336 l 1063 958 l 1396 958 l 1149 0 l 815 0 l 706 611 l 594 0 l 261 0 m 546 1222 l 865 1222 l 1013 1000 l 756 1000 l 706 1135 l 656 1000 l 399 1000 "},"Ẅ":{"ha":1410,"x_min":0,"x_max":0,"o":"m 14 958 l 347 958 l 446 338 l 547 958 l 867 958 l 963 336 l 1063 958 l 1396 958 l 1149 0 l 815 0 l 706 611 l 594 0 l 261 0 m 410 1093 b 549 1206 410 1168 457 1206 b 685 1093 639 1206 685 1168 b 549 983 685 1018 639 983 b 410 1093 457 983 410 1018 m 726 1093 b 865 1206 726 1168 772 1206 b 1001 1093 956 1206 1001 1168 b 865 983 1001 1018 956 983 b 726 1093 772 983 726 1018 "},"Ẁ":{"ha":1410,"x_min":0,"x_max":0,"o":"m 14 958 l 347 958 l 446 338 l 547 958 l 867 958 l 963 336 l 1063 958 l 1396 958 l 1149 0 l 815 0 l 706 611 l 594 0 l 261 0 m 765 1222 l 833 1000 l 611 1000 l 494 1222 "},"X":{"ha":1013,"x_min":0,"x_max":0,"o":"m 286 499 l 29 958 l 376 958 l 507 661 l 638 958 l 985 958 l 728 499 l 999 0 l 643 0 l 507 331 l 371 0 l 15 0 "},"Y":{"ha":989,"x_min":0,"x_max":0,"o":"m 351 313 l 14 958 l 347 958 l 494 585 l 642 958 l 975 958 l 638 313 l 638 0 l 351 0 "},"Ý":{"ha":989,"x_min":0,"x_max":0,"o":"m 351 313 l 14 958 l 347 958 l 494 585 l 642 958 l 975 958 l 638 313 l 638 0 l 351 0 m 422 1222 l 693 1222 l 575 1000 l 353 1000 "},"Ŷ":{"ha":989,"x_min":0,"x_max":0,"o":"m 351 313 l 14 958 l 347 958 l 494 585 l 642 958 l 975 958 l 638 313 l 638 0 l 351 0 m 335 1222 l 654 1222 l 801 1000 l 544 1000 l 494 1135 l 444 1000 l 188 1000 "},"Ÿ":{"ha":989,"x_min":0,"x_max":0,"o":"m 351 313 l 14 958 l 347 958 l 494 585 l 642 958 l 975 958 l 638 313 l 638 0 l 351 0 m 199 1093 b 338 1206 199 1168 246 1206 b 474 1093 428 1206 474 1168 b 338 983 474 1018 428 983 b 199 1093 246 983 199 1018 m 515 1093 b 654 1206 515 1168 561 1206 b 790 1093 744 1206 790 1168 b 654 983 790 1018 744 983 b 515 1093 561 983 515 1018 "},"Ẏ":{"ha":989,"x_min":0,"x_max":0,"o":"m 351 313 l 14 958 l 347 958 l 494 585 l 642 958 l 975 958 l 638 313 l 638 0 l 351 0 m 358 1086 b 497 1199 358 1161 404 1199 b 633 1086 588 1199 633 1161 b 497 976 633 1011 588 976 b 358 1086 404 976 358 1011 "},"Ỵ":{"ha":989,"x_min":0,"x_max":0,"o":"m 351 313 l 14 958 l 347 958 l 494 585 l 642 958 l 975 958 l 638 313 l 638 0 l 351 0 m 354 -156 b 493 -43 354 -81 400 -43 b 629 -156 583 -43 629 -81 b 493 -265 629 -231 583 -265 b 354 -156 400 -265 354 -231 "},"Ỳ":{"ha":989,"x_min":0,"x_max":0,"o":"m 351 313 l 14 958 l 347 958 l 494 585 l 642 958 l 975 958 l 638 313 l 638 0 l 351 0 m 554 1222 l 622 1000 l 400 1000 l 283 1222 "},"Ỷ":{"ha":989,"x_min":0,"x_max":0,"o":"m 351 313 l 14 958 l 347 958 l 494 585 l 642 958 l 975 958 l 638 313 l 638 0 l 351 0 m 421 1319 b 633 1172 563 1319 633 1250 b 438 976 633 1096 568 1013 l 393 1011 b 435 1093 421 1054 435 1075 b 354 1161 435 1115 414 1133 "},"Ȳ":{"ha":989,"x_min":0,"x_max":0,"o":"m 351 313 l 14 958 l 347 958 l 494 585 l 642 958 l 975 958 l 638 313 l 638 0 l 351 0 m 263 1183 l 735 1183 l 735 1010 l 263 1010 "},"Ỹ":{"ha":989,"x_min":0,"x_max":0,"o":"m 351 313 l 14 958 l 347 958 l 494 585 l 642 958 l 975 958 l 638 313 l 638 0 l 351 0 m 238 1081 b 382 1239 256 1192 308 1239 b 619 1175 475 1239 554 1175 b 704 1224 649 1175 674 1190 l 751 1156 b 607 999 744 1060 679 999 b 369 1061 514 999 435 1061 b 285 1015 338 1061 313 1044 l 238 1081 "},"Z":{"ha":797,"x_min":0,"x_max":0,"o":"m 42 208 l 382 722 l 56 722 l 56 958 l 743 958 l 743 750 l 403 236 l 750 236 l 750 0 l 42 0 "},"Ź":{"ha":797,"x_min":0,"x_max":0,"o":"m 42 208 l 382 722 l 56 722 l 56 958 l 743 958 l 743 750 l 403 236 l 750 236 l 750 0 l 42 0 m 326 1222 l 597 1222 l 479 1000 l 257 1000 "},"Ž":{"ha":797,"x_min":0,"x_max":0,"o":"m 42 208 l 382 722 l 56 722 l 56 958 l 743 958 l 743 750 l 403 236 l 750 236 l 750 0 l 42 0 m 349 1222 l 399 1088 l 449 1222 l 706 1222 l 558 1000 l 239 1000 l 92 1222 "},"Ż":{"ha":797,"x_min":0,"x_max":0,"o":"m 42 208 l 382 722 l 56 722 l 56 958 l 743 958 l 743 750 l 403 236 l 750 236 l 750 0 l 42 0 m 263 1086 b 401 1199 263 1161 308 1199 b 538 1086 492 1199 538 1161 b 401 976 538 1011 492 976 b 263 1086 308 976 263 1011 "},"Ẓ":{"ha":797,"x_min":0,"x_max":0,"o":"m 42 208 l 382 722 l 56 722 l 56 958 l 743 958 l 743 750 l 403 236 l 750 236 l 750 0 l 42 0 m 258 -156 b 397 -43 258 -81 304 -43 b 533 -156 488 -43 533 -81 b 397 -265 533 -231 488 -265 b 258 -156 304 -265 258 -231 "},"Ẕ":{"ha":797,"x_min":0,"x_max":0,"o":"m 42 208 l 382 722 l 56 722 l 56 958 l 743 958 l 743 750 l 403 236 l 750 236 l 750 0 l 42 0 m 163 -56 l 635 -56 l 635 -250 l 163 -250 "},"a":{"ha":758,"x_min":0,"x_max":0,"o":"m 249 -17 b 33 204 104 -17 33 58 b 300 440 33 364 118 440 b 428 425 350 440 392 433 l 428 432 b 307 503 428 476 397 503 b 101 472 258 503 189 492 l 82 672 b 346 711 171 696 268 711 b 697 375 594 711 697 610 l 697 14 l 475 0 l 431 64 b 249 -17 397 10 336 -17 m 306 229 b 363 171 306 190 324 171 b 428 268 407 171 428 197 l 428 285 b 378 288 414 286 397 288 b 306 229 331 288 306 274 "},"á":{"ha":758,"x_min":0,"x_max":0,"o":"m 249 -17 b 33 204 104 -17 33 58 b 300 440 33 364 118 440 b 428 425 350 440 392 433 l 428 432 b 307 503 428 476 397 503 b 101 472 258 503 189 492 l 82 672 b 346 711 171 696 268 711 b 697 375 594 711 697 610 l 697 14 l 475 0 l 431 64 b 249 -17 397 10 336 -17 m 307 958 l 578 958 l 460 736 l 238 736 m 306 229 b 363 171 306 190 324 171 b 428 268 407 171 428 197 l 428 285 b 378 288 414 286 397 288 b 306 229 331 288 306 274 "},"ă":{"ha":758,"x_min":0,"x_max":0,"o":"m 249 -17 b 33 204 104 -17 33 58 b 300 440 33 364 118 440 b 428 425 350 440 392 433 l 428 432 b 307 503 428 476 397 503 b 101 472 258 503 189 492 l 82 672 b 346 711 171 696 268 711 b 697 375 594 711 697 610 l 697 14 l 475 0 l 431 64 b 249 -17 397 10 336 -17 m 300 929 b 381 856 300 879 326 856 b 458 929 433 856 458 879 l 611 928 b 381 722 611 796 531 722 b 147 928 231 722 147 797 m 306 229 b 363 171 306 190 324 171 b 428 268 407 171 428 197 l 428 285 b 378 288 414 286 397 288 b 306 229 331 288 306 274 "},"ắ":{"ha":758,"x_min":0,"x_max":0,"o":"m 249 -17 b 33 204 104 -17 33 58 b 300 440 33 364 118 440 b 428 425 350 440 392 433 l 428 432 b 307 503 428 476 397 503 b 101 472 258 503 189 492 l 82 672 b 346 711 171 696 268 711 b 697 375 594 711 697 610 l 697 14 l 475 0 l 431 64 b 249 -17 397 10 336 -17 m 299 929 b 379 856 299 879 325 856 b 457 929 432 856 457 879 l 610 928 b 379 722 610 796 529 722 b 146 928 229 722 146 797 m 317 1115 l 543 1115 l 444 943 l 258 943 m 306 229 b 363 171 306 190 324 171 b 428 268 407 171 428 197 l 428 285 b 378 288 414 286 397 288 b 306 229 331 288 306 274 "},"ặ":{"ha":758,"x_min":0,"x_max":0,"o":"m 249 -17 b 33 204 104 -17 33 58 b 300 440 33 364 118 440 b 428 425 350 440 392 433 l 428 432 b 307 503 428 476 397 503 b 101 472 258 503 189 492 l 82 672 b 346 711 171 696 268 711 b 697 375 594 711 697 610 l 697 14 l 475 0 l 431 64 b 249 -17 397 10 336 -17 m 300 929 b 381 856 300 879 326 856 b 458 929 433 856 458 879 l 611 928 b 381 722 611 796 531 722 b 147 928 231 722 147 797 m 239 -156 b 378 -43 239 -81 285 -43 b 514 -156 468 -43 514 -81 b 378 -265 514 -231 468 -265 b 239 -156 285 -265 239 -231 m 306 229 b 363 171 306 190 324 171 b 428 268 407 171 428 197 l 428 285 b 378 288 414 286 397 288 b 306 229 331 288 306 274 "},"ằ":{"ha":758,"x_min":0,"x_max":0,"o":"m 249 -17 b 33 204 104 -17 33 58 b 300 440 33 364 118 440 b 428 425 350 440 392 433 l 428 432 b 307 503 428 476 397 503 b 101 472 258 503 189 492 l 82 672 b 346 711 171 696 268 711 b 697 375 594 711 697 610 l 697 14 l 475 0 l 431 64 b 249 -17 397 10 336 -17 m 299 928 b 379 854 299 878 325 854 b 457 928 432 854 457 878 l 610 926 b 379 721 610 794 529 721 b 146 926 229 721 146 796 m 438 1125 l 506 943 l 283 943 l 167 1125 m 306 229 b 363 171 306 190 324 171 b 428 268 407 171 428 197 l 428 285 b 378 288 414 286 397 288 b 306 229 331 288 306 274 "},"ẳ":{"ha":758,"x_min":0,"x_max":0,"o":"m 249 -17 b 33 204 104 -17 33 58 b 300 440 33 364 118 440 b 428 425 350 440 392 433 l 428 432 b 307 503 428 476 397 503 b 101 472 258 503 189 492 l 82 672 b 346 711 171 696 268 711 b 697 375 594 711 697 610 l 697 14 l 475 0 l 431 64 b 249 -17 397 10 336 -17 m 299 929 b 379 856 299 879 325 856 b 457 929 432 856 457 879 l 610 928 b 379 722 610 796 529 722 b 146 928 229 722 146 797 m 304 1225 b 517 1097 446 1225 517 1164 b 321 926 517 1031 451 958 l 276 957 b 318 1028 304 994 318 1013 b 238 1088 318 1047 297 1063 m 306 229 b 363 171 306 190 324 171 b 428 268 407 171 428 197 l 428 285 b 378 288 414 286 397 288 b 306 229 331 288 306 274 "},"ẵ":{"ha":758,"x_min":0,"x_max":0,"o":"m 249 -17 b 33 204 104 -17 33 58 b 300 440 33 364 118 440 b 428 425 350 440 392 433 l 428 432 b 307 503 428 476 397 503 b 101 472 258 503 189 492 l 82 672 b 346 711 171 696 268 711 b 697 375 594 711 697 610 l 697 14 l 475 0 l 431 64 b 249 -17 397 10 336 -17 m 121 1010 b 265 1138 139 1099 192 1138 b 503 1086 358 1138 438 1086 b 588 1125 532 1086 557 1099 l 635 1071 b 490 944 628 993 563 944 b 253 994 397 944 318 994 b 168 957 221 994 196 981 l 121 1010 m 299 929 b 379 856 299 879 325 856 b 457 929 432 856 457 879 l 610 928 b 379 722 610 796 529 722 b 146 928 229 722 146 797 m 306 229 b 363 171 306 190 324 171 b 428 268 407 171 428 197 l 428 285 b 378 288 414 286 397 288 b 306 229 331 288 306 274 "},"ǎ":{"ha":758,"x_min":0,"x_max":0,"o":"m 249 -17 b 33 204 104 -17 33 58 b 300 440 33 364 118 440 b 428 425 350 440 392 433 l 428 432 b 307 503 428 476 397 503 b 101 472 258 503 189 492 l 82 672 b 346 711 171 696 268 711 b 697 375 594 711 697 610 l 697 14 l 475 0 l 431 64 b 249 -17 397 10 336 -17 m 329 958 l 379 824 l 429 958 l 686 958 l 539 736 l 219 736 l 72 958 m 306 229 b 363 171 306 190 324 171 b 428 268 407 171 428 197 l 428 285 b 378 288 414 286 397 288 b 306 229 331 288 306 274 "},"â":{"ha":758,"x_min":0,"x_max":0,"o":"m 249 -17 b 33 204 104 -17 33 58 b 300 440 33 364 118 440 b 428 425 350 440 392 433 l 428 432 b 307 503 428 476 397 503 b 101 472 258 503 189 492 l 82 672 b 346 711 171 696 268 711 b 697 375 594 711 697 610 l 697 14 l 475 0 l 431 64 b 249 -17 397 10 336 -17 m 219 958 l 539 958 l 686 736 l 429 736 l 379 871 l 329 736 l 72 736 m 306 229 b 363 171 306 190 324 171 b 428 268 407 171 428 197 l 428 285 b 378 288 414 286 397 288 b 306 229 331 288 306 274 "},"ấ":{"ha":758,"x_min":0,"x_max":0,"o":"m 249 -17 b 33 204 104 -17 33 58 b 300 440 33 364 118 440 b 428 425 350 440 392 433 l 428 432 b 307 503 428 476 397 503 b 101 472 258 503 189 492 l 82 672 b 346 711 171 696 268 711 b 697 375 594 711 697 610 l 697 14 l 475 0 l 431 64 b 249 -17 397 10 336 -17 m 219 958 l 247 958 l 307 1107 l 578 1107 l 476 958 l 539 958 l 686 736 l 429 736 l 379 871 l 329 736 l 72 736 m 306 229 b 363 171 306 190 324 171 b 428 268 407 171 428 197 l 428 285 b 378 288 414 286 397 288 b 306 229 331 288 306 274 "},"ậ":{"ha":758,"x_min":0,"x_max":0,"o":"m 249 -17 b 33 204 104 -17 33 58 b 300 440 33 364 118 440 b 428 425 350 440 392 433 l 428 432 b 307 503 428 476 397 503 b 101 472 258 503 189 492 l 82 672 b 346 711 171 696 268 711 b 697 375 594 711 697 610 l 697 14 l 475 0 l 431 64 b 249 -17 397 10 336 -17 m 219 958 l 539 958 l 686 736 l 429 736 l 379 871 l 329 736 l 72 736 m 239 -156 b 378 -43 239 -81 285 -43 b 514 -156 468 -43 514 -81 b 378 -265 514 -231 468 -265 b 239 -156 285 -265 239 -231 m 306 229 b 363 171 306 190 324 171 b 428 268 407 171 428 197 l 428 285 b 378 288 414 286 397 288 b 306 229 331 288 306 274 "},"ầ":{"ha":758,"x_min":0,"x_max":0,"o":"m 249 -17 b 33 204 104 -17 33 58 b 300 440 33 364 118 440 b 428 425 350 440 392 433 l 428 432 b 307 503 428 476 397 503 b 101 472 258 503 189 492 l 82 672 b 346 711 171 696 268 711 b 697 375 594 711 697 610 l 697 14 l 475 0 l 431 64 b 249 -17 397 10 336 -17 m 219 958 l 269 958 l 168 1113 l 439 1113 l 497 958 l 539 958 l 686 736 l 429 736 l 379 871 l 329 736 l 72 736 m 306 229 b 363 171 306 190 324 171 b 428 268 407 171 428 197 l 428 285 b 378 288 414 286 397 288 b 306 229 331 288 306 274 "},"ẩ":{"ha":758,"x_min":0,"x_max":0,"o":"m 249 -17 b 33 204 104 -17 33 58 b 300 440 33 364 118 440 b 428 425 350 440 392 433 l 428 432 b 307 503 428 476 397 503 b 101 472 258 503 189 492 l 82 672 b 346 711 171 696 268 711 b 697 375 594 711 697 610 l 697 14 l 475 0 l 431 64 b 249 -17 397 10 336 -17 m 219 958 l 281 958 b 319 1036 307 999 319 1018 b 239 1104 319 1058 299 1076 l 306 1263 b 518 1115 447 1263 518 1193 b 414 958 518 1060 483 1000 l 539 958 l 686 736 l 429 736 l 379 871 l 329 736 l 72 736 m 306 229 b 363 171 306 190 324 171 b 428 268 407 171 428 197 l 428 285 b 378 288 414 286 397 288 b 306 229 331 288 306 274 "},"ẫ":{"ha":758,"x_min":0,"x_max":0,"o":"m 249 -17 b 33 204 104 -17 33 58 b 300 440 33 364 118 440 b 428 425 350 440 392 433 l 428 432 b 307 503 428 476 397 503 b 101 472 258 503 189 492 l 82 672 b 346 711 171 696 268 711 b 697 375 594 711 697 610 l 697 14 l 475 0 l 431 64 b 249 -17 397 10 336 -17 m 211 958 l 392 958 b 257 1004 342 976 296 1004 b 181 958 229 1004 206 988 l 138 1024 b 268 1182 154 1135 201 1182 b 483 1118 353 1182 425 1118 b 561 1167 511 1118 533 1133 l 604 1099 b 531 958 600 1032 569 983 l 678 736 l 421 736 l 371 871 l 321 736 l 64 736 m 306 229 b 363 171 306 190 324 171 b 428 268 407 171 428 197 l 428 285 b 378 288 414 286 397 288 b 306 229 331 288 306 274 "},"ä":{"ha":758,"x_min":0,"x_max":0,"o":"m 249 -17 b 33 204 104 -17 33 58 b 300 440 33 364 118 440 b 428 425 350 440 392 433 l 428 432 b 307 503 428 476 397 503 b 101 472 258 503 189 492 l 82 672 b 346 711 171 696 268 711 b 697 375 594 711 697 610 l 697 14 l 475 0 l 431 64 b 249 -17 397 10 336 -17 m 83 829 b 222 942 83 904 131 942 b 358 829 313 942 358 904 b 222 719 358 754 313 719 b 83 829 131 719 83 754 m 306 229 b 363 171 306 190 324 171 b 428 268 407 171 428 197 l 428 285 b 378 288 414 286 397 288 b 306 229 331 288 306 274 m 400 829 b 539 942 400 904 446 942 b 675 829 629 942 675 904 b 539 719 675 754 629 719 b 400 829 446 719 400 754 "},"ǟ":{"ha":758,"x_min":0,"x_max":0,"o":"m 249 -17 b 33 204 104 -17 33 58 b 300 440 33 364 118 440 b 428 425 350 440 392 433 l 428 432 b 307 503 428 476 397 503 b 101 472 258 503 189 492 l 82 672 b 346 711 171 696 268 711 b 697 375 594 711 697 610 l 697 14 l 475 0 l 431 64 b 249 -17 397 10 336 -17 m 83 829 b 222 942 83 904 131 942 b 358 829 313 942 358 904 b 222 719 358 754 313 719 b 83 829 131 719 83 754 m 147 1136 l 619 1136 l 619 963 l 147 963 m 306 229 b 363 171 306 190 324 171 b 428 268 407 171 428 197 l 428 285 b 378 288 414 286 397 288 b 306 229 331 288 306 274 m 400 829 b 539 942 400 904 446 942 b 675 829 629 942 675 904 b 539 719 675 754 629 719 b 400 829 446 719 400 754 "},"ạ":{"ha":758,"x_min":0,"x_max":0,"o":"m 249 -17 b 33 204 104 -17 33 58 b 300 440 33 364 118 440 b 428 425 350 440 392 433 l 428 432 b 307 503 428 476 397 503 b 101 472 258 503 189 492 l 82 672 b 346 711 171 696 268 711 b 697 375 594 711 697 610 l 697 14 l 475 0 l 431 64 b 249 -17 397 10 336 -17 m 239 -156 b 378 -43 239 -81 285 -43 b 514 -156 468 -43 514 -81 b 378 -265 514 -231 468 -265 b 239 -156 285 -265 239 -231 m 306 229 b 363 171 306 190 324 171 b 428 268 407 171 428 197 l 428 285 b 378 288 414 286 397 288 b 306 229 331 288 306 274 "},"à":{"ha":758,"x_min":0,"x_max":0,"o":"m 249 -17 b 33 204 104 -17 33 58 b 300 440 33 364 118 440 b 428 425 350 440 392 433 l 428 432 b 307 503 428 476 397 503 b 101 472 258 503 189 492 l 82 672 b 346 711 171 696 268 711 b 697 375 594 711 697 610 l 697 14 l 475 0 l 431 64 b 249 -17 397 10 336 -17 m 439 958 l 507 736 l 285 736 l 168 958 m 306 229 b 363 171 306 190 324 171 b 428 268 407 171 428 197 l 428 285 b 378 288 414 286 397 288 b 306 229 331 288 306 274 "},"ả":{"ha":758,"x_min":0,"x_max":0,"o":"m 249 -17 b 33 204 104 -17 33 58 b 300 440 33 364 118 440 b 428 425 350 440 392 433 l 428 432 b 307 503 428 476 397 503 b 101 472 258 503 189 492 l 82 672 b 346 711 171 696 268 711 b 697 375 594 711 697 610 l 697 14 l 475 0 l 431 64 b 249 -17 397 10 336 -17 m 306 1056 b 518 908 447 1056 518 986 b 322 713 518 832 453 749 l 278 747 b 319 829 306 790 319 811 b 239 897 319 851 299 869 m 306 229 b 363 171 306 190 324 171 b 428 268 407 171 428 197 l 428 285 b 378 288 414 286 397 288 b 306 229 331 288 306 274 "},"ɑ":{"ha":814,"x_min":0,"x_max":0,"o":"m 322 -17 b 47 326 144 -17 47 104 b 432 711 47 582 176 711 b 753 658 540 711 656 692 l 753 14 l 544 0 l 500 64 b 322 -17 467 10 406 -17 m 319 347 b 413 192 319 242 349 192 b 483 290 457 192 483 217 l 483 501 b 444 503 471 503 457 503 b 319 347 354 503 319 458 "},"ā":{"ha":758,"x_min":0,"x_max":0,"o":"m 249 -17 b 33 204 104 -17 33 58 b 300 440 33 364 118 440 b 428 425 350 440 392 433 l 428 432 b 307 503 428 476 397 503 b 101 472 258 503 189 492 l 82 672 b 346 711 171 696 268 711 b 697 375 594 711 697 610 l 697 14 l 475 0 l 431 64 b 249 -17 397 10 336 -17 m 147 919 l 619 919 l 619 746 l 147 746 m 306 229 b 363 171 306 190 324 171 b 428 268 407 171 428 197 l 428 285 b 378 288 414 286 397 288 b 306 229 331 288 306 274 "},"ą":{"ha":758,"x_min":0,"x_max":0,"o":"m 249 -17 b 33 204 104 -17 33 58 b 300 440 33 364 118 440 b 428 425 350 440 392 433 l 428 432 b 307 503 428 476 397 503 b 101 472 258 503 189 492 l 82 672 b 346 711 171 696 268 711 b 697 375 594 711 697 610 l 697 14 l 682 13 b 640 -68 654 -29 640 -50 b 721 -136 640 -90 661 -108 l 654 -294 b 442 -147 513 -294 442 -225 b 536 4 442 -94 474 -37 l 475 0 l 431 64 b 249 -17 397 10 336 -17 m 306 229 b 363 171 306 190 324 171 b 428 268 407 171 428 197 l 428 285 b 378 288 414 286 397 288 b 306 229 331 288 306 274 "},"å":{"ha":758,"x_min":0,"x_max":0,"o":"m 249 -17 b 33 204 104 -17 33 58 b 300 440 33 364 118 440 b 428 425 350 440 392 433 l 428 432 b 307 503 428 476 397 503 b 101 472 258 503 189 492 l 82 672 b 200 697 121 682 161 692 b 178 792 186 724 178 754 b 381 974 178 907 251 974 b 581 792 510 974 581 908 b 546 678 581 744 568 706 b 697 375 651 631 697 532 l 697 14 l 475 0 l 431 64 b 249 -17 397 10 336 -17 m 306 229 b 363 171 306 190 324 171 b 428 268 407 171 428 197 l 428 285 b 378 288 414 286 397 288 b 306 229 331 288 306 274 m 310 793 b 381 729 310 750 333 729 b 449 793 426 729 449 750 b 381 858 449 836 425 858 b 310 793 335 858 310 836 "},"ǻ":{"ha":758,"x_min":0,"x_max":0,"o":"m 249 -17 b 33 204 104 -17 33 58 b 300 440 33 364 118 440 b 428 425 350 440 392 433 l 428 432 b 307 503 428 476 397 503 b 101 472 258 503 189 492 l 82 672 b 200 697 121 682 161 692 b 178 792 186 724 178 754 b 381 974 178 907 251 974 b 581 792 510 974 581 908 b 546 678 581 744 568 706 b 697 375 651 631 697 532 l 697 14 l 475 0 l 431 64 b 249 -17 397 10 336 -17 m 307 1238 l 578 1238 l 460 1015 l 238 1015 m 306 229 b 363 171 306 190 324 171 b 428 268 407 171 428 197 l 428 285 b 378 288 414 286 397 288 b 306 229 331 288 306 274 m 310 793 b 381 729 310 750 333 729 b 449 793 426 729 449 750 b 381 858 449 836 425 858 b 310 793 335 858 310 836 "},"ã":{"ha":758,"x_min":0,"x_max":0,"o":"m 249 -17 b 33 204 104 -17 33 58 b 300 440 33 364 118 440 b 428 425 350 440 392 433 l 428 432 b 307 503 428 476 397 503 b 101 472 258 503 189 492 l 82 672 b 346 711 171 696 268 711 b 697 375 594 711 697 610 l 697 14 l 475 0 l 431 64 b 249 -17 397 10 336 -17 m 122 817 b 267 975 140 928 193 975 b 504 911 360 975 439 911 b 589 960 533 911 558 926 l 636 892 b 492 735 629 796 564 735 b 254 797 399 735 319 797 b 169 751 222 797 197 781 l 122 817 m 306 229 b 363 171 306 190 324 171 b 428 268 407 171 428 197 l 428 285 b 378 288 414 286 397 288 b 306 229 331 288 306 274 "},"æ":{"ha":1164,"x_min":0,"x_max":0,"o":"m 249 -17 b 33 204 104 -17 33 58 b 300 440 33 364 118 440 b 428 425 350 440 392 433 l 428 432 b 307 503 428 476 397 503 b 101 472 258 503 189 492 l 82 672 b 346 711 171 696 268 711 b 572 663 442 711 517 694 b 783 711 626 694 697 711 b 1119 379 1006 711 1119 599 b 1108 261 1119 336 1114 281 l 717 261 b 865 192 736 208 781 192 b 1081 224 951 192 1022 211 l 1100 22 b 813 -17 1026 0 908 -17 b 499 104 664 -17 560 24 b 249 -17 464 50 403 -17 m 306 229 b 363 171 306 190 324 171 b 428 268 407 171 428 197 l 428 285 b 378 288 414 286 397 288 b 306 229 331 288 306 274 m 850 433 b 781 503 840 483 824 503 b 711 433 744 503 721 483 "},"ǽ":{"ha":1164,"x_min":0,"x_max":0,"o":"m 249 -17 b 33 204 104 -17 33 58 b 300 440 33 364 118 440 b 428 425 350 440 392 433 l 428 432 b 307 503 428 476 397 503 b 101 472 258 503 189 492 l 82 672 b 346 711 171 696 268 711 b 572 663 442 711 517 694 b 783 711 626 694 697 711 b 1119 379 1006 711 1119 599 b 1108 261 1119 336 1114 281 l 717 261 b 865 192 736 208 781 192 b 1081 224 951 192 1022 211 l 1100 22 b 813 -17 1026 0 908 -17 b 499 104 664 -17 560 24 b 249 -17 464 50 403 -17 m 306 229 b 363 171 306 190 324 171 b 428 268 407 171 428 197 l 428 285 b 378 288 414 286 397 288 b 306 229 331 288 306 274 m 506 958 l 776 958 l 658 736 l 436 736 m 850 433 b 781 503 840 483 824 503 b 711 433 744 503 721 483 "},"ǣ":{"ha":1164,"x_min":0,"x_max":0,"o":"m 249 -17 b 33 204 104 -17 33 58 b 300 440 33 364 118 440 b 428 425 350 440 392 433 l 428 432 b 307 503 428 476 397 503 b 101 472 258 503 189 492 l 82 672 b 346 711 171 696 268 711 b 572 663 442 711 517 694 b 783 711 626 694 697 711 b 1119 379 1006 711 1119 599 b 1108 261 1119 336 1114 281 l 717 261 b 865 192 736 208 781 192 b 1081 224 951 192 1022 211 l 1100 22 b 813 -17 1026 0 908 -17 b 499 104 664 -17 560 24 b 249 -17 464 50 403 -17 m 306 229 b 363 171 306 190 324 171 b 428 268 407 171 428 197 l 428 285 b 378 288 414 286 397 288 b 306 229 331 288 306 274 m 346 919 l 818 919 l 818 746 l 346 746 m 850 433 b 781 503 840 483 824 503 b 711 433 744 503 721 483 "},"b":{"ha":817,"x_min":0,"x_max":0,"o":"m 385 -17 b 64 36 275 -17 161 3 l 64 986 l 333 986 l 333 701 b 443 711 368 707 406 711 b 769 347 646 711 769 596 b 385 -17 769 97 638 -17 m 333 193 b 372 192 346 192 358 192 b 500 347 464 192 500 235 b 372 503 500 460 464 503 b 333 500 360 503 347 501 l 333 193 "},"ḅ":{"ha":817,"x_min":0,"x_max":0,"o":"m 385 -17 b 64 36 275 -17 161 3 l 64 986 l 333 986 l 333 701 b 443 711 368 707 406 711 b 769 347 646 711 769 596 b 385 -17 769 97 638 -17 m 268 -156 b 407 -43 268 -81 314 -43 b 543 -156 497 -43 543 -81 b 407 -265 543 -231 497 -265 b 268 -156 314 -265 268 -231 m 333 193 b 372 192 346 192 358 192 b 500 347 464 192 500 235 b 372 503 500 460 464 503 b 333 500 360 503 347 501 l 333 193 "},"c":{"ha":638,"x_min":0,"x_max":0,"o":"m 401 -17 b 47 347 171 -17 47 97 b 401 711 47 596 171 711 b 604 686 464 711 553 701 l 585 486 b 447 503 554 494 500 503 b 319 347 356 503 319 460 b 447 192 319 235 356 192 b 585 210 501 192 554 201 l 604 8 b 401 -17 553 -6 467 -17 "},"ć":{"ha":638,"x_min":0,"x_max":0,"o":"m 401 -17 b 47 347 171 -17 47 97 b 401 711 47 596 171 711 b 604 686 464 711 553 701 l 585 486 b 447 503 554 494 500 503 b 319 347 356 503 319 460 b 447 192 319 235 356 192 b 585 210 501 192 554 201 l 604 8 b 401 -17 553 -6 467 -17 m 300 958 l 571 958 l 453 736 l 231 736 "},"č":{"ha":638,"x_min":0,"x_max":0,"o":"m 401 -17 b 47 347 171 -17 47 97 b 401 711 47 596 171 711 b 604 686 464 711 553 701 l 585 486 b 447 503 554 494 500 503 b 319 347 356 503 319 460 b 447 192 319 235 356 192 b 585 210 501 192 554 201 l 604 8 b 401 -17 553 -6 467 -17 m 322 958 l 372 824 l 422 958 l 679 958 l 532 736 l 213 736 l 65 958 "},"ç":{"ha":638,"x_min":0,"x_max":0,"o":"m 222 -150 b 328 -44 286 -121 328 -97 b 324 -11 328 -35 326 -24 b 47 347 143 13 47 128 b 401 711 47 596 171 711 b 604 686 464 711 553 701 l 585 486 b 447 503 554 494 500 503 b 319 347 356 503 319 460 b 447 192 319 235 356 192 b 585 210 501 192 554 201 l 604 8 b 450 -15 565 -3 506 -11 b 514 -143 492 -51 514 -97 b 289 -308 514 -228 440 -308 l 222 -150 "},"ĉ":{"ha":638,"x_min":0,"x_max":0,"o":"m 401 -17 b 47 347 171 -17 47 97 b 401 711 47 596 171 711 b 604 686 464 711 553 701 l 585 486 b 447 503 554 494 500 503 b 319 347 356 503 319 460 b 447 192 319 235 356 192 b 585 210 501 192 554 201 l 604 8 b 401 -17 553 -6 467 -17 m 213 958 l 532 958 l 679 736 l 422 736 l 372 871 l 322 736 l 65 736 "},"ċ":{"ha":638,"x_min":0,"x_max":0,"o":"m 401 -17 b 47 347 171 -17 47 97 b 401 711 47 596 171 711 b 604 686 464 711 553 701 l 585 486 b 447 503 554 494 500 503 b 319 347 356 503 319 460 b 447 192 319 235 356 192 b 585 210 501 192 554 201 l 604 8 b 401 -17 553 -6 467 -17 m 236 822 b 375 935 236 897 282 935 b 511 822 465 935 511 897 b 375 713 511 747 465 713 b 236 822 282 713 236 747 "},"d":{"ha":817,"x_min":0,"x_max":0,"o":"m 432 -17 b 47 347 179 -17 47 97 b 374 711 47 596 171 711 b 483 701 411 711 449 707 l 483 986 l 753 986 l 753 36 b 432 -17 656 3 540 -17 m 317 347 b 444 192 317 235 353 192 b 483 193 457 192 471 192 l 483 500 b 444 503 469 501 456 503 b 317 347 353 503 317 460 "},"ð":{"ha":751,"x_min":0,"x_max":0,"o":"m 369 -17 b 56 331 165 -17 56 99 b 231 643 56 511 121 603 b 410 671 282 661 342 669 b 342 783 410 743 392 775 l 342 710 l 213 710 l 213 772 b 106 742 167 761 125 749 l 81 972 b 213 997 118 981 161 990 l 213 1069 l 342 1069 l 342 1007 l 344 1007 b 696 669 588 1007 696 903 l 696 349 b 369 -17 696 99 574 -17 m 328 294 b 369 192 328 228 339 192 b 410 349 400 192 410 233 l 410 461 b 361 435 392 458 375 451 b 328 294 340 410 328 367 "},"ď":{"ha":817,"x_min":0,"x_max":0,"o":"m 432 -17 b 47 347 179 -17 47 97 b 374 711 47 596 171 711 b 483 701 411 711 449 707 l 483 986 l 753 986 l 753 36 b 432 -17 656 3 540 -17 m 317 347 b 444 192 317 235 353 192 b 483 193 457 192 471 192 l 483 500 b 444 503 469 501 456 503 b 317 347 353 503 317 460 m 817 904 b 975 1043 817 993 874 1043 b 1144 869 1086 1043 1144 983 b 838 600 1144 718 1039 614 l 828 711 b 935 778 889 724 924 744 b 817 904 853 783 817 835 "},"ḓ":{"ha":817,"x_min":0,"x_max":0,"o":"m 432 -17 b 47 347 179 -17 47 97 b 374 711 47 596 171 711 b 483 701 411 711 449 707 l 483 986 l 753 986 l 753 36 b 432 -17 656 3 540 -17 m 286 -44 l 606 -44 l 753 -267 l 496 -267 l 446 -132 l 396 -267 l 139 -267 m 317 347 b 444 192 317 235 353 192 b 483 193 457 192 471 192 l 483 500 b 444 503 469 501 456 503 b 317 347 353 503 317 460 "},"đ":{"ha":850,"x_min":0,"x_max":0,"o":"m 432 -17 b 47 347 179 -17 47 97 b 374 711 47 596 171 711 b 483 701 411 711 449 707 l 483 751 l 374 751 l 374 946 l 483 946 l 483 986 l 753 986 l 753 946 l 836 946 l 836 751 l 753 751 l 753 36 b 432 -17 656 3 540 -17 m 317 347 b 444 192 317 235 353 192 b 483 193 457 192 471 192 l 483 500 b 444 503 469 501 456 503 b 317 347 353 503 317 460 "},"ḍ":{"ha":817,"x_min":0,"x_max":0,"o":"m 432 -17 b 47 347 179 -17 47 97 b 374 711 47 596 171 711 b 483 701 411 711 449 707 l 483 986 l 753 986 l 753 36 b 432 -17 656 3 540 -17 m 306 -172 b 444 -60 306 -97 351 -60 b 581 -172 535 -60 581 -97 b 444 -282 581 -247 535 -282 b 306 -172 351 -282 306 -247 m 317 347 b 444 192 317 235 353 192 b 483 193 457 192 471 192 l 483 500 b 444 503 469 501 456 503 b 317 347 353 503 317 460 "},"ḏ":{"ha":817,"x_min":0,"x_max":0,"o":"m 432 -17 b 47 347 179 -17 47 97 b 374 711 47 596 171 711 b 483 701 411 711 449 707 l 483 986 l 753 986 l 753 36 b 432 -17 656 3 540 -17 m 210 -72 l 682 -72 l 682 -267 l 210 -267 m 317 347 b 444 192 317 235 353 192 b 483 193 457 192 471 192 l 483 500 b 444 503 469 501 456 503 b 317 347 353 503 317 460 "},"e":{"ha":779,"x_min":0,"x_max":0,"o":"m 428 -17 b 47 350 171 -17 47 103 b 399 711 47 590 164 711 b 735 379 621 711 735 599 b 724 261 735 336 729 281 l 332 261 b 481 192 351 208 396 192 b 696 224 567 192 638 211 l 715 22 b 428 -17 642 0 524 -17 m 465 433 b 396 503 456 483 439 503 b 326 433 360 503 336 483 "},"é":{"ha":779,"x_min":0,"x_max":0,"o":"m 428 -17 b 47 350 171 -17 47 103 b 399 711 47 590 164 711 b 735 379 621 711 735 599 b 724 261 735 336 729 281 l 332 261 b 481 192 351 208 396 192 b 696 224 567 192 638 211 l 715 22 b 428 -17 642 0 524 -17 m 318 958 l 589 958 l 471 736 l 249 736 m 465 433 b 396 503 456 483 439 503 b 326 433 360 503 336 483 "},"ě":{"ha":779,"x_min":0,"x_max":0,"o":"m 428 -17 b 47 350 171 -17 47 103 b 399 711 47 590 164 711 b 735 379 621 711 735 599 b 724 261 735 336 729 281 l 332 261 b 481 192 351 208 396 192 b 696 224 567 192 638 211 l 715 22 b 428 -17 642 0 524 -17 m 340 958 l 390 824 l 440 958 l 697 958 l 550 736 l 231 736 l 83 958 m 465 433 b 396 503 456 483 439 503 b 326 433 360 503 336 483 "},"ȩ":{"ha":779,"x_min":0,"x_max":0,"o":"m 465 433 b 396 503 456 483 439 503 b 326 433 360 503 336 483 l 465 433 m 47 350 b 399 711 47 590 164 711 b 735 379 621 711 735 599 b 724 261 735 336 729 281 l 332 261 b 481 192 351 208 396 192 b 696 224 567 192 638 211 l 715 22 b 486 -15 656 4 568 -10 b 550 -143 528 -51 550 -97 b 325 -308 550 -228 476 -308 l 258 -150 b 364 -44 322 -121 364 -97 b 360 -14 364 -36 363 -25 b 47 350 149 7 47 126 "},"ê":{"ha":779,"x_min":0,"x_max":0,"o":"m 428 -17 b 47 350 171 -17 47 103 b 399 711 47 590 164 711 b 735 379 621 711 735 599 b 724 261 735 336 729 281 l 332 261 b 481 192 351 208 396 192 b 696 224 567 192 638 211 l 715 22 b 428 -17 642 0 524 -17 m 231 958 l 550 958 l 697 736 l 440 736 l 390 871 l 340 736 l 83 736 m 465 433 b 396 503 456 483 439 503 b 326 433 360 503 336 483 "},"ế":{"ha":779,"x_min":0,"x_max":0,"o":"m 428 -17 b 47 350 171 -17 47 103 b 399 711 47 590 164 711 b 735 379 621 711 735 599 b 724 261 735 336 729 281 l 332 261 b 481 192 351 208 396 192 b 696 224 567 192 638 211 l 715 22 b 428 -17 642 0 524 -17 m 231 958 l 258 958 l 318 1107 l 589 1107 l 488 958 l 550 958 l 697 736 l 440 736 l 390 871 l 340 736 l 83 736 m 465 433 b 396 503 456 483 439 503 b 326 433 360 503 336 483 "},"ệ":{"ha":779,"x_min":0,"x_max":0,"o":"m 428 -17 b 47 350 171 -17 47 103 b 399 711 47 590 164 711 b 735 379 621 711 735 599 b 724 261 735 336 729 281 l 332 261 b 481 192 351 208 396 192 b 696 224 567 192 638 211 l 715 22 b 428 -17 642 0 524 -17 m 231 958 l 550 958 l 697 736 l 440 736 l 390 871 l 340 736 l 83 736 m 264 -156 b 403 -43 264 -81 310 -43 b 539 -156 493 -43 539 -81 b 403 -265 539 -231 493 -265 b 264 -156 310 -265 264 -231 m 465 433 b 396 503 456 483 439 503 b 326 433 360 503 336 483 "},"ề":{"ha":779,"x_min":0,"x_max":0,"o":"m 428 -17 b 47 350 171 -17 47 103 b 399 711 47 590 164 711 b 735 379 621 711 735 599 b 724 261 735 336 729 281 l 332 261 b 481 192 351 208 396 192 b 696 224 567 192 638 211 l 715 22 b 428 -17 642 0 524 -17 m 231 958 l 281 958 l 179 1113 l 450 1113 l 508 958 l 550 958 l 697 736 l 440 736 l 390 871 l 340 736 l 83 736 m 465 433 b 396 503 456 483 439 503 b 326 433 360 503 336 483 "},"ể":{"ha":779,"x_min":0,"x_max":0,"o":"m 428 -17 b 47 350 171 -17 47 103 b 399 711 47 590 164 711 b 735 379 621 711 735 599 b 724 261 735 336 729 281 l 332 261 b 481 192 351 208 396 192 b 696 224 567 192 638 211 l 715 22 b 428 -17 642 0 524 -17 m 231 958 l 292 958 b 331 1036 318 999 331 1018 b 250 1104 331 1058 310 1076 l 317 1263 b 529 1115 458 1263 529 1193 b 425 958 529 1060 494 1000 l 550 958 l 697 736 l 440 736 l 390 871 l 340 736 l 83 736 m 465 433 b 396 503 456 483 439 503 b 326 433 360 503 336 483 "},"ễ":{"ha":779,"x_min":0,"x_max":0,"o":"m 428 -17 b 47 350 171 -17 47 103 b 399 711 47 590 164 711 b 735 379 621 711 735 599 b 724 261 735 336 729 281 l 332 261 b 481 192 351 208 396 192 b 696 224 567 192 638 211 l 715 22 b 428 -17 642 0 524 -17 m 222 958 l 403 958 b 268 1004 353 976 307 1004 b 192 958 240 1004 217 988 l 149 1024 b 279 1182 165 1135 213 1182 b 494 1118 364 1182 436 1118 b 572 1167 522 1118 544 1133 l 615 1099 b 542 958 611 1032 581 983 l 689 736 l 432 736 l 382 871 l 332 736 l 75 736 m 465 433 b 396 503 456 483 439 503 b 326 433 360 503 336 483 "},"ë":{"ha":779,"x_min":0,"x_max":0,"o":"m 428 -17 b 47 350 171 -17 47 103 b 399 711 47 590 164 711 b 735 379 621 711 735 599 b 724 261 735 336 729 281 l 332 261 b 481 192 351 208 396 192 b 696 224 567 192 638 211 l 715 22 b 428 -17 642 0 524 -17 m 94 829 b 233 942 94 904 142 942 b 369 829 324 942 369 904 b 233 719 369 754 324 719 b 94 829 142 719 94 754 m 465 433 b 396 503 456 483 439 503 b 326 433 360 503 336 483 m 411 829 b 550 942 411 904 457 942 b 686 829 640 942 686 904 b 550 719 686 754 640 719 b 411 829 457 719 411 754 "},"ė":{"ha":779,"x_min":0,"x_max":0,"o":"m 428 -17 b 47 350 171 -17 47 103 b 399 711 47 590 164 711 b 735 379 621 711 735 599 b 724 261 735 336 729 281 l 332 261 b 481 192 351 208 396 192 b 696 224 567 192 638 211 l 715 22 b 428 -17 642 0 524 -17 m 254 822 b 393 935 254 897 300 935 b 529 822 483 935 529 897 b 393 713 529 747 483 713 b 254 822 300 713 254 747 m 465 433 b 396 503 456 483 439 503 b 326 433 360 503 336 483 "},"ẹ":{"ha":779,"x_min":0,"x_max":0,"o":"m 428 -17 b 47 350 171 -17 47 103 b 399 711 47 590 164 711 b 735 379 621 711 735 599 b 724 261 735 336 729 281 l 332 261 b 481 192 351 208 396 192 b 696 224 567 192 638 211 l 715 22 b 428 -17 642 0 524 -17 m 264 -156 b 403 -43 264 -81 310 -43 b 539 -156 493 -43 539 -81 b 403 -265 539 -231 493 -265 b 264 -156 310 -265 264 -231 m 465 433 b 396 503 456 483 439 503 b 326 433 360 503 336 483 "},"è":{"ha":779,"x_min":0,"x_max":0,"o":"m 428 -17 b 47 350 171 -17 47 103 b 399 711 47 590 164 711 b 735 379 621 711 735 599 b 724 261 735 336 729 281 l 332 261 b 481 192 351 208 396 192 b 696 224 567 192 638 211 l 715 22 b 428 -17 642 0 524 -17 m 450 958 l 518 736 l 296 736 l 179 958 m 465 433 b 396 503 456 483 439 503 b 326 433 360 503 336 483 "},"ẻ":{"ha":779,"x_min":0,"x_max":0,"o":"m 428 -17 b 47 350 171 -17 47 103 b 399 711 47 590 164 711 b 735 379 621 711 735 599 b 724 261 735 336 729 281 l 332 261 b 481 192 351 208 396 192 b 696 224 567 192 638 211 l 715 22 b 428 -17 642 0 524 -17 m 317 1056 b 529 908 458 1056 529 986 b 333 713 529 832 464 749 l 289 747 b 331 829 317 790 331 811 b 250 897 331 851 310 869 m 465 433 b 396 503 456 483 439 503 b 326 433 360 503 336 483 "},"ē":{"ha":779,"x_min":0,"x_max":0,"o":"m 428 -17 b 47 350 171 -17 47 103 b 399 711 47 590 164 711 b 735 379 621 711 735 599 b 724 261 735 336 729 281 l 332 261 b 481 192 351 208 396 192 b 696 224 567 192 638 211 l 715 22 b 428 -17 642 0 524 -17 m 158 919 l 631 919 l 631 746 l 158 746 m 465 433 b 396 503 456 483 439 503 b 326 433 360 503 336 483 "},"ę":{"ha":779,"x_min":0,"x_max":0,"o":"m 428 -17 b 47 350 171 -17 47 103 b 399 711 47 590 164 711 b 735 379 621 711 735 599 b 724 261 735 336 729 281 l 332 261 b 481 192 351 208 396 192 b 696 224 567 192 638 211 l 715 22 b 643 6 694 15 669 10 b 614 -58 624 -26 614 -43 b 694 -126 614 -81 635 -99 l 628 -285 b 415 -137 486 -285 415 -215 b 474 -15 415 -96 435 -53 b 428 -17 457 -17 443 -17 m 465 433 b 396 503 456 483 439 503 b 326 433 360 503 336 483 "},"ɛ":{"ha":811,"x_min":0,"x_max":0,"o":"m 436 -12 b 42 201 178 -12 42 50 b 203 368 42 292 93 351 b 78 522 117 389 78 443 b 443 713 78 643 190 713 b 717 688 540 713 633 703 l 690 518 b 476 550 654 526 563 550 b 371 493 406 550 371 533 b 481 436 371 453 411 436 l 550 436 l 550 276 l 481 276 b 336 217 390 276 336 261 b 461 150 336 171 369 150 b 744 208 600 150 706 196 l 769 39 b 436 -12 700 21 599 -12 "},"ʃ":{"ha":397,"x_min":0,"x_max":0,"o":"m 65 -308 b -89 -292 10 -308 -40 -301 l -69 -86 b -26 -89 -53 -87 -39 -89 b 57 7 49 -89 56 -62 l 71 719 b 332 1042 75 956 142 1042 b 486 1025 388 1042 438 1035 l 467 821 b 425 822 451 821 436 822 b 340 728 349 822 342 796 l 326 14 b 65 -308 322 -222 256 -308 "},"ẽ":{"ha":779,"x_min":0,"x_max":0,"o":"m 428 -17 b 47 350 171 -17 47 103 b 399 711 47 590 164 711 b 735 379 621 711 735 599 b 724 261 735 336 729 281 l 332 261 b 481 192 351 208 396 192 b 696 224 567 192 638 211 l 715 22 b 428 -17 642 0 524 -17 m 133 817 b 278 975 151 928 204 975 b 515 911 371 975 450 911 b 600 960 544 911 569 926 l 647 892 b 503 735 640 796 575 735 b 265 797 410 735 331 797 b 181 751 233 797 208 781 l 133 817 m 465 433 b 396 503 456 483 439 503 b 326 433 360 503 336 483 "},"ǝ":{"ha":779,"x_min":0,"x_max":0,"o":"m 351 711 b 732 344 608 711 732 592 b 381 -17 732 104 615 -17 b 44 315 158 -17 44 96 b 56 433 44 358 50 414 l 447 433 b 299 503 428 486 383 503 b 83 471 213 503 142 483 l 64 672 b 351 711 138 694 256 711 m 314 261 b 383 192 324 211 340 192 b 453 261 419 192 443 211 l 314 261 "},"ə":{"ha":779,"x_min":0,"x_max":0,"o":"m 351 711 b 732 344 608 711 732 592 b 381 -17 732 104 615 -17 b 44 315 158 -17 44 96 b 56 433 44 358 50 414 l 447 433 b 299 503 428 486 383 503 b 83 471 213 503 142 483 l 64 672 b 351 711 138 694 256 711 m 314 261 b 383 192 324 211 340 192 b 453 261 419 192 443 211 l 314 261 "},"ʒ":{"ha":642,"x_min":0,"x_max":0,"o":"m 286 -281 b -14 -211 140 -281 49 -236 l 8 21 b 264 -58 43 4 139 -58 b 376 32 346 -58 376 -31 b 246 114 376 93 328 114 l 133 114 l 133 319 l 246 319 l 260 319 l 343 458 l -1 458 l -1 694 l 618 694 l 618 486 l 497 283 b 642 39 603 242 642 161 b 286 -281 642 -168 518 -281 "},"ǯ":{"ha":642,"x_min":0,"x_max":0,"o":"m 286 -281 b -14 -211 140 -281 49 -236 l 8 21 b 264 -58 43 4 139 -58 b 376 32 346 -58 376 -31 b 246 114 376 93 328 114 l 133 114 l 133 319 l 246 319 l 260 319 l 343 458 l -1 458 l -1 694 l 618 694 l 618 486 l 497 283 b 642 39 603 242 642 161 b 286 -281 642 -168 518 -281 m 271 958 l 321 824 l 371 958 l 628 958 l 481 736 l 161 736 l 14 958 "},"f":{"ha":500,"x_min":0,"x_max":0,"o":"m 99 472 l 1 472 l 1 694 l 99 694 b 71 806 85 728 71 764 b 338 1003 71 931 157 1003 b 499 986 389 1003 444 997 l 481 781 b 417 785 456 783 435 785 b 333 733 360 785 333 771 b 347 694 333 719 339 707 l 479 694 l 479 472 l 368 472 l 368 0 l 99 0 "},"g":{"ha":825,"x_min":0,"x_max":0,"o":"m 443 -169 b 546 -124 503 -169 546 -150 b 499 -94 546 -106 528 -94 b 190 -147 421 -94 307 -147 b 22 19 86 -147 22 -83 b 172 203 22 118 71 178 b 56 431 94 249 56 324 b 413 711 56 617 175 711 b 521 703 450 711 486 708 b 728 933 503 828 599 933 l 779 711 b 658 657 701 711 656 690 b 772 431 733 610 772 533 b 413 150 772 244 651 150 b 314 111 358 150 314 132 b 344 85 314 92 322 85 b 619 124 392 85 494 124 b 811 -82 744 124 811 51 b 435 -322 811 -256 707 -322 l 443 -169 m 329 431 b 413 358 329 379 354 358 b 497 431 472 358 497 381 b 413 503 497 481 472 503 b 329 431 354 503 329 482 "},"ğ":{"ha":825,"x_min":0,"x_max":0,"o":"m 443 -169 b 546 -124 503 -169 546 -150 b 499 -94 546 -106 528 -94 b 190 -147 421 -94 307 -147 b 22 19 86 -147 22 -83 b 172 203 22 118 71 178 b 56 431 94 249 56 324 b 413 711 56 617 175 711 b 521 703 450 711 486 708 b 728 933 503 828 599 933 l 779 711 b 658 657 701 711 656 690 b 772 431 733 610 772 533 b 413 150 772 244 651 150 b 314 111 358 150 314 132 b 344 85 314 92 322 85 b 619 124 392 85 494 124 b 811 -82 744 124 811 51 b 435 -322 811 -256 707 -322 l 443 -169 m 263 932 b 336 858 263 882 286 858 b 407 932 385 858 407 882 l 547 931 b 336 725 547 799 474 725 b 122 931 199 725 122 800 m 329 431 b 413 358 329 379 354 358 b 497 431 472 358 497 381 b 413 503 497 481 472 503 b 329 431 354 503 329 482 "},"ǧ":{"ha":825,"x_min":0,"x_max":0,"o":"m 443 -169 b 546 -124 503 -169 546 -150 b 499 -94 546 -106 528 -94 b 190 -147 421 -94 307 -147 b 22 19 86 -147 22 -83 b 172 203 22 118 71 178 b 56 431 94 249 56 324 b 413 711 56 617 175 711 b 521 703 450 711 486 708 b 728 933 503 828 599 933 l 779 711 b 658 657 701 711 656 690 b 772 431 733 610 772 533 b 413 150 772 244 651 150 b 314 111 358 150 314 132 b 344 85 314 92 322 85 b 619 124 392 85 494 124 b 811 -82 744 124 811 51 b 435 -322 811 -256 707 -322 l 443 -169 m 293 961 l 335 826 l 376 961 l 588 961 l 467 739 l 203 739 l 82 961 m 329 431 b 413 358 329 379 354 358 b 497 431 472 358 497 381 b 413 503 497 481 472 503 b 329 431 354 503 329 482 "},"ĝ":{"ha":825,"x_min":0,"x_max":0,"o":"m 443 -169 b 546 -124 503 -169 546 -150 b 499 -94 546 -106 528 -94 b 190 -147 421 -94 307 -147 b 22 19 86 -147 22 -83 b 172 203 22 118 71 178 b 56 431 94 249 56 324 b 413 711 56 617 175 711 b 521 703 450 711 486 708 b 518 739 519 715 518 728 l 369 739 l 335 874 l 300 739 l 122 739 l 224 961 l 446 961 l 526 788 b 728 933 550 872 629 933 l 779 711 b 658 657 701 711 656 690 b 772 431 733 610 772 533 b 413 150 772 244 651 150 b 314 111 358 150 314 132 b 344 85 314 92 322 85 b 619 124 392 85 494 124 b 811 -82 744 124 811 51 b 435 -322 811 -256 707 -322 l 443 -169 m 329 431 b 413 358 329 379 354 358 b 497 431 472 358 497 381 b 413 503 497 481 472 503 b 329 431 354 503 329 482 "},"ģ":{"ha":825,"x_min":0,"x_max":0,"o":"m 443 -169 b 546 -124 503 -169 546 -150 b 499 -94 546 -106 528 -94 b 190 -147 421 -94 307 -147 b 22 19 86 -147 22 -83 b 172 203 22 118 71 178 b 56 431 94 249 56 324 b 413 711 56 617 175 711 b 521 703 450 711 486 708 b 728 933 503 828 599 933 l 779 711 b 658 657 701 711 656 690 b 772 431 733 610 772 533 b 413 150 772 244 651 150 b 314 111 358 150 314 132 b 344 85 314 92 322 85 b 619 124 392 85 494 124 b 811 -82 744 124 811 51 b 435 -322 811 -256 707 -322 l 443 -169 m 183 886 b 467 1101 183 1007 281 1090 l 476 1013 b 378 960 419 1003 388 986 b 486 858 453 954 486 914 b 340 747 486 788 433 747 b 183 886 238 747 183 796 m 329 431 b 413 358 329 379 354 358 b 497 431 472 358 497 381 b 413 503 497 481 472 503 b 329 431 354 503 329 482 "},"ġ":{"ha":825,"x_min":0,"x_max":0,"o":"m 443 -169 b 546 -124 503 -169 546 -150 b 499 -94 546 -106 528 -94 b 190 -147 421 -94 307 -147 b 22 19 86 -147 22 -83 b 172 203 22 118 71 178 b 56 431 94 249 56 324 b 413 711 56 617 175 711 b 521 703 450 711 486 708 b 728 933 503 828 599 933 l 779 711 b 658 657 701 711 656 690 b 772 431 733 610 772 533 b 413 150 772 244 651 150 b 314 111 358 150 314 132 b 344 85 314 92 322 85 b 619 124 392 85 494 124 b 811 -82 744 124 811 51 b 435 -322 811 -256 707 -322 l 443 -169 m 199 825 b 338 938 199 900 244 938 b 474 825 428 938 474 900 b 338 715 474 750 428 715 b 199 825 244 715 199 750 m 329 431 b 413 358 329 379 354 358 b 497 431 472 358 497 381 b 413 503 497 481 472 503 b 329 431 354 503 329 482 "},"ḡ":{"ha":825,"x_min":0,"x_max":0,"o":"m 443 -169 b 546 -124 503 -169 546 -150 b 499 -94 546 -106 528 -94 b 190 -147 421 -94 307 -147 b 22 19 86 -147 22 -83 b 172 203 22 118 71 178 b 56 431 94 249 56 324 b 413 711 56 617 175 711 b 521 703 450 711 486 708 b 728 933 503 828 599 933 l 779 711 b 658 657 701 711 656 690 b 772 431 733 610 772 533 b 413 150 772 244 651 150 b 314 111 358 150 314 132 b 344 85 314 92 322 85 b 619 124 392 85 494 124 b 811 -82 744 124 811 51 b 435 -322 811 -256 707 -322 l 443 -169 m 160 922 l 515 922 l 515 749 l 160 749 m 329 431 b 413 358 329 379 354 358 b 497 431 472 358 497 381 b 413 503 497 481 472 503 b 329 431 354 503 329 482 "},"ǥ":{"ha":814,"x_min":0,"x_max":0,"o":"m 378 -308 b 85 -269 279 -308 176 -297 l 104 -57 b 343 -100 194 -85 272 -100 b 482 -7 431 -100 471 -75 b 374 -17 447 -12 410 -17 b 47 347 171 -17 47 99 b 432 711 47 597 179 711 b 753 658 540 711 656 692 l 753 440 l 836 440 l 836 258 l 753 258 l 753 56 b 378 -308 753 -189 629 -308 m 319 347 b 444 192 319 235 356 192 b 483 194 456 192 469 193 l 483 258 l 397 258 l 397 440 l 483 440 l 483 501 b 444 503 471 503 457 503 b 319 347 356 503 319 460 "},"h":{"ha":817,"x_min":0,"x_max":0,"o":"m 64 986 l 332 986 l 332 657 b 535 711 392 688 463 711 b 756 483 674 711 756 625 l 756 0 l 486 0 l 486 375 b 401 478 486 453 465 478 b 332 467 381 478 356 474 l 332 0 l 64 0 "},"ħ":{"ha":851,"x_min":0,"x_max":0,"o":"m 99 751 l 14 751 l 14 932 l 99 932 l 99 986 l 367 986 l 367 932 l 569 932 l 569 751 l 367 751 l 367 657 b 569 711 426 688 497 711 b 790 483 708 711 790 625 l 790 0 l 521 0 l 521 375 b 436 478 521 453 500 478 b 367 467 415 478 390 474 l 367 0 l 99 0 "},"ḫ":{"ha":817,"x_min":0,"x_max":0,"o":"m 64 986 l 332 986 l 332 657 b 535 711 392 688 463 711 b 756 483 674 711 756 625 l 756 0 l 486 0 l 486 375 b 401 478 486 453 465 478 b 332 467 381 478 356 474 l 332 0 l 64 0 m 329 -53 b 410 -126 329 -103 356 -126 b 488 -53 463 -126 488 -103 l 640 -54 b 410 -260 640 -186 560 -260 b 176 -54 260 -260 176 -185 "},"ĥ":{"ha":817,"x_min":0,"x_max":0,"o":"m 64 986 l 332 986 l 332 657 b 535 711 392 688 463 711 b 756 483 674 711 756 625 l 756 0 l 486 0 l 486 375 b 401 478 486 453 465 478 b 332 467 381 478 356 474 l 332 0 l 64 0 m 249 1243 l 568 1243 l 715 1021 l 458 1021 l 408 1156 l 358 1021 l 101 1021 "},"ḥ":{"ha":817,"x_min":0,"x_max":0,"o":"m 64 986 l 332 986 l 332 657 b 535 711 392 688 463 711 b 756 483 674 711 756 625 l 756 0 l 486 0 l 486 375 b 401 478 486 453 465 478 b 332 467 381 478 356 474 l 332 0 l 64 0 m 268 -156 b 407 -43 268 -81 314 -43 b 543 -156 497 -43 543 -81 b 407 -265 543 -231 497 -265 b 268 -156 314 -265 268 -231 "},"ẖ":{"ha":817,"x_min":0,"x_max":0,"o":"m 64 986 l 332 986 l 332 657 b 535 711 392 688 463 711 b 756 483 674 711 756 625 l 756 0 l 486 0 l 486 375 b 401 478 486 453 465 478 b 332 467 381 478 356 474 l 332 0 l 64 0 m 172 -56 l 644 -56 l 644 -250 l 172 -250 "},"i":{"ha":390,"x_min":0,"x_max":0,"o":"m 60 694 l 329 694 l 329 0 l 60 0 m 32 872 b 196 1007 32 963 86 1007 b 358 872 306 1007 358 963 b 196 742 358 783 306 742 b 32 872 86 742 32 783 "},"ı":{"ha":371,"x_min":0,"x_max":0,"o":"m 51 694 l 319 694 l 319 0 l 51 0 "},"í":{"ha":371,"x_min":0,"x_max":0,"o":"m 51 694 l 319 694 l 319 0 l 51 0 m 114 958 l 385 958 l 267 736 l 44 736 "},"ǐ":{"ha":371,"x_min":0,"x_max":0,"o":"m 51 694 l 319 694 l 319 0 l 51 0 m 144 958 l 186 824 l 226 958 l 439 958 l 317 736 l 54 736 l -67 958 "},"î":{"ha":371,"x_min":0,"x_max":0,"o":"m 51 694 l 319 694 l 319 0 l 51 0 m 65 958 l 307 958 l 419 736 l 224 736 l 186 871 l 149 736 l -47 736 "},"ï":{"ha":371,"x_min":0,"x_max":0,"o":"m 51 694 l 319 694 l 319 0 l 51 0 m -50 829 b 61 942 -50 904 -12 942 b 169 829 133 942 169 904 b 61 719 169 754 133 719 b -50 829 -12 719 -50 754 m 203 829 b 314 942 203 904 240 942 b 424 829 386 942 424 904 b 314 719 424 754 386 719 b 203 829 240 719 203 754 "},"ḯ":{"ha":371,"x_min":0,"x_max":0,"o":"m 51 694 l 319 694 l 319 0 l 51 0 m -54 829 b 58 942 -54 904 -17 942 b 169 829 132 942 169 904 b 58 719 169 754 132 719 b -54 829 -17 719 -54 754 m 114 1175 l 385 1175 l 267 953 l 44 953 m 204 829 b 317 942 204 904 242 942 b 428 829 390 942 428 904 b 317 719 428 754 390 719 b 204 829 242 719 204 754 "},"ị":{"ha":390,"x_min":0,"x_max":0,"o":"m 60 694 l 329 694 l 329 0 l 60 0 m 24 -160 b 193 -22 24 -68 81 -22 b 360 -160 304 -22 360 -68 b 193 -293 360 -251 304 -293 b 24 -160 81 -293 24 -251 m 32 872 b 196 1007 32 963 86 1007 b 358 872 306 1007 358 963 b 196 742 358 783 306 742 b 32 872 86 742 32 783 "},"ì":{"ha":371,"x_min":0,"x_max":0,"o":"m 51 694 l 319 694 l 319 0 l 51 0 m 246 958 l 314 736 l 92 736 l -25 958 "},"ỉ":{"ha":371,"x_min":0,"x_max":0,"o":"m 51 694 l 319 694 l 319 0 l 51 0 m 113 1056 b 325 908 254 1056 325 986 b 129 713 325 832 260 749 l 85 747 b 126 829 113 790 126 811 b 46 897 126 851 106 869 "},"ĳ":{"ha":763,"x_min":0,"x_max":0,"o":"m 60 694 l 329 694 l 329 0 l 60 0 m 32 872 b 196 1007 32 963 86 1007 b 358 872 306 1007 358 963 b 196 742 358 783 306 742 b 32 872 86 742 32 783 m 311 -86 b 354 -89 328 -87 342 -89 b 421 -68 389 -89 410 -82 b 438 14 438 -49 438 -21 l 438 694 l 707 694 l 707 14 b 446 -308 707 -222 638 -308 b 293 -292 392 -308 342 -301 m 417 872 b 574 1007 417 961 469 1007 b 731 872 678 1007 731 961 b 574 742 731 783 679 742 b 417 872 468 742 417 783 "},"ī":{"ha":371,"x_min":0,"x_max":0,"o":"m 51 694 l 319 694 l 319 0 l 51 0 m 10 919 l 369 919 l 369 746 l 10 746 "},"į":{"ha":371,"x_min":0,"x_max":0,"o":"m 51 694 l 319 694 l 319 0 l 267 0 b 233 -68 244 -33 233 -51 b 314 -136 233 -90 254 -108 l 247 -294 b 35 -147 106 -294 35 -225 b 124 0 35 -96 64 -42 l 51 0 m 50 822 b 189 935 50 897 96 935 b 325 822 279 935 325 897 b 189 713 325 747 279 713 b 50 822 96 713 50 747 "},"ĩ":{"ha":371,"x_min":0,"x_max":0,"o":"m 51 694 l 319 694 l 319 0 l 51 0 m -33 817 b 90 975 -17 928 28 975 b 293 911 169 975 236 911 b 365 960 318 911 339 926 l 406 892 b 282 735 399 796 343 735 b 79 797 203 735 136 797 b 7 751 53 797 32 781 l -33 817 "},"j":{"ha":372,"x_min":0,"x_max":0,"o":"m 56 -308 b -97 -292 1 -308 -49 -301 l -79 -86 b -36 -89 -62 -87 -49 -89 b 31 -68 -1 -89 19 -82 b 47 14 47 -49 47 -21 l 47 694 l 317 694 l 317 14 b 56 -308 317 -222 247 -308 m 26 872 b 183 1007 26 961 79 1007 b 340 872 288 1007 340 961 b 183 742 340 783 289 742 b 26 872 78 742 26 783 "},"ȷ":{"ha":372,"x_min":0,"x_max":0,"o":"m 56 -308 b -97 -292 1 -308 -49 -301 l -79 -86 b -36 -89 -62 -87 -49 -89 b 31 -68 -1 -89 19 -82 b 47 14 46 -50 47 -28 l 47 694 l 317 694 l 317 14 b 56 -308 317 -222 247 -308 "},"ĵ":{"ha":372,"x_min":0,"x_max":0,"o":"m 56 -308 b -97 -292 1 -308 -49 -301 l -79 -86 b -36 -89 -62 -87 -49 -89 b 31 -68 -1 -89 19 -82 b 47 14 46 -50 47 -28 l 47 694 l 317 694 l 317 14 b 56 -308 317 -222 247 -308 m 65 958 l 296 958 l 403 736 l 217 736 l 181 871 l 144 736 l -42 736 "},"k":{"ha":826,"x_min":0,"x_max":0,"o":"m 64 986 l 333 986 l 333 486 l 403 486 l 515 694 l 804 694 l 611 369 l 821 0 l 515 0 l 389 264 l 333 264 l 333 0 l 64 0 "},"ǩ":{"ha":826,"x_min":0,"x_max":0,"o":"m 64 986 l 333 986 l 333 486 l 403 486 l 515 694 l 804 694 l 611 369 l 821 0 l 515 0 l 389 264 l 333 264 l 333 0 l 64 0 m 364 1250 l 414 1115 l 464 1250 l 721 1250 l 574 1028 l 254 1028 l 107 1250 "},"ķ":{"ha":826,"x_min":0,"x_max":0,"o":"m 64 986 l 333 986 l 333 486 l 403 486 l 515 694 l 804 694 l 611 369 l 821 0 l 515 0 l 389 264 l 333 264 l 333 0 l 64 0 m 279 -115 b 411 -19 279 -54 326 -19 b 553 -139 504 -19 553 -61 b 296 -324 553 -243 465 -314 l 288 -247 b 378 -201 339 -239 368 -225 b 279 -115 308 -197 279 -162 "},"ḵ":{"ha":826,"x_min":0,"x_max":0,"o":"m 64 986 l 333 986 l 333 486 l 403 486 l 515 694 l 804 694 l 611 369 l 821 0 l 515 0 l 389 264 l 333 264 l 333 0 l 64 0 m 178 -56 l 650 -56 l 650 -250 l 178 -250 "},"l":{"ha":396,"x_min":0,"x_max":0,"o":"m 64 986 l 332 986 l 332 0 l 64 0 "},"ĺ":{"ha":396,"x_min":0,"x_max":0,"o":"m 64 986 l 332 986 l 332 0 l 64 0 m 126 1306 l 397 1306 l 279 1083 l 57 1083 "},"ľ":{"ha":396,"x_min":0,"x_max":0,"o":"m 64 986 l 332 986 l 332 0 l 64 0 m 396 904 b 554 1043 396 993 453 1043 b 724 869 665 1043 724 983 b 417 600 724 718 618 614 l 407 711 b 514 778 468 724 503 744 b 396 904 432 783 396 835 "},"ḽ":{"ha":396,"x_min":0,"x_max":0,"o":"m 64 986 l 332 986 l 332 0 l 64 0 m 39 -28 l 358 -28 l 506 -250 l 249 -250 l 199 -115 l 149 -250 l -108 -250 "},"ļ":{"ha":396,"x_min":0,"x_max":0,"o":"m 64 986 l 332 986 l 332 0 l 64 0 m 64 -115 b 196 -19 64 -54 111 -19 b 338 -139 289 -19 338 -61 b 81 -324 338 -243 250 -314 l 72 -247 b 163 -201 124 -239 153 -225 b 64 -115 93 -197 64 -162 "},"ḷ":{"ha":396,"x_min":0,"x_max":0,"o":"m 64 986 l 332 986 l 332 0 l 64 0 m 58 -156 b 197 -43 58 -81 104 -43 b 333 -156 288 -43 333 -81 b 197 -265 333 -231 288 -265 b 58 -156 104 -265 58 -231 "},"ḹ":{"ha":396,"x_min":0,"x_max":0,"o":"m 64 986 l 332 986 l 332 0 l 64 0 m -33 1267 l 439 1267 l 439 1093 l -33 1093 m 58 -156 b 197 -43 58 -81 104 -43 b 333 -156 288 -43 333 -81 b 197 -265 333 -231 288 -265 b 58 -156 104 -265 58 -231 "},"ḻ":{"ha":396,"x_min":0,"x_max":0,"o":"m 64 986 l 332 986 l 332 0 l 64 0 m -37 -56 l 435 -56 l 435 -250 l -37 -250 "},"ł":{"ha":396,"x_min":0,"x_max":0,"o":"m 64 401 l 3 379 l -62 557 l 64 603 l 64 986 l 332 986 l 332 701 l 421 733 l 486 554 l 332 499 l 332 0 l 64 0 "},"m":{"ha":1239,"x_min":0,"x_max":0,"o":"m 64 694 l 286 694 l 317 649 b 535 711 379 683 456 711 b 713 633 614 711 674 683 b 957 711 778 674 867 711 b 1178 483 1096 711 1178 625 l 1178 0 l 908 0 l 908 375 b 824 478 908 453 889 478 b 753 468 803 478 776 475 b 756 375 754 446 756 411 l 756 0 l 486 0 l 486 375 b 401 478 486 453 465 478 b 333 467 381 478 357 474 l 333 0 l 64 0 "},"ḿ":{"ha":1239,"x_min":0,"x_max":0,"o":"m 64 694 l 286 694 l 317 649 b 535 711 379 683 456 711 b 713 633 614 711 674 683 b 957 711 778 674 867 711 b 1178 483 1096 711 1178 625 l 1178 0 l 908 0 l 908 375 b 824 478 908 453 889 478 b 753 468 803 478 776 475 b 756 375 754 446 756 411 l 756 0 l 486 0 l 486 375 b 401 478 486 453 465 478 b 333 467 381 478 357 474 l 333 0 l 64 0 m 547 958 l 818 958 l 700 736 l 478 736 "},"ṁ":{"ha":1239,"x_min":0,"x_max":0,"o":"m 64 694 l 286 694 l 317 649 b 535 711 379 683 456 711 b 713 633 614 711 674 683 b 957 711 778 674 867 711 b 1178 483 1096 711 1178 625 l 1178 0 l 908 0 l 908 375 b 824 478 908 453 889 478 b 753 468 803 478 776 475 b 756 375 754 446 756 411 l 756 0 l 486 0 l 486 375 b 401 478 486 453 465 478 b 333 467 381 478 357 474 l 333 0 l 64 0 m 483 822 b 622 935 483 897 529 935 b 758 822 713 935 758 897 b 622 713 758 747 713 713 b 483 822 529 713 483 747 "},"ṃ":{"ha":1239,"x_min":0,"x_max":0,"o":"m 64 694 l 286 694 l 317 649 b 535 711 379 683 456 711 b 713 633 614 711 674 683 b 957 711 778 674 867 711 b 1178 483 1096 711 1178 625 l 1178 0 l 908 0 l 908 375 b 824 478 908 453 889 478 b 753 468 803 478 776 475 b 756 375 754 446 756 411 l 756 0 l 486 0 l 486 375 b 401 478 486 453 465 478 b 333 467 381 478 357 474 l 333 0 l 64 0 m 479 -156 b 618 -43 479 -81 525 -43 b 754 -156 708 -43 754 -81 b 618 -265 754 -231 708 -265 b 479 -156 525 -265 479 -231 "},"n":{"ha":817,"x_min":0,"x_max":0,"o":"m 64 694 l 286 694 l 317 649 b 535 711 379 683 456 711 b 756 483 674 711 756 625 l 756 0 l 486 0 l 486 375 b 401 478 486 453 465 478 b 333 467 381 478 356 474 l 333 0 l 64 0 "},"ń":{"ha":817,"x_min":0,"x_max":0,"o":"m 64 694 l 286 694 l 317 649 b 535 711 379 683 456 711 b 756 483 674 711 756 625 l 756 0 l 486 0 l 486 375 b 401 478 486 453 465 478 b 333 467 381 478 356 474 l 333 0 l 64 0 m 336 972 l 607 972 l 489 750 l 267 750 "},"ň":{"ha":817,"x_min":0,"x_max":0,"o":"m 64 694 l 286 694 l 317 649 b 535 711 379 683 456 711 b 756 483 674 711 756 625 l 756 0 l 486 0 l 486 375 b 401 478 486 453 465 478 b 333 467 381 478 356 474 l 333 0 l 64 0 m 358 972 l 408 838 l 458 972 l 715 972 l 568 750 l 249 750 l 101 972 "},"ṋ":{"ha":817,"x_min":0,"x_max":0,"o":"m 64 694 l 286 694 l 317 649 b 535 711 379 683 456 711 b 756 483 674 711 756 625 l 756 0 l 486 0 l 486 375 b 401 478 486 453 465 478 b 333 467 381 478 356 474 l 333 0 l 64 0 m 249 -28 l 568 -28 l 715 -250 l 458 -250 l 408 -115 l 358 -250 l 101 -250 "},"ņ":{"ha":817,"x_min":0,"x_max":0,"o":"m 64 694 l 286 694 l 317 649 b 535 711 379 683 456 711 b 756 483 674 711 756 625 l 756 0 l 486 0 l 486 375 b 401 478 486 453 465 478 b 333 467 381 478 356 474 l 333 0 l 64 0 m 274 -115 b 406 -19 274 -54 321 -19 b 547 -139 499 -19 547 -61 b 290 -324 547 -243 460 -314 l 282 -247 b 372 -201 333 -239 363 -225 b 274 -115 303 -197 274 -162 "},"ṅ":{"ha":817,"x_min":0,"x_max":0,"o":"m 64 694 l 286 694 l 317 649 b 535 711 379 683 456 711 b 756 483 674 711 756 625 l 756 0 l 486 0 l 486 375 b 401 478 486 453 465 478 b 333 467 381 478 356 474 l 333 0 l 64 0 m 272 836 b 411 949 272 911 318 949 b 547 836 501 949 547 911 b 411 726 547 761 501 726 b 272 836 318 726 272 761 "},"ṇ":{"ha":817,"x_min":0,"x_max":0,"o":"m 64 694 l 286 694 l 317 649 b 535 711 379 683 456 711 b 756 483 674 711 756 625 l 756 0 l 486 0 l 486 375 b 401 478 486 453 465 478 b 333 467 381 478 356 474 l 333 0 l 64 0 m 268 -156 b 407 -43 268 -81 314 -43 b 543 -156 497 -43 543 -81 b 407 -265 543 -231 497 -265 b 268 -156 314 -265 268 -231 "},"ṉ":{"ha":817,"x_min":0,"x_max":0,"o":"m 64 694 l 286 694 l 317 649 b 535 711 379 683 456 711 b 756 483 674 711 756 625 l 756 0 l 486 0 l 486 375 b 401 478 486 453 465 478 b 333 467 381 478 356 474 l 333 0 l 64 0 m 172 -56 l 644 -56 l 644 -250 l 172 -250 "},"ñ":{"ha":817,"x_min":0,"x_max":0,"o":"m 64 694 l 286 694 l 317 649 b 535 711 379 683 456 711 b 756 483 674 711 756 625 l 756 0 l 486 0 l 486 375 b 401 478 486 453 465 478 b 333 467 381 478 356 474 l 333 0 l 64 0 m 151 831 b 296 989 169 942 222 989 b 533 925 389 989 468 925 b 618 974 563 925 588 940 l 665 906 b 521 749 658 810 593 749 b 283 811 428 749 349 811 b 199 765 251 811 226 794 l 151 831 "},"ŋ":{"ha":817,"x_min":0,"x_max":0,"o":"m 486 375 b 401 478 486 453 465 478 b 333 467 381 478 356 474 l 333 0 l 64 0 l 64 694 l 286 694 l 317 649 b 535 711 379 683 456 711 b 756 483 674 711 756 625 l 756 -278 l 486 -278 l 486 375 "},"o":{"ha":806,"x_min":0,"x_max":0,"o":"m 403 -17 b 47 347 172 -17 47 97 b 403 711 47 597 172 711 b 758 347 633 711 758 597 b 403 -17 758 97 633 -17 m 319 347 b 403 192 319 233 340 192 b 485 347 464 192 485 233 b 403 503 485 461 464 503 b 319 347 340 503 319 461 "},"ó":{"ha":806,"x_min":0,"x_max":0,"o":"m 403 -17 b 47 347 172 -17 47 97 b 403 711 47 597 172 711 b 758 347 633 711 758 597 b 403 -17 758 97 633 -17 m 331 975 l 601 975 l 483 753 l 261 753 m 319 347 b 403 192 319 233 340 192 b 485 347 464 192 485 233 b 403 503 485 461 464 503 b 319 347 340 503 319 461 "},"ǒ":{"ha":806,"x_min":0,"x_max":0,"o":"m 403 -17 b 47 347 172 -17 47 97 b 403 711 47 597 172 711 b 758 347 633 711 758 597 b 403 -17 758 97 633 -17 m 353 975 l 403 840 l 453 975 l 710 975 l 563 753 l 243 753 l 96 975 m 319 347 b 403 192 319 233 340 192 b 485 347 464 192 485 233 b 403 503 485 461 464 503 b 319 347 340 503 319 461 "},"ô":{"ha":806,"x_min":0,"x_max":0,"o":"m 403 -17 b 47 347 172 -17 47 97 b 403 711 47 597 172 711 b 758 347 633 711 758 597 b 403 -17 758 97 633 -17 m 243 975 l 563 975 l 710 753 l 453 753 l 403 888 l 353 753 l 96 753 m 319 347 b 403 192 319 233 340 192 b 485 347 464 192 485 233 b 403 503 485 461 464 503 b 319 347 340 503 319 461 "},"ố":{"ha":806,"x_min":0,"x_max":0,"o":"m 403 -17 b 47 347 172 -17 47 97 b 403 711 47 597 172 711 b 758 347 633 711 758 597 b 403 -17 758 97 633 -17 m 243 975 l 271 975 l 331 1124 l 601 1124 l 500 975 l 563 975 l 710 753 l 453 753 l 403 888 l 353 753 l 96 753 m 319 347 b 403 192 319 233 340 192 b 485 347 464 192 485 233 b 403 503 485 461 464 503 b 319 347 340 503 319 461 "},"ộ":{"ha":806,"x_min":0,"x_max":0,"o":"m 403 -17 b 47 347 172 -17 47 97 b 403 711 47 597 172 711 b 758 347 633 711 758 597 b 403 -17 758 97 633 -17 m 243 975 l 563 975 l 710 753 l 453 753 l 403 888 l 353 753 l 96 753 m 263 -156 b 401 -43 263 -81 308 -43 b 538 -156 492 -43 538 -81 b 401 -265 538 -231 492 -265 b 263 -156 308 -265 263 -231 m 319 347 b 403 192 319 233 340 192 b 485 347 464 192 485 233 b 403 503 485 461 464 503 b 319 347 340 503 319 461 "},"ồ":{"ha":806,"x_min":0,"x_max":0,"o":"m 403 -17 b 47 347 172 -17 47 97 b 403 711 47 597 172 711 b 758 347 633 711 758 597 b 403 -17 758 97 633 -17 m 243 975 l 293 975 l 192 1129 l 463 1129 l 521 975 l 563 975 l 710 753 l 453 753 l 403 888 l 353 753 l 96 753 m 319 347 b 403 192 319 233 340 192 b 485 347 464 192 485 233 b 403 503 485 461 464 503 b 319 347 340 503 319 461 "},"ổ":{"ha":806,"x_min":0,"x_max":0,"o":"m 403 -17 b 47 347 172 -17 47 97 b 403 711 47 597 172 711 b 758 347 633 711 758 597 b 403 -17 758 97 633 -17 m 243 975 l 304 975 b 343 1053 331 1015 343 1035 b 263 1121 343 1075 322 1093 l 329 1279 b 542 1132 471 1279 542 1210 b 438 975 542 1076 507 1017 l 563 975 l 710 753 l 453 753 l 403 888 l 353 753 l 96 753 m 319 347 b 403 192 319 233 340 192 b 485 347 464 192 485 233 b 403 503 485 461 464 503 b 319 347 340 503 319 461 "},"ỗ":{"ha":806,"x_min":0,"x_max":0,"o":"m 403 -17 b 47 347 172 -17 47 97 b 403 711 47 597 172 711 b 758 347 633 711 758 597 b 403 -17 758 97 633 -17 m 235 975 l 415 975 b 281 1021 365 993 319 1021 b 204 975 253 1021 229 1004 l 161 1040 b 292 1199 178 1151 225 1199 b 507 1135 376 1199 449 1135 b 585 1183 535 1135 557 1150 l 628 1115 b 554 975 624 1049 593 1000 l 701 753 l 444 753 l 394 888 l 344 753 l 88 753 m 319 347 b 403 192 319 233 340 192 b 485 347 464 192 485 233 b 403 503 485 461 464 503 b 319 347 340 503 319 461 "},"ö":{"ha":806,"x_min":0,"x_max":0,"o":"m 403 -17 b 47 347 172 -17 47 97 b 403 711 47 597 172 711 b 758 347 633 711 758 597 b 403 -17 758 97 633 -17 m 107 846 b 246 958 107 921 154 958 b 382 846 336 958 382 921 b 246 736 382 771 336 736 b 107 846 154 736 107 771 m 319 347 b 403 192 319 233 340 192 b 485 347 464 192 485 233 b 403 503 485 461 464 503 b 319 347 340 503 319 461 m 424 846 b 563 958 424 921 469 958 b 699 846 653 958 699 921 b 563 736 699 771 653 736 b 424 846 469 736 424 771 "},"ȫ":{"ha":806,"x_min":0,"x_max":0,"o":"m 403 -17 b 47 347 172 -17 47 97 b 403 711 47 597 172 711 b 758 347 633 711 758 597 b 403 -17 758 97 633 -17 m 107 846 b 246 958 107 921 154 958 b 382 846 336 958 382 921 b 246 736 382 771 336 736 b 107 846 154 736 107 771 m 171 1153 l 643 1153 l 643 979 l 171 979 m 319 347 b 403 192 319 233 340 192 b 485 347 464 192 485 233 b 403 503 485 461 464 503 b 319 347 340 503 319 461 m 424 846 b 563 958 424 921 469 958 b 699 846 653 958 699 921 b 563 736 699 771 653 736 b 424 846 469 736 424 771 "},"ọ":{"ha":806,"x_min":0,"x_max":0,"o":"m 403 -17 b 47 347 172 -17 47 97 b 403 711 47 597 172 711 b 758 347 633 711 758 597 b 403 -17 758 97 633 -17 m 263 -156 b 401 -43 263 -81 308 -43 b 538 -156 492 -43 538 -81 b 401 -265 538 -231 492 -265 b 263 -156 308 -265 263 -231 m 319 347 b 403 192 319 233 340 192 b 485 347 464 192 485 233 b 403 503 485 461 464 503 b 319 347 340 503 319 461 "},"ò":{"ha":806,"x_min":0,"x_max":0,"o":"m 403 -17 b 47 347 172 -17 47 97 b 403 711 47 597 172 711 b 758 347 633 711 758 597 b 403 -17 758 97 633 -17 m 463 975 l 531 753 l 308 753 l 192 975 m 319 347 b 403 192 319 233 340 192 b 485 347 464 192 485 233 b 403 503 485 461 464 503 b 319 347 340 503 319 461 "},"ỏ":{"ha":806,"x_min":0,"x_max":0,"o":"m 403 -17 b 47 347 172 -17 47 97 b 403 711 47 597 172 711 b 758 347 633 711 758 597 b 403 -17 758 97 633 -17 m 329 1072 b 542 925 471 1072 542 1003 b 346 729 542 849 476 765 l 301 764 b 343 846 329 807 343 828 b 263 914 343 868 322 886 m 319 347 b 403 192 319 233 340 192 b 485 347 464 192 485 233 b 403 503 485 461 464 503 b 319 347 340 503 319 461 "},"ơ":{"ha":806,"x_min":0,"x_max":0,"o":"m 403 -17 b 47 347 172 -17 47 97 b 403 711 47 597 172 711 b 647 642 506 711 588 689 b 688 663 668 649 681 654 b 669 767 701 681 697 707 l 822 846 b 890 596 931 754 940 656 b 724 540 857 556 797 532 b 758 347 746 489 758 425 b 403 -17 758 97 633 -17 m 319 347 b 403 192 319 233 340 192 b 485 347 464 192 485 233 b 403 503 485 461 464 503 b 319 347 340 503 319 461 "},"ớ":{"ha":806,"x_min":0,"x_max":0,"o":"m 403 -17 b 47 347 172 -17 47 97 b 403 711 47 597 172 711 b 647 642 506 711 588 689 b 688 663 668 649 681 654 b 669 767 701 681 697 707 l 822 846 b 890 596 931 754 940 656 b 724 540 857 556 797 532 b 758 347 746 489 758 425 b 403 -17 758 97 633 -17 m 331 975 l 601 975 l 483 753 l 261 753 m 319 347 b 403 192 319 233 340 192 b 485 347 464 192 485 233 b 403 503 485 461 464 503 b 319 347 340 503 319 461 "},"ợ":{"ha":806,"x_min":0,"x_max":0,"o":"m 403 -17 b 47 347 172 -17 47 97 b 403 711 47 597 172 711 b 647 642 506 711 588 689 b 688 663 668 649 681 654 b 669 767 701 681 697 707 l 822 846 b 890 596 931 754 940 656 b 724 540 857 556 797 532 b 758 347 746 489 758 425 b 403 -17 758 97 633 -17 m 263 -156 b 401 -43 263 -81 308 -43 b 538 -156 492 -43 538 -81 b 401 -265 538 -231 492 -265 b 263 -156 308 -265 263 -231 m 319 347 b 403 192 319 233 340 192 b 485 347 464 192 485 233 b 403 503 485 461 464 503 b 319 347 340 503 319 461 "},"ờ":{"ha":806,"x_min":0,"x_max":0,"o":"m 403 -17 b 47 347 172 -17 47 97 b 403 711 47 597 172 711 b 647 642 506 711 588 689 b 688 663 668 649 681 654 b 669 767 701 681 697 707 l 822 846 b 890 596 931 754 940 656 b 724 540 857 556 797 532 b 758 347 746 489 758 425 b 403 -17 758 97 633 -17 m 463 975 l 531 753 l 308 753 l 192 975 m 319 347 b 403 192 319 233 340 192 b 485 347 464 192 485 233 b 403 503 485 461 464 503 b 319 347 340 503 319 461 "},"ở":{"ha":806,"x_min":0,"x_max":0,"o":"m 403 -17 b 47 347 172 -17 47 97 b 403 711 47 597 172 711 b 647 642 506 711 588 689 b 688 663 668 649 681 654 b 669 767 701 681 697 707 l 822 846 b 890 596 931 754 940 656 b 724 540 857 556 797 532 b 758 347 746 489 758 425 b 403 -17 758 97 633 -17 m 329 1072 b 542 925 471 1072 542 1003 b 346 729 542 849 476 765 l 301 764 b 343 846 329 807 343 828 b 263 914 343 868 322 886 m 319 347 b 403 192 319 233 340 192 b 485 347 464 192 485 233 b 403 503 485 461 464 503 b 319 347 340 503 319 461 "},"ỡ":{"ha":806,"x_min":0,"x_max":0,"o":"m 403 -17 b 47 347 172 -17 47 97 b 403 711 47 597 172 711 b 647 642 506 711 588 689 b 688 663 668 649 681 654 b 669 767 701 681 697 707 l 822 846 b 890 596 931 754 940 656 b 724 540 857 556 797 532 b 758 347 746 489 758 425 b 403 -17 758 97 633 -17 m 146 833 b 290 992 164 944 217 992 b 528 928 383 992 463 928 b 613 976 557 928 582 943 l 660 908 b 515 751 653 813 588 751 b 278 814 422 751 343 814 b 193 768 246 814 221 797 l 146 833 m 319 347 b 403 192 319 233 340 192 b 485 347 464 192 485 233 b 403 503 485 461 464 503 b 319 347 340 503 319 461 "},"ő":{"ha":806,"x_min":0,"x_max":0,"o":"m 403 -17 b 47 347 172 -17 47 97 b 403 711 47 597 172 711 b 758 347 633 711 758 597 b 403 -17 758 97 633 -17 m 176 989 l 447 989 l 331 767 l 108 767 m 319 347 b 403 192 319 233 340 192 b 485 347 464 192 485 233 b 403 503 485 461 464 503 b 319 347 340 503 319 461 m 482 989 l 753 989 l 636 767 l 414 767 "},"ō":{"ha":806,"x_min":0,"x_max":0,"o":"m 403 -17 b 47 347 172 -17 47 97 b 403 711 47 597 172 711 b 758 347 633 711 758 597 b 403 -17 758 97 633 -17 m 171 936 l 643 936 l 643 763 l 171 763 m 319 347 b 403 192 319 233 340 192 b 485 347 464 192 485 233 b 403 503 485 461 464 503 b 319 347 340 503 319 461 "},"ṓ":{"ha":806,"x_min":0,"x_max":0,"o":"m 403 -17 b 47 347 172 -17 47 97 b 403 711 47 597 172 711 b 758 347 633 711 758 597 b 403 -17 758 97 633 -17 m 171 936 l 643 936 l 643 763 l 171 763 m 331 1193 l 601 1193 l 483 971 l 261 971 m 319 347 b 403 192 319 233 340 192 b 485 347 464 192 485 233 b 403 503 485 461 464 503 b 319 347 340 503 319 461 "},"ṑ":{"ha":806,"x_min":0,"x_max":0,"o":"m 403 -17 b 47 347 172 -17 47 97 b 403 711 47 597 172 711 b 758 347 633 711 758 597 b 403 -17 758 97 633 -17 m 171 936 l 643 936 l 643 763 l 171 763 m 463 1193 l 531 971 l 308 971 l 192 1193 m 319 347 b 403 192 319 233 340 192 b 485 347 464 192 485 233 b 403 503 485 461 464 503 b 319 347 340 503 319 461 "},"ɔ":{"ha":638,"x_min":0,"x_max":0,"o":"m 236 -17 b 33 8 171 -17 85 -6 l 53 210 b 190 192 83 201 136 192 b 318 347 282 192 318 235 b 190 503 318 460 282 503 b 53 486 138 503 83 494 l 33 686 b 236 711 85 701 174 711 b 590 347 467 711 590 596 b 236 -17 590 97 467 -17 "},"ø":{"ha":806,"x_min":0,"x_max":0,"o":"m 372 -15 l 364 -43 l 208 -43 l 225 14 b 47 347 108 63 47 172 b 403 711 47 597 172 711 l 436 710 l 444 739 l 599 739 l 581 681 b 758 347 697 631 758 522 b 403 -17 758 97 633 -17 m 319 326 l 372 499 b 319 347 333 485 319 440 m 436 197 b 485 347 472 213 485 257 l 485 360 l 436 197 "},"ǿ":{"ha":806,"x_min":0,"x_max":0,"o":"m 372 -15 l 364 -43 l 208 -43 l 225 14 b 47 347 108 63 47 172 b 403 711 47 597 172 711 l 436 710 l 444 739 l 599 739 l 581 681 b 758 347 697 631 758 522 b 403 -17 758 97 633 -17 m 331 975 l 601 975 l 483 753 l 261 753 m 319 326 l 372 499 b 319 347 333 485 319 440 m 436 197 b 485 347 472 213 485 257 l 485 360 l 436 197 "},"õ":{"ha":806,"x_min":0,"x_max":0,"o":"m 403 -17 b 47 347 172 -17 47 97 b 403 711 47 597 172 711 b 758 347 633 711 758 597 b 403 -17 758 97 633 -17 m 146 833 b 290 992 164 944 217 992 b 528 928 383 992 463 928 b 613 976 557 928 582 943 l 660 908 b 515 751 653 813 588 751 b 278 814 422 751 343 814 b 193 768 246 814 221 797 l 146 833 m 319 347 b 403 192 319 233 340 192 b 485 347 464 192 485 233 b 403 503 485 461 464 503 b 319 347 340 503 319 461 "},"œ":{"ha":1219,"x_min":0,"x_max":0,"o":"m 403 -17 b 47 347 172 -17 47 97 b 403 711 47 597 172 711 b 622 658 492 711 565 694 b 839 711 678 693 750 711 b 1175 379 1061 711 1175 599 b 1164 261 1175 336 1169 281 l 772 261 b 921 192 792 208 836 192 b 1136 224 1007 192 1078 211 l 1156 22 b 868 -17 1082 0 964 -17 b 626 39 767 -17 688 1 b 403 -17 569 1 494 -17 m 319 347 b 403 192 319 233 340 192 b 485 347 464 192 485 233 b 403 503 485 461 464 503 b 319 347 340 503 319 461 m 906 433 b 836 503 896 483 879 503 b 767 433 800 503 776 483 "},"p":{"ha":819,"x_min":0,"x_max":0,"o":"m 65 658 b 386 711 163 692 276 711 b 771 347 639 711 771 597 b 444 -17 771 99 647 -17 b 335 -7 403 -17 369 -12 l 335 -292 l 65 -292 l 65 658 m 335 194 b 374 192 346 193 361 192 b 501 347 465 192 501 235 b 374 503 501 460 465 503 b 335 501 361 503 347 503 l 335 194 "},"þ":{"ha":810,"x_min":0,"x_max":0,"o":"m 57 986 l 326 986 l 326 701 b 436 711 361 707 399 711 b 763 347 639 711 763 596 b 436 -17 763 99 639 -17 b 326 -7 399 -17 361 -12 l 325 -292 l 56 -292 m 326 193 b 365 192 339 192 351 192 b 493 347 457 192 493 235 b 365 503 493 460 457 503 b 326 500 353 503 340 501 l 326 193 "},"q":{"ha":817,"x_min":0,"x_max":0,"o":"m 483 -7 b 374 -17 449 -12 411 -17 b 47 347 171 -17 47 99 b 432 711 47 597 179 711 b 753 658 540 711 656 692 l 753 -292 l 483 -292 l 483 -7 m 319 347 b 444 192 319 251 343 192 b 483 194 456 192 469 193 l 483 501 b 444 503 471 503 457 503 b 319 347 343 503 319 443 "},"r":{"ha":617,"x_min":0,"x_max":0,"o":"m 64 694 l 286 694 l 333 626 b 504 711 388 681 440 711 b 597 694 532 711 565 706 l 574 447 b 456 464 531 460 490 464 b 333 332 375 464 333 432 l 333 0 l 64 0 "},"ŕ":{"ha":617,"x_min":0,"x_max":0,"o":"m 64 694 l 286 694 l 333 626 b 504 711 388 681 440 711 b 597 694 532 711 565 706 l 574 447 b 456 464 531 460 490 464 b 333 332 375 464 333 432 l 333 0 l 64 0 m 236 958 l 507 958 l 389 736 l 167 736 "},"ř":{"ha":617,"x_min":0,"x_max":0,"o":"m 64 694 l 286 694 l 333 626 b 504 711 388 681 440 711 b 597 694 532 711 565 706 l 574 447 b 456 464 531 460 490 464 b 333 332 375 464 333 432 l 333 0 l 64 0 m 258 958 l 308 824 l 358 958 l 615 958 l 468 736 l 149 736 l 1 958 "},"ŗ":{"ha":617,"x_min":0,"x_max":0,"o":"m 64 694 l 286 694 l 333 626 b 504 711 388 681 440 711 b 597 694 532 711 565 706 l 574 447 b 456 464 531 460 490 464 b 333 332 375 464 333 432 l 333 0 l 64 0 m 174 -115 b 306 -19 174 -54 221 -19 b 447 -139 399 -19 447 -61 b 190 -324 447 -243 360 -314 l 182 -247 b 272 -201 233 -239 263 -225 b 174 -115 203 -197 174 -162 "},"ṝ":{"ha":617,"x_min":0,"x_max":0,"o":"m 64 694 l 286 694 l 333 626 b 504 711 388 681 440 711 b 597 694 532 711 565 706 l 574 447 b 456 464 531 460 490 464 b 333 332 375 464 333 432 l 333 0 l 64 0 m 76 919 l 549 919 l 549 746 l 76 746 m 168 -156 b 307 -43 168 -81 214 -43 b 443 -156 397 -43 443 -81 b 307 -265 443 -231 397 -265 b 168 -156 214 -265 168 -231 "},"ṟ":{"ha":617,"x_min":0,"x_max":0,"o":"m 64 694 l 286 694 l 333 626 b 504 711 388 681 440 711 b 597 694 532 711 565 706 l 574 447 b 456 464 531 460 490 464 b 333 332 375 464 333 432 l 333 0 l 64 0 m 72 -56 l 544 -56 l 544 -250 l 72 -250 "},"s":{"ha":683,"x_min":0,"x_max":0,"o":"m 336 -17 b 35 29 233 -17 122 3 l 53 231 b 301 192 146 206 218 192 b 383 214 365 192 383 200 b 225 250 383 236 297 235 b 40 469 125 272 40 331 b 336 711 40 629 156 711 b 618 672 424 711 529 696 l 599 471 b 382 503 506 492 439 503 b 313 481 331 503 313 494 b 450 447 313 458 386 458 b 656 228 557 429 656 378 b 336 -17 656 64 544 -17 "},"ś":{"ha":683,"x_min":0,"x_max":0,"o":"m 336 -17 b 35 29 233 -17 122 3 l 53 231 b 301 192 146 206 218 192 b 383 214 365 192 383 200 b 225 250 383 236 297 235 b 40 469 125 272 40 331 b 336 711 40 629 156 711 b 618 672 424 711 529 696 l 599 471 b 382 503 506 492 439 503 b 313 481 331 503 313 494 b 450 447 313 458 386 458 b 656 228 557 429 656 378 b 336 -17 656 64 544 -17 m 269 958 l 540 958 l 422 736 l 200 736 "},"ꞌ":{"ha":383,"x_min":0,"x_max":0,"o":"m 49 986 l 335 986 l 306 347 l 78 347 "},"š":{"ha":683,"x_min":0,"x_max":0,"o":"m 336 -17 b 35 29 233 -17 122 3 l 53 231 b 301 192 146 206 218 192 b 383 214 365 192 383 200 b 225 250 383 236 297 235 b 40 469 125 272 40 331 b 336 711 40 629 156 711 b 618 672 424 711 529 696 l 599 471 b 382 503 506 492 439 503 b 313 481 331 503 313 494 b 450 447 313 458 386 458 b 656 228 557 429 656 378 b 336 -17 656 64 544 -17 m 292 958 l 342 824 l 392 958 l 649 958 l 501 736 l 182 736 l 35 958 "},"ş":{"ha":683,"x_min":0,"x_max":0,"o":"m 196 -150 b 301 -44 260 -121 301 -97 b 297 -15 301 -36 300 -26 b 35 29 206 -11 111 6 l 53 231 b 301 192 146 206 218 192 b 383 214 365 192 383 200 b 225 250 383 236 297 235 b 40 469 125 272 40 331 b 336 711 40 629 156 711 b 618 672 424 711 529 696 l 599 471 b 382 503 506 492 439 503 b 313 481 331 503 313 494 b 450 447 313 458 386 458 b 656 228 557 429 656 378 b 419 -11 656 88 574 8 b 488 -143 465 -49 488 -96 b 263 -308 488 -228 414 -308 l 196 -150 "},"ŝ":{"ha":683,"x_min":0,"x_max":0,"o":"m 336 -17 b 35 29 233 -17 122 3 l 53 231 b 301 192 146 206 218 192 b 383 214 365 192 383 200 b 225 250 383 236 297 235 b 40 469 125 272 40 331 b 336 711 40 629 156 711 b 618 672 424 711 529 696 l 599 471 b 382 503 506 492 439 503 b 313 481 331 503 313 494 b 450 447 313 458 386 458 b 656 228 557 429 656 378 b 336 -17 656 64 544 -17 m 182 958 l 501 958 l 649 736 l 392 736 l 342 871 l 292 736 l 35 736 "},"ș":{"ha":683,"x_min":0,"x_max":0,"o":"m 336 -17 b 35 29 233 -17 122 3 l 53 231 b 301 192 146 206 218 192 b 383 214 365 192 383 200 b 225 250 383 236 297 235 b 40 469 125 272 40 331 b 336 711 40 629 156 711 b 618 672 424 711 529 696 l 599 471 b 382 503 506 492 439 503 b 313 481 331 503 313 494 b 450 447 313 458 386 458 b 656 228 557 429 656 378 b 336 -17 656 64 544 -17 m 207 -115 b 339 -19 207 -54 254 -19 b 481 -139 432 -19 481 -61 b 224 -324 481 -243 393 -314 l 215 -247 b 306 -201 267 -239 296 -225 b 207 -115 236 -197 207 -162 "},"ṣ":{"ha":683,"x_min":0,"x_max":0,"o":"m 336 -17 b 35 29 233 -17 122 3 l 53 231 b 301 192 146 206 218 192 b 383 214 365 192 383 200 b 225 250 383 236 297 235 b 40 469 125 272 40 331 b 336 711 40 629 156 711 b 618 672 424 711 529 696 l 599 471 b 382 503 506 492 439 503 b 313 481 331 503 313 494 b 450 447 313 458 386 458 b 656 228 557 429 656 378 b 336 -17 656 64 544 -17 m 201 -156 b 340 -43 201 -81 247 -43 b 476 -156 431 -43 476 -81 b 340 -265 476 -231 431 -265 b 201 -156 247 -265 201 -231 "},"ß":{"ha":907,"x_min":0,"x_max":0,"o":"m 413 178 b 585 325 538 178 585 235 b 413 472 585 415 538 472 l 413 654 b 544 724 496 654 544 665 b 451 785 544 763 521 785 b 356 685 382 785 356 757 l 354 0 l 85 0 l 85 472 l 1 472 l 1 694 l 113 694 b 93 790 100 729 93 761 b 451 1003 93 925 224 1003 b 815 756 688 1003 815 917 b 690 575 815 658 772 593 b 879 293 792 565 879 479 b 438 -44 879 107 792 -44 l 413 178 "},"ſ":{"ha":486,"x_min":0,"x_max":0,"o":"m 85 472 l 1 472 l 1 694 l 85 694 b 57 806 71 728 57 764 b 324 1003 57 931 143 1003 b 485 986 375 1003 431 997 l 467 781 b 403 785 442 783 421 785 b 319 746 346 785 319 771 b 354 694 319 719 346 707 l 354 0 l 85 0 "},"t":{"ha":536,"x_min":0,"x_max":0,"o":"m 339 -17 b 78 306 147 -17 78 69 l 78 472 l 1 472 l 1 667 b 167 872 63 676 129 722 l 347 872 l 347 694 l 479 694 l 479 472 l 347 472 l 347 306 b 443 203 347 226 371 203 b 488 204 457 203 471 204 l 506 0 b 339 -17 457 -10 407 -17 "},"ŧ":{"ha":536,"x_min":0,"x_max":0,"o":"m 339 -17 b 78 306 147 -17 78 69 l 78 319 l 1 319 l 1 431 l 78 431 l 78 472 l 1 472 l 1 667 b 167 872 63 676 129 722 l 347 872 l 347 694 l 479 694 l 479 472 l 347 472 l 347 431 l 443 431 l 443 319 l 347 319 l 347 306 b 443 203 347 226 371 203 b 488 204 457 203 471 204 l 506 0 b 339 -17 457 -10 407 -17 "},"ť":{"ha":536,"x_min":0,"x_max":0,"o":"m 339 -17 b 78 306 147 -17 78 69 l 78 472 l 1 472 l 1 667 b 167 872 63 676 129 722 l 347 872 l 347 694 l 479 694 l 479 472 l 347 472 l 347 306 b 443 203 347 226 371 203 b 488 204 457 203 471 204 l 506 0 b 339 -17 457 -10 407 -17 m 536 904 b 694 1043 536 993 593 1043 b 864 869 806 1043 864 983 b 557 600 864 718 758 614 l 547 711 b 654 778 608 724 643 744 b 536 904 572 783 536 835 "},"ţ":{"ha":536,"x_min":0,"x_max":0,"o":"m 122 -150 b 228 -44 186 -121 228 -97 b 219 0 228 -32 225 -17 b 78 306 118 35 78 128 l 78 472 l 1 472 l 1 667 b 167 872 63 676 129 722 l 347 872 l 347 694 l 479 694 l 479 472 l 347 472 l 347 306 b 443 203 347 226 371 203 b 488 204 457 203 471 204 l 506 0 b 353 -17 460 -10 414 -15 b 414 -143 393 -53 414 -99 b 189 -308 414 -228 340 -308 l 122 -150 "},"ṱ":{"ha":536,"x_min":0,"x_max":0,"o":"m 339 -17 b 78 306 147 -17 78 69 l 78 472 l 1 472 l 1 667 b 167 872 63 676 129 722 l 347 872 l 347 694 l 479 694 l 479 472 l 347 472 l 347 306 b 443 203 347 226 371 203 b 488 204 457 203 471 204 l 506 0 b 339 -17 457 -10 407 -17 m 126 -28 l 408 -28 l 539 -250 l 311 -250 l 268 -115 l 224 -250 l -4 -250 "},"ț":{"ha":536,"x_min":0,"x_max":0,"o":"m 339 -17 b 78 306 147 -17 78 69 l 78 472 l 1 472 l 1 667 b 167 872 63 676 129 722 l 347 872 l 347 694 l 479 694 l 479 472 l 347 472 l 347 306 b 443 203 347 226 371 203 b 488 204 457 203 471 204 l 506 0 b 339 -17 457 -10 407 -17 m 133 -115 b 265 -19 133 -54 181 -19 b 407 -139 358 -19 407 -61 b 150 -324 407 -243 319 -314 l 142 -247 b 232 -201 193 -239 222 -225 b 133 -115 163 -197 133 -162 "},"ẗ":{"ha":536,"x_min":0,"x_max":0,"o":"m 339 -17 b 78 306 147 -17 78 69 l 78 472 l 1 472 l 1 667 b 165 868 63 676 128 721 b 111 863 150 864 132 863 b -28 972 19 863 -28 897 b 111 1085 -28 1047 19 1085 b 247 972 201 1085 247 1047 b 181 872 247 919 225 888 l 347 872 l 347 694 l 479 694 l 479 472 l 347 472 l 347 306 b 443 203 347 226 371 203 b 488 204 457 203 471 204 l 506 0 b 339 -17 457 -10 407 -17 m 289 972 b 428 1085 289 1047 335 1085 b 564 972 518 1085 564 1047 b 428 863 564 897 518 863 b 289 972 335 863 289 897 "},"ṭ":{"ha":536,"x_min":0,"x_max":0,"o":"m 339 -17 b 78 306 147 -17 78 69 l 78 472 l 1 472 l 1 667 b 167 872 63 676 129 722 l 347 872 l 347 694 l 479 694 l 479 472 l 347 472 l 347 306 b 443 203 347 226 371 203 b 488 204 457 203 471 204 l 506 0 b 339 -17 457 -10 407 -17 m 128 -156 b 267 -43 128 -81 174 -43 b 403 -156 357 -43 403 -81 b 267 -265 403 -231 357 -265 b 128 -156 174 -265 128 -231 "},"ṯ":{"ha":536,"x_min":0,"x_max":0,"o":"m 339 -17 b 78 306 147 -17 78 69 l 78 472 l 1 472 l 1 667 b 167 872 63 676 129 722 l 347 872 l 347 694 l 479 694 l 479 472 l 347 472 l 347 306 b 443 203 347 226 371 203 b 488 204 457 203 471 204 l 506 0 b 339 -17 457 -10 407 -17 m 32 -56 l 504 -56 l 504 -250 l 32 -250 "},"u":{"ha":803,"x_min":0,"x_max":0,"o":"m 275 -17 b 61 211 140 -17 61 69 l 61 694 l 331 694 l 331 319 b 407 217 331 242 349 217 b 469 228 426 217 449 221 l 469 694 l 739 694 l 739 14 l 517 0 l 485 46 b 275 -17 425 11 350 -17 "},"ú":{"ha":803,"x_min":0,"x_max":0,"o":"m 275 -17 b 61 211 140 -17 61 69 l 61 694 l 331 694 l 331 319 b 407 217 331 242 349 217 b 469 228 426 217 449 221 l 469 694 l 739 694 l 739 14 l 517 0 l 485 46 b 275 -17 425 11 350 -17 m 329 958 l 600 958 l 482 736 l 260 736 "},"ŭ":{"ha":803,"x_min":0,"x_max":0,"o":"m 275 -17 b 61 211 140 -17 61 69 l 61 694 l 331 694 l 331 319 b 407 217 331 242 349 217 b 469 228 426 217 449 221 l 469 694 l 739 694 l 739 14 l 517 0 l 485 46 b 275 -17 425 11 350 -17 m 322 929 b 403 856 322 879 349 856 b 481 929 456 856 481 879 l 633 928 b 403 722 633 796 553 722 b 169 928 253 722 169 797 "},"ǔ":{"ha":803,"x_min":0,"x_max":0,"o":"m 275 -17 b 61 211 140 -17 61 69 l 61 694 l 331 694 l 331 319 b 407 217 331 242 349 217 b 469 228 426 217 449 221 l 469 694 l 739 694 l 739 14 l 517 0 l 485 46 b 275 -17 425 11 350 -17 m 351 958 l 401 824 l 451 958 l 708 958 l 561 736 l 242 736 l 94 958 "},"û":{"ha":803,"x_min":0,"x_max":0,"o":"m 275 -17 b 61 211 140 -17 61 69 l 61 694 l 331 694 l 331 319 b 407 217 331 242 349 217 b 469 228 426 217 449 221 l 469 694 l 739 694 l 739 14 l 517 0 l 485 46 b 275 -17 425 11 350 -17 m 242 958 l 561 958 l 708 736 l 451 736 l 401 871 l 351 736 l 94 736 "},"ü":{"ha":803,"x_min":0,"x_max":0,"o":"m 275 -17 b 61 211 140 -17 61 69 l 61 694 l 331 694 l 331 319 b 407 217 331 242 349 217 b 469 228 426 217 449 221 l 469 694 l 739 694 l 739 14 l 517 0 l 485 46 b 275 -17 425 11 350 -17 m 106 829 b 244 942 106 904 153 942 b 381 829 335 942 381 904 b 244 719 381 754 335 719 b 106 829 153 719 106 754 m 422 829 b 561 942 422 904 468 942 b 697 829 651 942 697 904 b 561 719 697 754 651 719 b 422 829 468 719 422 754 "},"ǘ":{"ha":803,"x_min":0,"x_max":0,"o":"m 275 -17 b 61 211 140 -17 61 69 l 61 694 l 331 694 l 331 319 b 407 217 331 242 349 217 b 469 228 426 217 449 221 l 469 694 l 739 694 l 739 14 l 517 0 l 485 46 b 275 -17 425 11 350 -17 m 106 829 b 244 942 106 904 153 942 b 381 829 335 942 381 904 b 244 719 381 754 335 719 b 106 829 153 719 106 754 m 329 1175 l 600 1175 l 482 953 l 260 953 m 422 829 b 561 942 422 904 468 942 b 697 829 651 942 697 904 b 561 719 697 754 651 719 b 422 829 468 719 422 754 "},"ǚ":{"ha":803,"x_min":0,"x_max":0,"o":"m 275 -17 b 61 211 140 -17 61 69 l 61 694 l 331 694 l 331 319 b 407 217 331 242 349 217 b 469 228 426 217 449 221 l 469 694 l 739 694 l 739 14 l 517 0 l 485 46 b 275 -17 425 11 350 -17 m 351 1175 l 401 1040 l 451 1175 l 708 1175 l 561 953 l 242 953 l 94 1175 m 106 829 b 244 942 106 904 153 942 b 381 829 335 942 381 904 b 244 719 381 754 335 719 b 106 829 153 719 106 754 m 422 829 b 561 942 422 904 468 942 b 697 829 651 942 697 904 b 561 719 697 754 651 719 b 422 829 468 719 422 754 "},"ǜ":{"ha":803,"x_min":0,"x_max":0,"o":"m 275 -17 b 61 211 140 -17 61 69 l 61 694 l 331 694 l 331 319 b 407 217 331 242 349 217 b 469 228 426 217 449 221 l 469 694 l 739 694 l 739 14 l 517 0 l 485 46 b 275 -17 425 11 350 -17 m 106 829 b 244 942 106 904 153 942 b 381 829 335 942 381 904 b 244 719 381 754 335 719 b 106 829 153 719 106 754 m 461 1175 l 529 953 l 307 953 l 190 1175 m 422 829 b 561 942 422 904 468 942 b 697 829 651 942 697 904 b 561 719 697 754 651 719 b 422 829 468 719 422 754 "},"ǖ":{"ha":803,"x_min":0,"x_max":0,"o":"m 275 -17 b 61 211 140 -17 61 69 l 61 694 l 331 694 l 331 319 b 407 217 331 242 349 217 b 469 228 426 217 449 221 l 469 694 l 739 694 l 739 14 l 517 0 l 485 46 b 275 -17 425 11 350 -17 m 106 829 b 244 942 106 904 153 942 b 381 829 335 942 381 904 b 244 719 381 754 335 719 b 106 829 153 719 106 754 m 169 1136 l 642 1136 l 642 963 l 169 963 m 422 829 b 561 942 422 904 468 942 b 697 829 651 942 697 904 b 561 719 697 754 651 719 b 422 829 468 719 422 754 "},"ụ":{"ha":803,"x_min":0,"x_max":0,"o":"m 275 -17 b 61 211 140 -17 61 69 l 61 694 l 331 694 l 331 319 b 407 217 331 242 349 217 b 469 228 426 217 449 221 l 469 694 l 739 694 l 739 14 l 517 0 l 485 46 b 275 -17 425 11 350 -17 m 261 -156 b 400 -43 261 -81 307 -43 b 536 -156 490 -43 536 -81 b 400 -265 536 -231 490 -265 b 261 -156 307 -265 261 -231 "},"ù":{"ha":803,"x_min":0,"x_max":0,"o":"m 275 -17 b 61 211 140 -17 61 69 l 61 694 l 331 694 l 331 319 b 407 217 331 242 349 217 b 469 228 426 217 449 221 l 469 694 l 739 694 l 739 14 l 517 0 l 485 46 b 275 -17 425 11 350 -17 m 461 958 l 529 736 l 307 736 l 190 958 "},"ủ":{"ha":803,"x_min":0,"x_max":0,"o":"m 275 -17 b 61 211 140 -17 61 69 l 61 694 l 331 694 l 331 319 b 407 217 331 242 349 217 b 469 228 426 217 449 221 l 469 694 l 739 694 l 739 14 l 517 0 l 485 46 b 275 -17 425 11 350 -17 m 328 1056 b 540 908 469 1056 540 986 b 344 713 540 832 475 749 l 300 747 b 342 829 328 790 342 811 b 261 897 342 851 321 869 "},"ư":{"ha":803,"x_min":0,"x_max":0,"o":"m 275 -17 b 61 211 140 -17 61 69 l 61 694 l 331 694 l 331 319 b 407 217 331 242 349 217 b 469 228 426 217 449 221 l 469 694 l 739 694 l 739 651 b 756 663 746 654 751 658 b 738 767 769 681 765 707 l 890 846 b 958 596 999 754 1008 656 b 739 551 917 547 836 524 l 739 14 l 517 0 l 485 46 b 275 -17 425 11 350 -17 "},"ứ":{"ha":803,"x_min":0,"x_max":0,"o":"m 275 -17 b 61 211 140 -17 61 69 l 61 694 l 331 694 l 331 319 b 407 217 331 242 349 217 b 469 228 426 217 449 221 l 469 694 l 739 694 l 739 651 b 756 663 746 654 751 658 b 738 767 769 681 765 707 l 890 846 b 958 596 999 754 1008 656 b 739 551 917 547 836 524 l 739 14 l 517 0 l 485 46 b 275 -17 425 11 350 -17 m 329 958 l 600 958 l 482 736 l 260 736 "},"ự":{"ha":803,"x_min":0,"x_max":0,"o":"m 275 -17 b 61 211 140 -17 61 69 l 61 694 l 331 694 l 331 319 b 407 217 331 242 349 217 b 469 228 426 217 449 221 l 469 694 l 739 694 l 739 651 b 756 663 746 654 751 658 b 738 767 769 681 765 707 l 890 846 b 958 596 999 754 1008 656 b 739 551 917 547 836 524 l 739 14 l 517 0 l 485 46 b 275 -17 425 11 350 -17 m 261 -156 b 400 -43 261 -81 307 -43 b 536 -156 490 -43 536 -81 b 400 -265 536 -231 490 -265 b 261 -156 307 -265 261 -231 "},"ừ":{"ha":803,"x_min":0,"x_max":0,"o":"m 275 -17 b 61 211 140 -17 61 69 l 61 694 l 331 694 l 331 319 b 407 217 331 242 349 217 b 469 228 426 217 449 221 l 469 694 l 739 694 l 739 651 b 756 663 746 654 751 658 b 738 767 769 681 765 707 l 890 846 b 958 596 999 754 1008 656 b 739 551 917 547 836 524 l 739 14 l 517 0 l 485 46 b 275 -17 425 11 350 -17 m 461 958 l 529 736 l 307 736 l 190 958 "},"ử":{"ha":803,"x_min":0,"x_max":0,"o":"m 275 -17 b 61 211 140 -17 61 69 l 61 694 l 331 694 l 331 319 b 407 217 331 242 349 217 b 469 228 426 217 449 221 l 469 694 l 739 694 l 739 651 b 756 663 746 654 751 658 b 738 767 769 681 765 707 l 890 846 b 958 596 999 754 1008 656 b 739 551 917 547 836 524 l 739 14 l 517 0 l 485 46 b 275 -17 425 11 350 -17 m 328 1056 b 540 908 469 1056 540 986 b 344 713 540 832 475 749 l 300 747 b 342 829 328 790 342 811 b 261 897 342 851 321 869 "},"ữ":{"ha":803,"x_min":0,"x_max":0,"o":"m 275 -17 b 61 211 140 -17 61 69 l 61 694 l 331 694 l 331 319 b 407 217 331 242 349 217 b 469 228 426 217 449 221 l 469 694 l 739 694 l 739 651 b 756 663 746 654 751 658 b 738 767 769 681 765 707 l 890 846 b 958 596 999 754 1008 656 b 739 551 917 547 836 524 l 739 14 l 517 0 l 485 46 b 275 -17 425 11 350 -17 m 144 817 b 289 975 163 928 215 975 b 526 911 382 975 461 911 b 611 960 556 911 581 926 l 658 892 b 514 735 651 796 586 735 b 276 797 421 735 342 797 b 192 751 244 797 219 781 l 144 817 "},"ű":{"ha":803,"x_min":0,"x_max":0,"o":"m 275 -17 b 61 211 140 -17 61 69 l 61 694 l 331 694 l 331 319 b 407 217 331 242 349 217 b 469 228 426 217 449 221 l 469 694 l 739 694 l 739 14 l 517 0 l 485 46 b 275 -17 425 11 350 -17 m 175 972 l 446 972 l 329 750 l 107 750 m 481 972 l 751 972 l 635 750 l 413 750 "},"ū":{"ha":803,"x_min":0,"x_max":0,"o":"m 275 -17 b 61 211 140 -17 61 69 l 61 694 l 331 694 l 331 319 b 407 217 331 242 349 217 b 469 228 426 217 449 221 l 469 694 l 739 694 l 739 14 l 517 0 l 485 46 b 275 -17 425 11 350 -17 m 169 919 l 642 919 l 642 746 l 169 746 "},"ų":{"ha":803,"x_min":0,"x_max":0,"o":"m 275 -17 b 61 211 140 -17 61 69 l 61 694 l 331 694 l 331 319 b 407 217 331 242 349 217 b 469 228 426 217 449 221 l 469 694 l 739 694 l 739 14 l 721 13 b 681 -68 694 -29 681 -50 b 761 -136 681 -90 701 -108 l 694 -294 b 482 -147 553 -294 482 -225 b 576 4 482 -94 514 -37 l 517 0 l 485 46 b 275 -17 425 11 350 -17 "},"ů":{"ha":803,"x_min":0,"x_max":0,"o":"m 275 -17 b 61 211 140 -17 61 69 l 61 694 l 225 694 b 200 792 208 721 200 753 b 403 974 200 907 274 974 b 603 792 532 974 603 908 b 579 694 603 753 594 721 l 739 694 l 739 14 l 517 0 l 485 46 b 275 -17 425 11 350 -17 m 331 319 b 407 217 331 242 349 217 b 469 228 426 217 449 221 l 469 622 b 403 615 450 618 428 615 b 331 624 376 615 353 618 l 331 319 m 332 793 b 403 729 332 750 356 729 b 471 793 449 729 471 750 b 403 858 471 836 447 858 b 332 793 357 858 332 836 "},"ũ":{"ha":803,"x_min":0,"x_max":0,"o":"m 275 -17 b 61 211 140 -17 61 69 l 61 694 l 331 694 l 331 319 b 407 217 331 242 349 217 b 469 228 426 217 449 221 l 469 694 l 739 694 l 739 14 l 517 0 l 485 46 b 275 -17 425 11 350 -17 m 144 817 b 289 975 163 928 215 975 b 526 911 382 975 461 911 b 611 960 556 911 581 926 l 658 892 b 514 735 651 796 586 735 b 276 797 421 735 342 797 b 192 751 244 797 219 781 l 144 817 "},"v":{"ha":786,"x_min":0,"x_max":0,"o":"m 6 694 l 297 694 l 393 278 l 489 694 l 781 694 l 556 0 l 231 0 "},"ʌ":{"ha":786,"x_min":0,"x_max":0,"o":"m 781 0 l 489 0 l 393 417 l 297 0 l 6 0 l 231 694 l 556 694 "},"w":{"ha":1181,"x_min":0,"x_max":0,"o":"m 7 694 l 294 694 l 371 278 l 456 694 l 725 694 l 811 278 l 886 694 l 1174 694 l 993 0 l 688 0 l 590 388 l 493 0 l 188 0 "},"ẃ":{"ha":1181,"x_min":0,"x_max":0,"o":"m 7 694 l 294 694 l 371 278 l 456 694 l 725 694 l 811 278 l 886 694 l 1174 694 l 993 0 l 688 0 l 590 388 l 493 0 l 188 0 m 518 958 l 789 958 l 671 736 l 449 736 "},"ŵ":{"ha":1181,"x_min":0,"x_max":0,"o":"m 7 694 l 294 694 l 371 278 l 456 694 l 725 694 l 811 278 l 886 694 l 1174 694 l 993 0 l 688 0 l 590 388 l 493 0 l 188 0 m 431 958 l 750 958 l 897 736 l 640 736 l 590 871 l 540 736 l 283 736 "},"ẅ":{"ha":1181,"x_min":0,"x_max":0,"o":"m 7 694 l 294 694 l 371 278 l 456 694 l 725 694 l 811 278 l 886 694 l 1174 694 l 993 0 l 688 0 l 590 388 l 493 0 l 188 0 m 294 829 b 433 942 294 904 342 942 b 569 829 524 942 569 904 b 433 719 569 754 524 719 b 294 829 342 719 294 754 m 611 829 b 750 942 611 904 657 942 b 886 829 840 942 886 904 b 750 719 886 754 840 719 b 611 829 657 719 611 754 "},"ẁ":{"ha":1181,"x_min":0,"x_max":0,"o":"m 7 694 l 294 694 l 371 278 l 456 694 l 725 694 l 811 278 l 886 694 l 1174 694 l 993 0 l 688 0 l 590 388 l 493 0 l 188 0 m 650 958 l 718 736 l 496 736 l 379 958 "},"x":{"ha":804,"x_min":0,"x_max":0,"o":"m 207 360 l 22 694 l 328 694 l 401 500 l 476 694 l 782 694 l 597 360 l 799 0 l 483 0 l 401 210 l 321 0 l 6 0 "},"y":{"ha":811,"x_min":0,"x_max":0,"o":"m 254 -308 b 79 -292 204 -308 147 -301 l 96 -83 b 188 -90 126 -86 161 -90 b 251 0 243 -90 278 -75 l 7 694 l 301 694 l 415 250 l 513 694 l 804 694 l 576 0 b 254 -308 501 -232 428 -308 "},"ý":{"ha":811,"x_min":0,"x_max":0,"o":"m 254 -308 b 79 -292 204 -308 147 -301 l 96 -83 b 188 -90 126 -86 161 -90 b 251 0 243 -90 278 -75 l 7 694 l 301 694 l 415 250 l 513 694 l 804 694 l 576 0 b 254 -308 501 -232 428 -308 m 333 958 l 604 958 l 486 736 l 264 736 "},"ŷ":{"ha":811,"x_min":0,"x_max":0,"o":"m 254 -308 b 79 -292 204 -308 147 -301 l 96 -83 b 188 -90 126 -86 161 -90 b 251 0 243 -90 278 -75 l 7 694 l 301 694 l 415 250 l 513 694 l 804 694 l 576 0 b 254 -308 501 -232 428 -308 m 246 958 l 565 958 l 713 736 l 456 736 l 406 871 l 356 736 l 99 736 "},"ÿ":{"ha":811,"x_min":0,"x_max":0,"o":"m 254 -308 b 79 -292 204 -308 147 -301 l 96 -83 b 188 -90 126 -86 161 -90 b 251 0 243 -90 278 -75 l 7 694 l 301 694 l 415 250 l 513 694 l 804 694 l 576 0 b 254 -308 501 -232 428 -308 m 110 829 b 249 942 110 904 157 942 b 385 829 339 942 385 904 b 249 719 385 754 339 719 b 110 829 157 719 110 754 m 426 829 b 565 942 426 904 472 942 b 701 829 656 942 701 904 b 565 719 701 754 656 719 b 426 829 472 719 426 754 "},"ẏ":{"ha":811,"x_min":0,"x_max":0,"o":"m 254 -308 b 79 -292 204 -308 147 -301 l 96 -83 b 188 -90 126 -86 161 -90 b 251 0 243 -90 278 -75 l 7 694 l 301 694 l 415 250 l 513 694 l 804 694 l 576 0 b 254 -308 501 -232 428 -308 m 269 822 b 408 935 269 897 315 935 b 544 822 499 935 544 897 b 408 713 544 747 499 713 b 269 822 315 713 269 747 "},"ỵ":{"ha":811,"x_min":0,"x_max":0,"o":"m 254 -308 b 79 -292 204 -308 147 -301 l 96 -83 b 188 -90 126 -86 161 -90 b 251 0 243 -90 278 -75 l 7 694 l 301 694 l 415 250 l 513 694 l 804 694 l 576 0 b 254 -308 501 -232 428 -308 m 500 -229 b 613 -139 500 -168 538 -139 b 721 -229 685 -139 721 -168 b 613 -317 721 -289 685 -317 b 500 -229 538 -317 500 -289 "},"ỳ":{"ha":811,"x_min":0,"x_max":0,"o":"m 254 -308 b 79 -292 204 -308 147 -301 l 96 -83 b 188 -90 126 -86 161 -90 b 251 0 243 -90 278 -75 l 7 694 l 301 694 l 415 250 l 513 694 l 804 694 l 576 0 b 254 -308 501 -232 428 -308 m 465 958 l 533 736 l 311 736 l 194 958 "},"ỷ":{"ha":811,"x_min":0,"x_max":0,"o":"m 254 -308 b 79 -292 204 -308 147 -301 l 96 -83 b 188 -90 126 -86 161 -90 b 251 0 243 -90 278 -75 l 7 694 l 301 694 l 415 250 l 513 694 l 804 694 l 576 0 b 254 -308 501 -232 428 -308 m 332 1056 b 544 908 474 1056 544 986 b 349 713 544 832 479 749 l 304 747 b 346 829 332 790 346 811 b 265 897 346 851 325 869 "},"ȳ":{"ha":811,"x_min":0,"x_max":0,"o":"m 254 -308 b 79 -292 204 -308 147 -301 l 96 -83 b 188 -90 126 -86 161 -90 b 251 0 243 -90 278 -75 l 7 694 l 301 694 l 415 250 l 513 694 l 804 694 l 576 0 b 254 -308 501 -232 428 -308 m 174 919 l 646 919 l 646 746 l 174 746 "},"ỹ":{"ha":811,"x_min":0,"x_max":0,"o":"m 254 -308 b 79 -292 204 -308 147 -301 l 96 -83 b 188 -90 126 -86 161 -90 b 251 0 243 -90 278 -75 l 7 694 l 301 694 l 415 250 l 513 694 l 804 694 l 576 0 b 254 -308 501 -232 428 -308 m 149 817 b 293 975 167 928 219 975 b 531 911 386 975 465 911 b 615 960 560 911 585 926 l 663 892 b 518 735 656 796 590 735 b 281 797 425 735 346 797 b 196 751 249 797 224 781 l 149 817 "},"z":{"ha":675,"x_min":0,"x_max":0,"o":"m 33 192 l 303 486 l 49 486 l 49 694 l 640 694 l 640 503 l 371 208 l 644 208 l 644 0 l 33 0 "},"ź":{"ha":675,"x_min":0,"x_max":0,"o":"m 33 192 l 303 486 l 49 486 l 49 694 l 640 694 l 640 503 l 371 208 l 644 208 l 644 0 l 33 0 m 265 958 l 536 958 l 418 736 l 196 736 "},"ž":{"ha":675,"x_min":0,"x_max":0,"o":"m 33 192 l 303 486 l 49 486 l 49 694 l 640 694 l 640 503 l 371 208 l 644 208 l 644 0 l 33 0 m 288 958 l 338 824 l 388 958 l 644 958 l 497 736 l 178 736 l 31 958 "},"ż":{"ha":675,"x_min":0,"x_max":0,"o":"m 33 192 l 303 486 l 49 486 l 49 694 l 640 694 l 640 503 l 371 208 l 644 208 l 644 0 l 33 0 m 201 822 b 340 935 201 897 247 935 b 476 822 431 935 476 897 b 340 713 476 747 431 713 b 201 822 247 713 201 747 "},"ẓ":{"ha":675,"x_min":0,"x_max":0,"o":"m 33 192 l 303 486 l 49 486 l 49 694 l 640 694 l 640 503 l 371 208 l 644 208 l 644 0 l 33 0 m 197 -156 b 336 -43 197 -81 243 -43 b 472 -156 426 -43 472 -81 b 336 -265 472 -231 426 -265 b 197 -156 243 -265 197 -231 "},"ẕ":{"ha":675,"x_min":0,"x_max":0,"o":"m 33 192 l 303 486 l 49 486 l 49 694 l 640 694 l 640 503 l 371 208 l 644 208 l 644 0 l 33 0 m 101 -56 l 574 -56 l 574 -250 l 101 -250 "},"ﬁ":{"ha":890,"x_min":0,"x_max":0,"o":"m 99 472 l 1 472 l 1 694 l 99 694 b 71 806 85 728 71 764 b 338 1003 71 931 157 1003 b 499 986 389 1003 444 997 l 481 781 b 417 785 456 783 435 785 b 333 733 360 785 333 771 b 347 694 333 719 339 707 l 479 694 l 479 472 l 368 472 l 368 0 l 99 0 m 532 872 b 696 1007 532 963 586 1007 b 858 872 806 1007 858 963 b 696 742 858 783 806 742 b 532 872 586 742 532 783 m 560 694 l 829 694 l 829 0 l 560 0 "},"ﬂ":{"ha":896,"x_min":0,"x_max":0,"o":"m 99 472 l 1 472 l 1 694 l 99 694 b 71 806 85 728 71 764 b 338 1003 71 931 157 1003 b 499 986 389 1003 444 997 l 481 781 b 417 785 456 783 435 785 b 333 733 360 785 333 771 b 347 694 333 719 339 707 l 479 694 l 479 472 l 368 472 l 368 0 l 99 0 m 564 986 l 832 986 l 832 0 l 564 0 "},"ª":{"ha":775,"x_min":0,"x_max":0,"o":"m 271 313 b 56 535 126 313 56 388 b 322 769 56 694 140 769 b 450 754 375 769 415 763 l 450 763 b 329 833 450 806 421 833 b 124 801 281 833 211 822 l 104 1003 b 368 1042 193 1026 290 1042 b 719 706 617 1042 719 940 l 719 343 l 497 331 l 453 394 b 271 313 419 340 358 313 m 328 560 b 385 501 328 519 346 501 b 450 599 429 501 450 526 l 450 614 b 400 618 435 617 417 618 b 328 560 353 618 328 604 "},"º":{"ha":821,"x_min":0,"x_max":0,"o":"m 410 314 b 56 678 181 314 56 428 b 410 1042 56 926 181 1042 b 765 678 640 1042 765 928 b 410 314 765 428 640 314 m 328 678 b 410 522 328 565 347 522 b 493 678 472 522 493 565 b 410 833 493 790 472 833 b 328 678 347 833 328 790 "},"₀":{"ha":589,"x_min":0,"x_max":0,"o":"m 294 -87 b 31 231 117 -87 31 21 b 294 547 31 440 117 547 b 560 231 472 547 560 440 b 294 -87 560 21 472 -87 m 218 231 b 294 56 218 101 242 56 b 371 231 347 56 371 101 b 294 406 371 360 347 406 b 218 231 242 406 218 360 "},"₁":{"ha":364,"x_min":0,"x_max":0,"o":"m 119 390 l 0 386 l 0 538 l 267 547 l 303 547 l 303 -76 l 119 -76 "},"₂":{"ha":492,"x_min":0,"x_max":0,"o":"m 26 57 b 274 344 208 221 274 276 b 196 406 274 385 247 406 b 58 378 142 406 83 385 l 42 525 b 226 547 94 540 168 547 b 461 344 381 547 461 478 b 254 75 461 214 347 135 l 453 75 l 453 -76 l 26 -76 l 26 57 "},"₃":{"ha":519,"x_min":0,"x_max":0,"o":"m 240 -87 b 26 -43 136 -87 71 -58 l 43 106 b 224 56 68 96 135 56 b 304 113 283 56 304 74 b 211 165 304 151 269 165 l 167 165 l 167 306 l 211 306 b 282 356 256 306 282 319 b 214 406 282 392 260 406 b 78 376 160 406 100 385 l 61 525 b 236 547 114 539 174 547 b 469 381 397 547 469 488 b 389 246 469 313 444 264 b 493 100 460 231 493 179 b 240 -87 493 -33 406 -87 "},"₄":{"ha":594,"x_min":0,"x_max":0,"o":"m 326 13 l 32 13 l 32 146 l 265 538 l 510 538 l 510 164 l 581 164 l 581 13 l 510 13 l 510 -76 l 326 -76 m 326 164 l 326 390 l 211 164 "},"₅":{"ha":528,"x_min":0,"x_max":0,"o":"m 240 -87 b 26 -43 136 -87 71 -58 l 43 106 b 215 56 68 96 126 56 b 308 119 281 56 308 75 b 204 190 308 168 275 190 b 56 172 157 190 97 182 l 88 538 l 471 538 l 471 386 l 233 386 l 224 306 b 314 324 254 318 281 324 b 497 126 431 324 497 253 b 240 -87 497 -21 415 -87 "},"₆":{"ha":547,"x_min":0,"x_max":0,"o":"m 281 -87 b 31 231 103 -87 31 1 b 317 547 31 453 125 547 b 492 525 378 547 439 539 l 475 376 b 328 406 450 385 392 406 b 222 310 258 406 231 381 b 329 335 253 325 288 335 b 521 124 456 335 521 263 b 281 -87 521 -18 433 -87 m 218 179 b 281 56 221 90 236 56 b 333 124 319 56 333 82 b 281 192 333 165 319 192 b 218 179 258 192 239 186 "},"₇":{"ha":444,"x_min":0,"x_max":0,"o":"m 258 386 l 8 386 l 8 538 l 436 538 l 436 394 l 242 -76 l 39 -76 "},"₈":{"ha":567,"x_min":0,"x_max":0,"o":"m 283 -87 b 26 97 115 -87 26 -36 b 129 246 26 176 60 231 b 49 381 75 264 49 313 b 283 547 49 488 121 547 b 517 381 446 547 517 488 b 438 246 517 313 493 264 b 540 97 507 231 540 176 b 283 -87 540 -36 451 -87 m 204 110 b 283 56 204 71 231 56 b 363 110 338 56 363 71 b 283 165 363 150 338 165 b 204 110 231 165 204 150 m 224 357 b 283 307 224 321 249 307 b 344 357 319 307 344 321 b 283 407 344 392 319 407 b 224 357 249 407 224 392 "},"₉":{"ha":549,"x_min":0,"x_max":0,"o":"m 231 -87 b 46 -65 160 -87 100 -78 l 63 83 b 221 56 86 76 146 56 b 325 150 290 56 317 81 b 218 126 296 136 261 126 b 26 331 94 126 26 197 b 272 547 26 476 125 547 b 518 231 440 547 518 461 b 231 -87 518 8 421 -87 m 214 338 b 268 268 214 296 228 268 b 329 282 289 268 310 274 b 268 406 326 374 314 406 b 214 338 228 406 214 379 "},"⁰":{"ha":589,"x_min":0,"x_max":0,"o":"m 294 426 b 31 744 117 426 31 535 b 294 1061 31 954 117 1061 b 560 744 472 1061 560 954 b 294 426 560 535 472 426 m 218 744 b 294 569 218 615 242 569 b 371 744 347 569 371 615 b 294 919 371 874 347 919 b 218 744 242 919 218 874 "},"¹":{"ha":364,"x_min":0,"x_max":0,"o":"m 119 904 l 0 900 l 0 1051 l 267 1061 l 303 1061 l 303 438 l 119 438 "},"²":{"ha":492,"x_min":0,"x_max":0,"o":"m 26 571 b 274 858 208 735 274 790 b 196 919 274 899 247 919 b 58 892 142 919 83 899 l 42 1039 b 226 1061 94 1054 168 1061 b 461 858 381 1061 461 992 b 254 589 461 728 347 649 l 453 589 l 453 438 l 26 438 l 26 571 "},"³":{"ha":519,"x_min":0,"x_max":0,"o":"m 240 426 b 26 471 136 426 71 456 l 43 619 b 224 569 68 610 135 569 b 304 626 283 569 304 588 b 211 679 304 665 269 679 l 167 679 l 167 819 l 211 819 b 282 869 256 819 282 833 b 214 919 282 906 260 919 b 78 890 160 919 100 899 l 61 1039 b 236 1061 114 1053 174 1061 b 469 894 397 1061 469 1001 b 389 760 469 826 444 778 b 493 614 460 744 493 693 b 240 426 493 481 406 426 "},"⁴":{"ha":594,"x_min":0,"x_max":0,"o":"m 326 526 l 32 526 l 32 660 l 265 1051 l 510 1051 l 510 678 l 581 678 l 581 526 l 510 526 l 510 438 l 326 438 m 326 678 l 326 904 l 211 678 "},"⁵":{"ha":528,"x_min":0,"x_max":0,"o":"m 240 426 b 26 471 136 426 71 456 l 43 619 b 215 569 68 610 126 569 b 308 633 281 569 308 589 b 204 704 308 682 275 704 b 56 686 157 704 97 696 l 88 1051 l 471 1051 l 471 900 l 233 900 l 224 819 b 314 838 254 832 281 838 b 497 640 431 838 497 767 b 240 426 497 493 415 426 "},"⁶":{"ha":547,"x_min":0,"x_max":0,"o":"m 281 426 b 31 744 103 426 31 515 b 317 1061 31 967 125 1061 b 492 1039 378 1061 439 1053 l 475 890 b 328 919 450 899 392 919 b 222 824 258 919 231 894 b 329 849 253 839 288 849 b 521 638 456 849 521 776 b 281 426 521 496 433 426 m 218 693 b 281 569 221 604 236 569 b 333 638 319 569 333 596 b 281 706 333 679 319 706 b 218 693 258 706 239 700 "},"⁷":{"ha":444,"x_min":0,"x_max":0,"o":"m 258 900 l 8 900 l 8 1051 l 436 1051 l 436 908 l 242 438 l 39 438 "},"⁸":{"ha":567,"x_min":0,"x_max":0,"o":"m 283 426 b 26 611 115 426 26 478 b 129 760 26 690 60 744 b 49 894 75 778 49 826 b 283 1061 49 1001 121 1061 b 517 894 446 1061 517 1001 b 438 760 517 826 493 778 b 540 611 507 744 540 690 b 283 426 540 478 451 426 m 204 624 b 283 569 204 585 231 569 b 363 624 338 569 363 585 b 283 679 363 664 338 679 b 204 624 231 679 204 664 m 224 871 b 283 821 224 835 249 821 b 344 871 319 821 344 835 b 283 921 344 906 319 921 b 224 871 249 921 224 906 "},"⁹":{"ha":549,"x_min":0,"x_max":0,"o":"m 231 426 b 46 449 160 426 100 436 l 63 597 b 221 569 86 590 146 569 b 325 664 290 569 317 594 b 218 640 296 650 261 640 b 26 844 94 640 26 711 b 272 1061 26 990 125 1061 b 518 744 440 1061 518 975 b 231 426 518 522 421 426 m 214 851 b 268 782 214 810 228 782 b 329 796 289 782 310 788 b 268 919 326 888 314 919 b 214 851 228 919 214 893 "},"⁄":{"ha":206,"x_min":0,"x_max":0,"o":"m 232 975 l 429 975 l -12 -17 l -210 -17 "},"½":{"ha":1033,"x_min":0,"x_max":0,"o":"m 119 904 l 0 900 l 0 1051 l 267 1061 l 303 1061 l 303 438 l 119 438 m 568 975 l 765 975 l 324 -17 l 126 -17 m 568 57 b 815 344 750 221 815 276 b 738 406 815 385 789 406 b 600 378 683 406 625 385 l 583 525 b 768 547 636 540 710 547 b 1003 344 922 547 1003 478 b 796 75 1003 214 889 135 l 994 75 l 994 -76 l 568 -76 "},"¼":{"ha":1039,"x_min":0,"x_max":0,"o":"m 119 904 l 0 900 l 0 1051 l 267 1061 l 303 1061 l 303 438 l 119 438 m 568 975 l 765 975 l 324 -17 l 126 -17 m 476 146 l 710 538 l 954 538 l 954 164 l 1025 164 l 1025 13 l 954 13 l 954 -76 l 771 -76 l 771 13 l 476 13 m 771 164 l 771 390 l 656 164 "},"¾":{"ha":1222,"x_min":0,"x_max":0,"o":"m 240 426 b 26 471 136 426 71 456 l 43 619 b 224 569 68 610 135 569 b 304 626 283 569 304 588 b 211 679 304 665 269 679 l 167 679 l 167 819 l 211 819 b 282 869 256 819 282 833 b 214 919 282 906 260 919 b 78 890 160 919 100 899 l 61 1039 b 236 1061 114 1053 174 1061 b 469 894 397 1061 469 1001 b 389 760 469 826 444 778 b 493 614 460 744 493 693 b 240 426 493 481 406 426 m 751 975 l 949 975 l 507 -17 l 310 -17 m 660 146 l 893 538 l 1138 538 l 1138 164 l 1208 164 l 1208 13 l 1138 13 l 1138 -76 l 954 -76 l 954 13 l 660 13 m 954 164 l 954 390 l 839 164 "},"⅛":{"ha":1108,"x_min":0,"x_max":0,"o":"m 119 904 l 0 900 l 0 1051 l 267 1061 l 303 1061 l 303 438 l 119 438 m 568 975 l 765 975 l 324 -17 l 126 -17 m 568 97 b 671 246 568 176 601 231 b 590 381 617 264 590 313 b 825 547 590 488 663 547 b 1058 381 988 547 1058 488 b 979 246 1058 313 1035 264 b 1082 97 1049 231 1082 176 b 825 -87 1082 -36 993 -87 b 568 97 657 -87 568 -36 m 746 110 b 825 56 746 71 772 56 b 904 110 879 56 904 71 b 825 165 904 150 879 165 b 746 110 772 165 746 150 m 765 357 b 825 307 765 321 790 307 b 886 357 861 307 886 321 b 825 407 886 392 861 407 b 765 357 790 407 765 392 "},"⅜":{"ha":1292,"x_min":0,"x_max":0,"o":"m 240 426 b 26 471 136 426 71 456 l 43 619 b 224 569 68 610 135 569 b 304 626 283 569 304 588 b 211 679 304 665 269 679 l 167 679 l 167 819 l 211 819 b 282 869 256 819 282 833 b 214 919 282 906 260 919 b 78 890 160 919 100 899 l 61 1039 b 236 1061 114 1053 174 1061 b 469 894 397 1061 469 1001 b 389 760 469 826 444 778 b 493 614 460 744 493 693 b 240 426 493 481 406 426 m 751 975 l 949 975 l 507 -17 l 310 -17 m 751 97 b 854 246 751 176 785 231 b 774 381 800 264 774 313 b 1008 547 774 488 846 547 b 1242 381 1171 547 1242 488 b 1163 246 1242 313 1218 264 b 1265 97 1232 231 1265 176 b 1008 -87 1265 -36 1176 -87 b 751 97 840 -87 751 -36 m 929 110 b 1008 56 929 71 956 56 b 1088 110 1063 56 1088 71 b 1008 165 1088 150 1063 165 b 929 110 956 165 929 150 m 949 357 b 1008 307 949 321 974 307 b 1069 357 1044 307 1069 321 b 1008 407 1069 392 1044 407 b 949 357 974 407 949 392 "},"⅝":{"ha":1258,"x_min":0,"x_max":0,"o":"m 240 426 b 26 471 136 426 71 456 l 43 619 b 215 569 68 610 126 569 b 308 633 281 569 308 589 b 204 704 308 682 275 704 b 56 686 157 704 97 696 l 88 1051 l 471 1051 l 471 900 l 233 900 l 224 819 b 314 838 254 832 281 838 b 497 640 431 838 497 767 b 240 426 497 493 415 426 m 718 975 l 915 975 l 474 -17 l 276 -17 m 718 97 b 821 246 718 176 751 231 b 740 381 767 264 740 313 b 975 547 740 488 813 547 b 1208 381 1138 547 1208 488 b 1129 246 1208 313 1185 264 b 1232 97 1199 231 1232 176 b 975 -87 1232 -36 1143 -87 b 718 97 807 -87 718 -36 m 896 110 b 975 56 896 71 922 56 b 1054 110 1029 56 1054 71 b 975 165 1054 150 1029 165 b 896 110 922 165 896 150 m 915 357 b 975 307 915 321 940 307 b 1036 357 1011 307 1036 321 b 975 407 1036 392 1011 407 b 915 357 940 407 915 392 "},"⅞":{"ha":1119,"x_min":0,"x_max":0,"o":"m 258 900 l 8 900 l 8 1051 l 436 1051 l 436 908 l 242 438 l 39 438 m 579 975 l 776 975 l 335 -17 l 138 -17 m 579 97 b 682 246 579 176 613 231 b 601 381 628 264 601 313 b 836 547 601 488 674 547 b 1069 381 999 547 1069 488 b 990 246 1069 313 1046 264 b 1093 97 1060 231 1093 176 b 836 -87 1093 -36 1004 -87 b 579 97 668 -87 579 -36 m 757 110 b 836 56 757 71 783 56 b 915 110 890 56 915 71 b 836 165 915 150 890 165 b 757 110 783 165 757 150 m 776 357 b 836 307 776 321 801 307 b 897 357 872 307 897 321 b 836 407 897 392 872 407 b 776 357 801 407 776 392 "},"　":{"ha":1389,"x_min":0,"x_max":0,"o":""}," ":{"ha":308,"x_min":0,"x_max":0,"o":""},"‎":{"ha":0,"x_min":0,"x_max":0,"o":""},"‏":{"ha":0,"x_min":0,"x_max":0,"o":""},"‍":{"ha":0,"x_min":0,"x_max":0,"o":""},"‌":{"ha":0,"x_min":0,"x_max":0,"o":""}," ":{"ha":1389,"x_min":0,"x_max":0,"o":""}," ":{"ha":1389,"x_min":0,"x_max":0,"o":""}," ":{"ha":694,"x_min":0,"x_max":0,"o":""}," ":{"ha":694,"x_min":0,"x_max":0,"o":""}," ":{"ha":922,"x_min":0,"x_max":0,"o":""}," ":{"ha":347,"x_min":0,"x_max":0,"o":""}," ":{"ha":199,"x_min":0,"x_max":0,"o":""}," ":{"ha":222,"x_min":0,"x_max":0,"o":""}," ":{"ha":439,"x_min":0,"x_max":0,"o":""}," ":{"ha":232,"x_min":0,"x_max":0,"o":""}," ":{"ha":278,"x_min":0,"x_max":0,"o":""}," ":{"ha":278,"x_min":0,"x_max":0,"o":""}," ":{"ha":463,"x_min":0,"x_max":0,"o":""},"​":{"ha":0,"x_min":0,"x_max":0,"o":""},"·":{"ha":386,"x_min":0,"x_max":0,"o":"m 194 368 b 56 478 103 368 56 403 b 194 590 56 553 101 590 b 331 478 285 590 331 553 b 194 368 331 403 285 368 "},";":{"ha":439,"x_min":0,"x_max":0,"o":"m 67 -85 b 174 -17 121 -72 163 -53 b 56 110 92 -11 56 39 b 214 249 56 199 111 249 b 383 75 325 249 383 188 b 76 -194 383 -82 271 -182 l 67 -85 m 56 560 b 221 694 56 650 111 694 b 383 560 329 694 383 650 b 221 429 383 471 329 429 b 56 560 111 429 56 471 "},".":{"ha":439,"x_min":0,"x_max":0,"o":"m 221 -17 b 56 114 111 -17 56 25 b 221 249 56 204 111 249 b 383 114 329 249 383 204 b 221 -17 383 25 329 -17 "},",":{"ha":439,"x_min":0,"x_max":0,"o":"m 214 253 b 383 79 325 253 383 193 b 76 -190 383 -72 278 -176 l 67 -79 b 174 -12 128 -67 163 -46 b 56 114 92 -7 56 44 b 214 253 56 203 113 253 "},":":{"ha":439,"x_min":0,"x_max":0,"o":"m 221 429 b 56 560 111 429 56 471 b 221 694 56 650 111 694 b 383 560 329 694 383 650 b 221 429 383 471 329 429 m 56 114 b 221 249 56 204 111 249 b 383 114 329 249 383 204 b 221 -17 383 25 329 -17 b 56 114 111 -17 56 25 "},";":{"ha":439,"x_min":0,"x_max":0,"o":"m 221 429 b 56 560 111 429 56 471 b 221 694 56 650 111 694 b 383 560 329 694 383 650 b 221 429 383 471 329 429 m 56 114 b 214 253 56 203 113 253 b 383 79 325 253 383 193 b 76 -190 383 -72 278 -176 l 67 -79 b 174 -12 128 -67 163 -46 b 56 114 92 -7 56 44 "},"…":{"ha":1317,"x_min":0,"x_max":0,"o":"m 221 -17 b 56 114 111 -17 56 25 b 221 249 56 204 111 249 b 383 114 329 249 383 204 b 221 -17 383 25 329 -17 m 494 114 b 660 249 494 204 550 249 b 822 114 768 249 822 204 b 660 -17 822 25 768 -17 b 494 114 550 -17 494 25 m 933 114 b 1099 249 933 204 989 249 b 1261 114 1207 249 1261 204 b 1099 -17 1261 25 1207 -17 b 933 114 989 -17 933 25 "},"!":{"ha":439,"x_min":0,"x_max":0,"o":"m 221 -17 b 56 114 111 -17 56 25 b 221 249 56 204 111 249 b 383 114 329 249 383 204 b 221 -17 383 25 329 -17 m 335 986 l 306 347 l 78 347 l 49 986 "},"¡":{"ha":439,"x_min":0,"x_max":0,"o":"m 106 347 l 333 347 l 363 -292 l 76 -292 m 56 581 b 218 711 56 671 110 711 b 383 581 328 711 383 669 b 218 446 383 490 328 446 b 56 581 110 446 56 490 "},"?":{"ha":767,"x_min":0,"x_max":0,"o":"m 183 319 b 417 683 183 653 417 557 b 296 769 417 736 375 769 b 82 726 210 769 118 738 l 56 957 b 343 992 139 979 247 992 b 711 674 583 992 711 881 b 433 319 711 344 433 486 l 433 289 l 183 289 m 143 114 b 308 249 143 204 199 249 b 471 114 417 249 471 204 b 308 -17 471 25 417 -17 b 143 114 199 -17 143 25 "},"¿":{"ha":765,"x_min":0,"x_max":0,"o":"m 422 -308 b 56 10 182 -308 56 -197 b 332 363 56 339 332 197 l 332 394 l 582 394 l 582 363 b 349 0 582 31 349 126 b 469 -86 349 -53 390 -86 b 685 -43 556 -86 647 -54 l 710 -274 b 422 -308 626 -296 519 -308 m 294 581 b 457 711 294 669 349 711 b 622 581 568 711 622 669 b 457 446 622 490 568 446 b 294 581 349 446 294 490 "},"·":{"ha":439,"x_min":0,"x_max":0,"o":"m 221 217 b 56 347 111 217 56 258 b 221 482 56 438 111 482 b 383 347 329 482 383 438 b 221 217 383 258 329 217 "},"•":{"ha":465,"x_min":0,"x_max":0,"o":"m 235 336 b 56 476 115 336 56 381 b 235 622 56 574 115 622 b 410 476 351 622 410 575 b 235 336 410 381 351 336 "},"*":{"ha":817,"x_min":0,"x_max":0,"o":"m 353 601 l 147 447 l 56 621 l 292 700 l 61 790 l 163 958 l 354 796 l 313 1042 l 510 1042 l 469 793 l 669 946 l 761 771 l 524 693 l 757 600 l 656 432 l 468 593 l 508 347 l 311 347 "},"#":{"ha":1056,"x_min":0,"x_max":0,"o":"m 167 199 l 56 199 l 93 435 l 217 435 l 236 525 l 108 525 l 146 761 l 286 761 l 329 958 l 589 958 l 546 761 l 629 761 l 672 958 l 932 958 l 889 761 l 1000 761 l 963 525 l 839 525 l 819 435 l 947 435 l 910 199 l 769 199 l 728 0 l 468 0 l 510 199 l 426 199 l 385 0 l 125 0 m 560 435 l 579 525 l 496 525 l 476 435 "},"/":{"ha":764,"x_min":0,"x_max":0,"o":"m 458 986 l 750 986 l 306 -114 l 14 -114 "},"\\":{"ha":786,"x_min":0,"x_max":0,"o":"m 14 986 l 306 986 l 772 -17 l 481 -17 "},"-":{"ha":625,"x_min":0,"x_max":0,"o":"m 56 465 l 569 465 l 569 229 l 56 229 "},"–":{"ha":863,"x_min":0,"x_max":0,"o":"m 56 465 l 807 465 l 807 229 l 56 229 "},"—":{"ha":1086,"x_min":0,"x_max":0,"o":"m 57 465 l 1029 465 l 1029 229 l 57 229 "},"_":{"ha":875,"x_min":0,"x_max":0,"o":"m 56 -17 l 819 -17 l 819 -253 l 56 -253 "},"―":{"ha":1142,"x_min":0,"x_max":0,"o":"m 57 465 l 1085 465 l 1085 229 l 57 229 "},"(":{"ha":547,"x_min":0,"x_max":0,"o":"m 256 -139 b 56 424 131 -14 56 174 b 256 986 56 674 131 861 l 492 986 b 350 424 397 844 350 644 b 492 -139 350 201 397 3 l 256 -139 "},")":{"ha":547,"x_min":0,"x_max":0,"o":"m 56 -139 b 197 424 150 3 197 201 b 56 986 197 644 150 844 l 292 986 b 492 424 417 861 492 674 b 292 -139 492 174 417 -14 l 56 -139 "},"{":{"ha":651,"x_min":0,"x_max":0,"o":"m 453 -186 b 163 38 251 -186 163 -117 b 179 217 163 103 179 161 b 56 339 179 276 147 322 l 56 461 b 179 583 147 476 179 524 b 163 763 179 639 163 697 b 453 986 163 917 251 986 b 596 971 504 986 538 982 l 574 751 b 496 763 550 756 528 763 b 424 688 436 763 424 732 b 431 575 424 656 431 615 b 296 400 431 482 386 415 b 431 224 386 385 431 317 b 424 113 431 183 424 144 b 496 38 424 68 436 38 b 574 49 528 38 550 44 l 596 -171 b 453 -186 538 -182 504 -186 "},"}":{"ha":651,"x_min":0,"x_max":0,"o":"m 199 -186 b 56 -171 147 -186 114 -182 l 78 49 b 156 38 101 44 124 38 b 228 113 215 38 228 68 b 221 224 228 144 221 183 b 356 400 221 317 265 385 b 221 575 265 415 221 482 b 228 688 221 615 228 656 b 156 763 228 732 215 763 b 78 751 124 763 101 756 l 56 971 b 199 986 114 982 147 986 b 488 763 400 986 488 917 b 472 583 488 697 472 639 b 596 461 472 524 504 476 l 596 339 b 472 217 504 322 472 276 b 489 38 472 161 489 103 b 199 -186 489 -117 400 -186 "},"[":{"ha":578,"x_min":0,"x_max":0,"o":"m 56 986 l 522 986 l 522 764 l 342 764 l 342 69 l 522 69 l 522 -153 l 56 -153 "},"]":{"ha":578,"x_min":0,"x_max":0,"o":"m 56 69 l 236 69 l 236 764 l 56 764 l 56 986 l 522 986 l 522 -153 l 56 -153 "},"‚":{"ha":440,"x_min":0,"x_max":0,"o":"m 214 142 b 383 -32 325 142 383 82 b 76 -301 383 -183 278 -287 l 67 -190 b 174 -124 128 -178 163 -157 b 56 3 92 -118 56 -67 b 214 142 56 92 113 142 "},"„":{"ha":788,"x_min":0,"x_max":0,"o":"m 561 142 b 731 -32 672 142 731 82 b 424 -301 731 -183 625 -287 l 414 -190 b 521 -124 475 -178 510 -157 b 403 3 439 -118 403 -67 b 561 142 403 92 460 142 m 56 3 b 214 142 56 92 113 142 b 383 -32 325 142 383 82 b 76 -301 383 -183 278 -287 l 67 -190 b 174 -124 128 -178 163 -157 b 56 3 92 -118 56 -67 "},"“":{"ha":788,"x_min":0,"x_max":0,"o":"m 572 532 b 403 706 461 532 403 592 b 710 975 403 857 508 961 l 719 864 b 613 797 658 851 624 831 b 731 671 694 792 731 740 b 572 532 731 582 674 532 m 56 706 b 363 975 56 857 161 961 l 372 864 b 265 797 311 851 276 831 b 383 671 347 792 383 740 b 225 532 383 582 326 532 b 56 706 114 532 56 592 "},"”":{"ha":788,"x_min":0,"x_max":0,"o":"m 214 981 b 383 807 325 981 383 921 b 76 538 383 656 278 551 l 67 649 b 174 715 128 661 163 682 b 56 842 92 721 56 772 b 214 981 56 931 113 981 m 403 842 b 561 981 403 931 460 981 b 731 807 672 981 731 921 b 424 538 731 656 625 551 l 414 649 b 521 715 475 661 510 682 b 403 842 439 721 403 772 "},"‘":{"ha":442,"x_min":0,"x_max":0,"o":"m 226 532 b 57 706 115 532 57 592 b 364 975 57 857 163 961 l 374 864 b 267 797 313 851 278 831 b 385 671 349 792 385 740 b 226 532 385 582 328 532 "},"’":{"ha":439,"x_min":0,"x_max":0,"o":"m 231 960 b 400 786 342 960 400 900 b 93 517 400 635 294 531 l 83 628 b 190 694 144 640 179 661 b 72 821 108 700 72 751 b 231 960 72 910 129 960 "},"«":{"ha":978,"x_min":0,"x_max":0,"o":"m 454 347 l 638 682 l 922 682 l 711 347 l 922 13 l 638 13 m 239 682 l 524 682 l 313 347 l 524 13 l 239 13 l 56 347 "},"»":{"ha":978,"x_min":0,"x_max":0,"o":"m 665 347 l 454 682 l 739 682 l 922 347 l 739 13 l 454 13 m 267 347 l 56 682 l 340 682 l 524 347 l 340 13 l 56 13 "},"‹":{"ha":579,"x_min":0,"x_max":0,"o":"m 56 347 l 239 682 l 524 682 l 313 347 l 524 13 l 239 13 "},"›":{"ha":579,"x_min":0,"x_max":0,"o":"m 267 347 l 56 682 l 340 682 l 524 347 l 340 13 l 56 13 "},"\"":{"ha":824,"x_min":0,"x_max":0,"o":"m 68 642 b 174 710 122 654 163 674 b 56 836 92 715 56 765 b 214 975 56 925 113 975 b 385 801 326 975 385 914 b 78 532 385 644 271 544 l 68 642 m 440 836 b 597 975 440 925 496 975 b 768 801 710 975 768 914 b 461 532 768 644 654 544 l 451 642 b 557 710 506 654 546 674 b 440 836 475 715 440 765 "},"'":{"ha":439,"x_min":0,"x_max":0,"o":"m 217 974 b 386 800 328 974 386 914 b 79 531 386 649 281 544 l 69 642 b 176 708 131 654 165 675 b 58 835 94 714 58 765 b 217 974 58 924 115 974 "},"ƒ":{"ha":553,"x_min":0,"x_max":0,"o":"m 157 -308 b 3 -292 103 -308 51 -301 l 22 -87 b 64 -89 38 -87 53 -89 b 149 14 146 -89 149 -49 l 149 472 l 38 472 l 38 694 l 149 694 b 121 806 135 728 121 767 b 388 1003 121 931 208 1003 b 550 986 442 1003 500 996 l 531 781 b 467 785 501 783 482 785 b 383 733 410 785 383 771 b 399 694 383 719 390 706 l 529 694 l 529 472 l 418 472 l 418 14 b 157 -308 418 -222 347 -308 "},"ʹ":{"ha":451,"x_min":0,"x_max":0,"o":"m 125 986 l 396 986 l 278 764 l 56 764 "},"͵":{"ha":451,"x_min":0,"x_max":0,"o":"m 174 0 l 396 0 l 326 -222 l 56 -222 "},"@":{"ha":1125,"x_min":0,"x_max":0,"o":"m 560 -165 b 56 332 253 -165 56 4 b 571 838 56 665 249 838 b 1069 392 885 838 1069 674 b 831 -17 1069 111 996 -17 b 660 64 754 -17 696 10 b 454 -17 626 10 539 -17 b 238 204 310 -17 238 57 b 506 440 238 364 324 440 b 632 425 551 440 599 433 l 632 432 b 513 503 632 476 603 503 b 306 472 464 503 393 492 l 286 672 b 550 711 375 696 474 711 b 901 375 799 711 901 610 l 901 308 b 953 206 901 226 911 206 b 1014 392 1001 206 1014 260 b 571 782 1014 642 853 782 b 111 332 279 782 111 632 b 560 -110 111 39 282 -110 b 903 -44 713 -110 818 -82 l 911 -100 b 560 -165 825 -139 719 -165 m 510 229 b 567 171 510 190 529 171 b 632 268 611 171 632 196 l 632 285 b 583 288 619 286 601 288 b 510 229 535 288 510 274 "},"&":{"ha":1090,"x_min":0,"x_max":0,"o":"m 378 -17 b 56 260 175 -17 56 79 b 272 503 56 397 149 481 b 133 714 186 532 133 607 b 499 975 133 881 246 975 b 800 940 624 975 717 961 l 775 708 b 532 753 738 719 646 753 b 426 675 461 753 426 731 b 604 597 426 582 544 597 b 875 694 700 597 818 639 l 875 597 l 1007 597 l 1007 378 l 875 378 l 875 306 b 972 203 875 226 899 203 b 1015 204 985 203 999 204 l 1035 0 b 867 -17 986 -10 936 -17 b 653 72 761 -17 693 10 b 378 -17 586 18 499 -17 m 351 292 b 492 206 351 228 393 206 b 608 222 535 206 574 213 b 606 306 607 247 606 275 l 606 378 l 508 378 b 351 292 389 378 351 353 "},"¶":{"ha":1264,"x_min":0,"x_max":0,"o":"m 558 278 b 468 275 525 276 490 275 b 56 625 201 275 56 399 b 492 975 56 854 206 975 b 829 940 588 975 701 961 l 828 -292 l 558 -292 l 558 278 m 347 625 b 465 497 347 535 383 497 b 556 508 489 497 524 500 l 556 742 b 467 753 524 750 489 753 b 347 625 383 753 347 715 m 939 958 l 1208 958 l 1208 -292 l 939 -292 "},"§":{"ha":732,"x_min":0,"x_max":0,"o":"m 358 -150 b 56 -104 254 -150 143 -132 l 74 96 b 322 58 168 71 239 58 b 404 99 388 58 404 79 b 56 365 404 183 56 117 b 154 536 56 449 89 503 b 56 731 99 569 56 625 b 374 975 56 892 157 975 b 656 936 461 975 567 960 l 636 735 b 410 767 543 757 467 767 b 328 725 344 767 328 744 b 676 458 328 640 676 708 b 578 288 676 376 643 321 b 676 94 633 256 676 200 b 358 -150 676 -67 575 -150 m 319 410 b 354 360 319 386 333 371 b 413 415 397 364 413 396 b 378 465 413 439 399 454 b 319 410 335 460 319 428 "},"©":{"ha":1147,"x_min":0,"x_max":0,"o":"m 574 -17 b 56 486 254 -17 56 167 b 574 989 56 806 254 989 b 1092 486 892 989 1092 806 b 574 -17 1092 167 892 -17 m 125 486 b 574 39 125 188 292 39 b 1022 486 854 39 1022 188 b 574 933 1022 785 854 933 b 125 486 292 933 125 785 m 239 486 b 593 850 239 735 363 850 b 796 825 663 850 744 839 l 776 625 b 639 642 746 632 694 642 b 511 486 547 642 511 599 b 639 331 511 372 547 331 b 776 347 694 331 746 340 l 796 147 b 593 122 744 133 663 122 b 239 486 363 122 239 236 "},"®":{"ha":1147,"x_min":0,"x_max":0,"o":"m 326 808 b 565 832 413 822 500 832 b 858 606 757 832 858 760 b 743 417 858 501 819 443 l 888 174 l 663 174 l 563 389 b 519 392 549 390 535 390 l 519 174 l 326 174 l 326 808 m 56 486 b 574 989 56 806 254 989 b 1092 486 892 989 1092 806 b 574 -17 1092 167 892 -17 b 56 486 254 -17 56 167 m 125 486 b 574 39 125 188 292 39 b 1022 486 854 39 1022 188 b 574 933 1022 785 854 933 b 125 486 292 933 125 785 m 519 536 b 579 528 540 531 564 528 b 660 606 635 528 660 554 b 579 682 660 657 635 682 b 519 674 564 682 540 681 l 519 536 "},"™":{"ha":1285,"x_min":0,"x_max":0,"o":"m 186 743 l 26 743 l 26 893 l 528 893 l 528 743 l 368 743 l 368 282 l 186 282 m 567 893 l 801 893 l 913 563 l 1024 893 l 1258 893 l 1258 282 l 1075 282 l 1075 607 l 975 282 l 851 282 l 750 607 l 750 282 l 567 282 "},"°":{"ha":656,"x_min":0,"x_max":0,"o":"m 331 556 b 56 796 153 556 56 642 b 331 1042 56 953 156 1042 b 600 796 504 1042 600 954 b 331 556 600 640 506 556 m 235 797 b 329 711 235 739 265 711 b 421 797 392 711 421 739 b 329 886 421 857 390 886 b 235 797 267 886 235 856 "},"|":{"ha":397,"x_min":0,"x_max":0,"o":"m 56 1032 l 342 1032 l 342 -190 l 56 -190 "},"¦":{"ha":397,"x_min":0,"x_max":0,"o":"m 56 1032 l 342 1032 l 342 476 l 56 476 m 56 365 l 342 365 l 342 -190 l 56 -190 "},"ℓ":{"ha":751,"x_min":0,"x_max":0,"o":"m 376 1007 b 690 660 581 1007 690 892 b 515 347 690 479 625 388 b 336 319 464 329 404 321 b 432 206 336 235 361 206 b 640 249 507 206 607 238 l 665 18 b 401 -17 599 4 513 -17 b 50 321 158 -17 50 88 l 50 642 b 376 1007 50 892 172 1007 m 336 529 b 385 556 354 532 371 539 b 418 696 406 581 418 624 b 376 799 418 763 407 799 b 336 642 346 799 336 757 l 336 529 "},"†":{"ha":736,"x_min":0,"x_max":0,"o":"m 56 697 l 224 697 l 224 1032 l 510 1032 l 510 697 l 681 697 l 681 461 l 510 461 l 510 -190 l 224 -190 l 224 461 l 56 461 "},"‡":{"ha":736,"x_min":0,"x_max":0,"o":"m 224 135 l 56 135 l 56 371 l 224 371 l 224 461 l 56 461 l 56 697 l 224 697 l 224 1032 l 510 1032 l 510 697 l 681 697 l 681 461 l 510 461 l 510 371 l 681 371 l 681 135 l 510 135 l 510 -190 l 224 -190 "},"€":{"ha":885,"x_min":0,"x_max":0,"o":"m 582 -17 b 144 285 344 -17 197 83 l 56 285 l 56 451 l 122 451 l 122 479 b 122 507 122 489 122 497 l 56 507 l 56 674 l 144 674 b 582 975 197 876 344 975 b 799 954 651 975 733 967 l 774 726 b 614 753 731 739 676 753 b 449 674 532 753 479 732 l 768 674 l 750 507 l 417 507 l 417 479 b 417 451 417 469 417 460 l 743 451 l 725 285 l 449 285 b 614 206 479 226 532 206 b 803 240 693 206 758 225 l 829 10 b 582 -17 758 -6 663 -17 "},"¢":{"ha":669,"x_min":0,"x_max":0,"o":"m 343 119 b 56 479 156 140 56 256 b 411 843 56 729 179 843 l 421 958 l 490 958 l 479 840 b 614 818 529 836 578 828 l 594 618 b 456 635 564 625 511 635 b 328 479 364 635 328 593 b 456 324 328 367 364 324 b 594 340 511 324 564 333 l 614 140 b 411 115 563 126 481 115 l 401 0 l 332 0 l 343 119 "},"¤":{"ha":1097,"x_min":0,"x_max":0,"o":"m 56 179 l 210 333 b 189 476 194 374 189 419 b 214 624 189 536 194 582 l 56 782 l 254 981 l 421 814 b 549 831 461 826 503 831 b 676 814 594 831 636 826 l 840 981 l 1042 779 l 886 624 b 908 476 903 582 908 533 b 888 332 908 418 903 374 l 1042 176 l 843 -22 l 682 139 b 549 121 642 125 597 121 b 415 139 500 121 456 125 l 257 -22 m 461 476 b 549 372 461 413 494 372 b 636 476 603 372 636 413 b 549 581 636 540 603 581 b 461 476 494 581 461 540 "},"$":{"ha":851,"x_min":0,"x_max":0,"o":"m 363 -15 b 56 53 219 -7 118 33 l 79 285 b 383 206 122 268 247 206 l 397 360 b 78 658 271 390 78 406 b 453 975 78 867 204 974 l 458 1042 l 528 1042 l 521 972 b 743 940 603 968 688 956 l 717 708 b 501 753 678 719 588 749 l 488 596 b 796 299 614 567 796 546 b 432 -17 796 100 664 -11 l 426 -86 l 357 -86 l 363 -15 m 371 681 b 419 617 371 649 390 629 l 432 747 b 371 681 389 738 371 714 m 453 214 b 503 278 486 226 503 247 b 464 336 503 306 488 324 l 453 214 "},"₣":{"ha":846,"x_min":0,"x_max":0,"o":"m 132 104 l 56 104 l 56 271 l 132 271 l 132 958 l 790 958 l 790 722 l 418 722 l 418 583 l 735 583 l 735 347 l 418 347 l 418 271 l 611 271 l 611 104 l 418 104 l 418 0 l 132 0 "},"₤":{"ha":815,"x_min":0,"x_max":0,"o":"m 83 236 b 196 299 135 254 175 275 l 56 299 l 56 465 l 175 465 b 160 514 169 481 165 497 l 56 514 l 56 681 l 115 681 b 114 701 115 688 114 694 b 472 992 114 886 246 992 b 756 957 567 992 672 979 l 729 726 b 526 769 693 738 604 769 b 410 697 458 769 417 743 b 408 681 408 689 408 685 l 722 681 l 704 514 l 446 514 b 458 465 451 497 456 482 l 700 465 l 682 299 l 457 299 b 344 194 442 257 407 225 b 621 236 394 213 514 236 l 760 236 l 760 0 l 83 0 l 83 236 "},"£":{"ha":815,"x_min":0,"x_max":0,"o":"m 83 236 b 188 353 138 275 174 314 b 194 396 192 367 194 381 l 56 396 l 56 563 l 140 563 b 114 703 126 603 114 647 b 472 992 114 886 246 992 b 756 957 567 992 672 979 l 729 726 b 526 769 693 738 604 769 b 407 675 447 769 407 736 b 436 563 407 639 421 601 l 708 563 l 690 396 l 465 396 b 450 319 465 369 460 344 b 344 194 431 274 396 231 b 621 236 394 213 514 236 l 760 236 l 760 0 l 83 0 l 83 236 "}}}
